fira-sans_light-italic.sfdir
StartChar: exclam
Encoding: 33 33 2126
Width: 238
Flags: MW
HStem: -11 21G<73 100.5> -11 95<79 100.5> 665 20G<147 208 208 208>
VStem: 42 95<26 47>
LayerCount: 2
Back
Fore
SplineSet
86 218 m 1xb0
 147 685 l 1
 208 685 l 1
 138 218 l 1
 86 218 l 1xb0
93 84 m 0x70
 120 84 137 65 137 40 c 0
 137 12 115 -11 86 -11 c 0
 60 -11 42 8 42 32 c 0
 42 62 65 84 93 84 c 0x70
EndSplineSet
EndChar
StartChar: quotedbl
Encoding: 34 34 2132
Width: 360
Flags: MW
HStem: 434 251<103 191 130 147 288 305 130 261>
VStem: 103 246
LayerCount: 2
Back
Fore
SplineSet
103 434 m 1
 130 685 l 1
 191 685 l 1
 147 434 l 1
 103 434 l 1
261 434 m 1
 288 685 l 1
 349 685 l 1
 305 434 l 1
 261 434 l 1
EndSplineSet
EndChar
StartChar: numbersign
Encoding: 35 35 2128
Width: 500
Flags: MW
HStem: 0 21G<26 79 26 26 257 311 257 257> 180 47<10 75 3 88 141 306 10 128 373 438> 452 47<85 149 79 162 85 202 215 381 447 513>
VStem: 3 516<180 499>
LayerCount: 2
Back
Fore
SplineSet
513 452 m 1
 434 452 l 1
 373 227 l 1
 444 227 l 1
 438 180 l 1
 360 180 l 1
 311 0 l 1
 257 0 l 1
 306 180 l 1
 128 180 l 1
 79 0 l 1
 26 0 l 1
 75 180 l 1
 3 180 l 1
 10 227 l 1
 88 227 l 1
 149 452 l 1
 79 452 l 1
 85 499 l 1
 162 499 l 1
 207 665 l 1
 260 665 l 1
 215 499 l 1
 393 499 l 1
 439 665 l 1
 492 665 l 1
 447 499 l 1
 519 499 l 1
 513 452 l 1
319 227 m 1
 381 452 l 1
 202 452 l 1
 141 227 l 1
 319 227 l 1
EndSplineSet
Substitution2: "'onum' Oldstyle Figures lookup 26 subtable" numbersign.osf
Substitution2: "'tnum' Tabular Numbers lookup 25 subtable" numbersign.tf
AlternateSubs2: "'aalt' Access All Alternates lookup 1 subtable" numbersign.tf numbersign.osf
EndChar
StartChar: dollar
Encoding: 36 36 2206
Width: 522
GlyphClass: 2
Flags: MW
HStem: -10 49<196 196 247 247> 626 48<292 292 292 340>
VStem: 98 59<471 543 471 544.5> 401 60<157.5 230>
LayerCount: 2
Back
Fore
SplineSet
291 378 m 0
 395 345 461 296 461 202 c 0
 461 113 406 3 247 -10 c 1
 227 -151 l 1
 176 -151 l 1
 196 -10 l 1
 117 -6 56 26 12 73 c 1
 50 108 l 1
 89 66 144 39 214 39 c 0
 340 39 401 111 401 200 c 0
 401 260 363 297 266 330 c 0
 151 367 98 417 98 499 c 0
 98 590 166 667 292 674 c 1
 313 819 l 1
 363 819 l 1
 343 674 l 1
 407 668 452 641 496 600 c 1
 458 565 l 1
 413 609 366 626 314 626 c 0
 225 626 157 585 157 501 c 0
 157 441 193 410 291 378 c 0
EndSplineSet
Substitution2: "'onum' Oldstyle Figures lookup 26 subtable" dollar.osf
Substitution2: "'tnum' Tabular Numbers lookup 25 subtable" dollar.tf
AlternateSubs2: "'aalt' Access All Alternates lookup 1 subtable" dollar.tf dollar.osf
EndChar
StartChar: percent
Encoding: 37 37 2271
Width: 790
GlyphClass: 2
Flags: MW
HStem: -11 42<524 600.5 524 616> 272 42<545 622> 351 42<189 265.5 189 281> 634 42<210 287>
VStem: 87 53<458.5 509.5 458.5 525> 336 52<519.5 569> 422 53<97 147.5 97 163> 671 52<157.5 207>
LayerCount: 2
Back
Fore
SplineSet
669 703 m 1
 709 676 l 1
 150 -24 l 1
 110 4 l 1
 669 703 l 1
257 676 m 0
 337 676 388 624 388 543 c 0
 388 465 344 351 218 351 c 0
 139 351 87 404 87 486 c 0
 87 564 133 676 257 676 c 0
258 634 m 0
 162 634 140 535 140 484 c 0
 140 433 160 393 218 393 c 0
 313 393 336 495 336 544 c 0
 336 594 316 634 258 634 c 0
592 314 m 0
 672 314 723 262 723 181 c 0
 723 103 679 -11 553 -11 c 0
 474 -11 422 42 422 124 c 0
 422 202 468 314 592 314 c 0
593 272 m 0
 497 272 475 173 475 122 c 0
 475 72 495 31 553 31 c 0
 648 31 671 133 671 182 c 0
 671 232 651 272 593 272 c 0
EndSplineSet
Substitution2: "'onum' Oldstyle Figures lookup 26 subtable" percent.osf
Substitution2: "'tnum' Tabular Numbers lookup 25 subtable" percent.tf
AlternateSubs2: "'aalt' Access All Alternates lookup 1 subtable" percent.tf percent.osf
EndChar
StartChar: ampersand
Encoding: 38 38 2379
Width: 741
GlyphClass: 2
Flags: MW
HStem: -11 48<229.5 311.5 229.5 315.5> 651 45<305.5 378>
VStem: 82 59<125.5 189 125.5 198.5> 170 57<511 560.5 511 580.5> 452 57<530 590>
LayerCount: 2
Back
Fore
SplineSet
349 696 m 0
 443 696 509 638 509 563 c 0
 509 477 451 428 326 364 c 1
 504 172 l 1
 540 230 568 287 592 345 c 1
 644 326 l 1
 613 258 578 194 537 136 c 1
 641 22 l 1
 595 -10 l 1
 500 95 l 1
 439 31 367 -11 264 -11 c 0
 154 -11 82 63 82 157 c 0xe8
 82 240 117 304 247 373 c 1
 199 428 170 476 170 531 c 0xf8
 170 630 240 696 349 696 c 0
349 651 m 0xf8
 262 651 227 590 227 531 c 0
 227 491 244 451 294 397 c 1
 410 456 452 497 452 563 c 0
 452 617 407 651 349 651 c 0xf8
278 339 m 1xe8
 165 279 141 219 141 159 c 0
 141 92 190 37 269 37 c 0
 354 37 413 74 467 131 c 1
 278 339 l 1xe8
EndSplineSet
Substitution2: "'ss03' Style Set 3 lookup 36 subtable" ampersand.ss03
Substitution2: "'aalt' Access All Alternates lookup 0 subtable" ampersand.ss03
EndChar
StartChar: quotesingle
Encoding: 39 39 2133
Width: 201
Flags: MW
HStem: 665 20G<130 191 191 191>
VStem: 103 88
LayerCount: 2
Back
Fore
SplineSet
103 434 m 1
 130 685 l 1
 191 685 l 1
 147 434 l 1
 103 434 l 1
EndSplineSet
EndChar

StartChar: parenleft
Encoding: 40 40 1009
Width: 321
Flags: MW
HStem: -136 975<176 311>
VStem: 57.28 57.96
LayerCount: 2
Fore
SplineSet
346 811 m 1
 239 679 155 566 124 347 c 0
 94 131 145 17 215 -115 c 1
 176 -136 l 1
 99 1 33 119 66 353 c 0
 98 585 196 702 311 839 c 1
 346 811 l 1
EndSplineSet
Substitution2: "'case' Case-Sensitive Forms lookup 25 subtable" parenleft.case
Substitution2: "'dnom' Denominators lookup 14 subtable" parenleft.dnom
Substitution2: "'numr' Numerators lookup 13 subtable" parenleft.numr
Substitution2: "'sups' Superscript lookup 12 subtable" parenleftsuperior
Substitution2: "'subs' Subscript lookup 11 subtable" uni208D
AlternateSubs2: "'aalt' Access All Alternates lookup 1 subtable" uni208D parenleftsuperior parenleft.numr parenleft.dnom parenleft.case
EndChar
StartChar: parenright
Encoding: 41 41 2151
Width: 321
Flags: MW
HStem: -139 975<35 170>
VStem: 231.1 57.58
LayerCount: 2
Back
Fore
SplineSet
170 836 m 1
 247 699 313 581 280 347 c 0
 248 115 150 -2 35 -139 c 1
 0 -111 l 1
 107 21 192 135 222 353 c 0
 253 570 201 683 131 815 c 1
 170 836 l 1
EndSplineSet
Substitution2: "'case' Case-Sensitive Forms lookup 29 subtable" parenright.case
Substitution2: "'dnom' Denominators lookup 17 subtable" parenright.dnom
Substitution2: "'numr' Numerators lookup 16 subtable" parenright.numr
Substitution2: "'sups' Superscript lookup 15 subtable" uni207E
Substitution2: "'subs' Subscript lookup 14 subtable" uni208E
AlternateSubs2: "'aalt' Access All Alternates lookup 1 subtable" uni208E uni207E parenright.numr parenright.dnom parenright.case
EndChar
StartChar: asterisk
Encoding: 42 42 2118
Width: 433
Flags: MW
HStem: 716 20G<255 313 313 313>
VStem: 78 367<582 582>
LayerCount: 2
Back
Fore
SplineSet
445 582 m 1
 287 542 l 1
 369 420 l 1
 320 386 l 1
 253 518 l 1
 150 386 l 1
 108 419 l 1
 224 541 l 1
 78 582 l 1
 100 632 l 1
 241 576 l 1
 255 736 l 1
 313 736 l 1
 282 578 l 1
 434 635 l 1
 445 582 l 1
EndSplineSet
EndChar

StartChar: plus
Encoding: 43 43 1115
Width: 490
Flags: MW
HStem: 306 50<82 224 75 231 286 428 82 279>
VStem: 75 360<306 356>
LayerCount: 2
Fore
SplineSet
286 356 m 1
 435 356 l 1
 428 306 l 1
 279 306 l 1
 257 154 l 1
 202 154 l 1
 224 306 l 1
 75 306 l 1
 82 356 l 1
 231 356 l 1
 253 508 l 1
 308 508 l 1
 286 356 l 1
EndSplineSet
Substitution2: "'onum' Oldstyle Figures lookup 22 subtable" plus.osf
Substitution2: "'tnum' Tabular Numbers lookup 21 subtable" plus.tf
Substitution2: "'dnom' Denominators lookup 14 subtable" plus.dnom
Substitution2: "'numr' Numerators lookup 13 subtable" plus.numr
Substitution2: "'sups' Superscript lookup 12 subtable" plussuperior
Substitution2: "'subs' Subscript lookup 11 subtable" uni208A
AlternateSubs2: "'aalt' Access All Alternates lookup 1 subtable" uni208A plussuperior plus.numr plus.dnom plus.tf plus.osf
EndChar
StartChar: comma
Encoding: 44 44 2123
Width: 208
Flags: MW
HStem: -3 21G<42 42>
VStem: 24 95<31.5 47>
LayerCount: 2
Back
Fore
SplineSet
75 84 m 0
 102 84 119 65 119 40 c 0
 119 23 112 7 98 -19 c 2
 23 -151 l 1
 -20 -151 l 1
 42 -3 l 1
 30 4 24 17 24 33 c 0
 24 61 47 84 75 84 c 0
EndSplineSet
EndChar

StartChar: hyphen
Encoding: 45 45 1027
Width: 398
Flags: MW
HStem: 288 50<78 334 71 341>
VStem: 71 270<288 338>
LayerCount: 2
Fore
SplineSet
78 338 m 1
 341 338 l 1
 334 288 l 1
 71 288 l 1
 78 338 l 1
EndSplineSet
Substitution2: "'case' Case-Sensitive Forms lookup 25 subtable" hyphen.case
Substitution2: "'aalt' Access All Alternates lookup 0 subtable" hyphen.case
EndChar
StartChar: period
Encoding: 46 46 2129
Width: 207
Flags: MW
HStem: -11 95<60.5 81.5>
VStem: 24 94<26 47>
LayerCount: 2
Back
Fore
SplineSet
75 84 m 0
 102 84 118 65 118 40 c 0
 118 12 96 -11 67 -11 c 0
 41 -11 24 8 24 32 c 0
 24 62 46 84 75 84 c 0
EndSplineSet
EndChar
StartChar: slash
Encoding: 47 47 2135
Width: 517
Flags: MW
HStem: -100 904<117 424>
VStem: 68 405
LayerCount: 2
Back
Fore
SplineSet
424 804 m 1
 473 791 l 1
 117 -100 l 1
 68 -86 l 1
 424 804 l 1
EndSplineSet
Substitution2: "'frac' Diagonal Fractions lookup 18 subtable" fraction
Substitution2: "'aalt' Access All Alternates lookup 0 subtable" fraction
EndChar

StartChar: zero
Encoding: 48 48 879
Width: 547
Flags: MW
HStem: -11 48<203 288 203 340> 628 48<279.5 365>
VStem: 67 59<153 230.5 153 311> 441 59<435 512.5>
LayerCount: 2
Fore
SplineSet
328 676 m 0
 440 676 500 596 500 442 c 0
 500 265 441 -11 239 -11 c 0
 127 -11 67 70 67 224 c 0
 67 398 125 676 328 676 c 0
328 628 m 0
 231 628 164 536 135 330 c 0
 129 285 126 247 126 214 c 0
 126 92 166 37 240 37 c 0
 336 37 403 129 432 335 c 0
 438 380 441 418 441 452 c 0
 441 573 402 628 328 628 c 0
EndSplineSet
Substitution2: "'zero' Slashed Zero lookup 28 subtable" zero.zero
Substitution2: "'onum' Oldstyle Figures lookup 22 subtable" zero.osf
Substitution2: "'tnum' Tabular Numbers lookup 21 subtable" zero.tf
Substitution2: "'frac' Diagonal Fractions lookup 16 subtable" zero.numr
Substitution2: "'dnom' Denominators lookup 14 subtable" zero.dnom
Substitution2: "'numr' Numerators lookup 13 subtable" zero.numr
Substitution2: "'sups' Superscript lookup 12 subtable" zerosuperior
Substitution2: "'subs' Subscript lookup 11 subtable" zeroinferior
AlternateSubs2: "'aalt' Access All Alternates lookup 1 subtable" zeroinferior zerosuperior zero.numr zero.dnom zero.tf zero.osf zero.zero
EndChar

StartChar: one
Encoding: 49 49 880
Width: 410
Flags: MW
HStem: 0 21G<195 253 195 195>
VStem: 81 265<542 665>
LayerCount: 2
Fore
SplineSet
253 0 m 1
 195 0 l 1
 279 597 l 1
 102 494 l 1
 81 542 l 1
 297 665 l 1
 346 665 l 1
 253 0 l 1
EndSplineSet
Substitution2: "'onum' Oldstyle Figures lookup 22 subtable" one.osf
Substitution2: "'tnum' Tabular Numbers lookup 21 subtable" one.tf
Substitution2: "'frac' Diagonal Fractions lookup 16 subtable" one.numr
Substitution2: "'dnom' Denominators lookup 14 subtable" one.dnom
Substitution2: "'numr' Numerators lookup 13 subtable" one.numr
Substitution2: "'sups' Superscript lookup 12 subtable" onesuperior
Substitution2: "'subs' Subscript lookup 11 subtable" oneinferior
AlternateSubs2: "'aalt' Access All Alternates lookup 1 subtable" oneinferior onesuperior one.numr one.dnom one.tf one.osf
EndChar
StartChar: two
Encoding: 50 50 2019
Width: 476
Flags: MW
HStem: 0 50.5 627 49<240 306.5>
VStem: 384 60<469 552.5>
LayerCount: 2
Back
Fore
SplineSet
276 676 m 0
 382 676 444 613 444 519 c 0
 444 410 385 327 82 50 c 1
 394 51 l 1
 378 0 l 1
 5 0 l 1
 12 50 l 1
 338 355 384 421 384 517 c 0
 384 588 341 627 272 627 c 0
 208 627 161 598 115 549 c 1
 76 584 l 1
 138 648 200 676 276 676 c 0
EndSplineSet
Substitution2: "'onum' Oldstyle Figures lookup 26 subtable" two.osf
Substitution2: "'tnum' Tabular Numbers lookup 25 subtable" two.tf
Substitution2: "'frac' Diagonal Fractions lookup 19 subtable" two.numr
Substitution2: "'dnom' Denominators lookup 17 subtable" two.dnom
Substitution2: "'numr' Numerators lookup 16 subtable" two.numr
Substitution2: "'sups' Superscript lookup 15 subtable" uni00B2
Substitution2: "'subs' Subscript lookup 14 subtable" uni2082
AlternateSubs2: "'aalt' Access All Alternates lookup 1 subtable" uni2082 uni00B2 two.numr two.dnom two.tf two.osf
EndChar
StartChar: three
Encoding: 51 51 2020
Width: 484
Flags: MW
HStem: -11 49<145.5 238 145.5 260.5> 327 47<191 223 191 223 177 223> 629 47<242 305>
VStem: 353 59<175.5 256.5 165.5 257> 380 59<495 560>
LayerCount: 2
Back
Fore
SplineSet
274 676 m 0xe8
 380 676 439 613 439 529 c 0xe8
 439 458 394 372 283 353 c 1
 356 350 412 302 412 211 c 0
 412 120 347 -11 174 -11 c 0
 95 -11 36 19 -6 77 c 1
 34 109 l 1
 72 56 117 38 174 38 c 0
 302 38 353 134 353 217 c 0xf0
 353 297 302 327 223 327 c 2
 177 327 l 1
 191 374 l 1
 223 374 l 2
 330 374 380 461 380 529 c 0
 380 591 339 629 271 629 c 0
 213 629 168 608 114 563 c 1
 84 601 l 1
 144 651 203 676 274 676 c 0xe8
EndSplineSet
Substitution2: "'onum' Oldstyle Figures lookup 26 subtable" three.osf
Substitution2: "'tnum' Tabular Numbers lookup 25 subtable" three.tf
Substitution2: "'frac' Diagonal Fractions lookup 19 subtable" three.numr
Substitution2: "'dnom' Denominators lookup 17 subtable" three.dnom
Substitution2: "'numr' Numerators lookup 16 subtable" three.numr
Substitution2: "'sups' Superscript lookup 15 subtable" uni00B3
Substitution2: "'subs' Subscript lookup 14 subtable" uni2083
AlternateSubs2: "'aalt' Access All Alternates lookup 1 subtable" uni2083 uni00B3 three.numr three.dnom three.tf three.osf
EndChar

StartChar: four
Encoding: 52 52 883
Width: 516
Flags: MW
HStem: 0 21G<298 354 298 298> 175 48<103 323 385 468>
VStem: 33 442<175 223>
LayerCount: 2
Fore
SplineSet
468 175 m 1
 379 175 l 1
 354 0 l 1
 298 0 l 1
 323 175 l 1
 33 175 l 1
 39 218 l 1
 302 676 l 1
 351 656 l 1
 103 223 l 1
 330 223 l 1
 363 418 l 1
 413 418 l 1
 385 223 l 1
 475 223 l 1
 468 175 l 1
EndSplineSet
Substitution2: "'onum' Oldstyle Figures lookup 22 subtable" four.osf
Substitution2: "'tnum' Tabular Numbers lookup 21 subtable" four.tf
Substitution2: "'frac' Diagonal Fractions lookup 16 subtable" four.numr
Substitution2: "'dnom' Denominators lookup 14 subtable" four.dnom
Substitution2: "'numr' Numerators lookup 13 subtable" four.numr
Substitution2: "'sups' Superscript lookup 12 subtable" foursuperior
Substitution2: "'subs' Subscript lookup 11 subtable" fourinferior
AlternateSubs2: "'aalt' Access All Alternates lookup 1 subtable" fourinferior foursuperior four.numr four.dnom four.tf four.osf
EndChar

StartChar: five
Encoding: 53 53 884
Width: 484
Flags: MW
HStem: -11 49<155.5 255.5 155.5 275> 374 47<245 288> 617 48<185 454 185 185>
VStem: 371 59<205.5 289>
LayerCount: 2
Fore
SplineSet
454 617 m 1
 185 617 l 1
 151 390 l 1
 185 409 223 421 267 421 c 0
 369 421 430 353 430 244 c 0
 430 142 364 -11 186 -11 c 0
 103 -11 49 20 7 71 c 1
 47 104 l 1
 82 60 124 38 187 38 c 0
 324 38 371 166 371 245 c 0
 371 333 323 374 253 374 c 0
 207 374 177 363 137 342 c 1
 90 342 l 1
 135 665 l 1
 469 665 l 1
 454 617 l 1
EndSplineSet
Substitution2: "'onum' Oldstyle Figures lookup 22 subtable" five.osf
Substitution2: "'tnum' Tabular Numbers lookup 21 subtable" five.tf
Substitution2: "'frac' Diagonal Fractions lookup 16 subtable" five.numr
Substitution2: "'dnom' Denominators lookup 14 subtable" five.dnom
Substitution2: "'numr' Numerators lookup 13 subtable" five.numr
Substitution2: "'sups' Superscript lookup 12 subtable" fivesuperior
Substitution2: "'subs' Subscript lookup 11 subtable" fiveinferior
AlternateSubs2: "'aalt' Access All Alternates lookup 1 subtable" fiveinferior fivesuperior five.numr five.dnom five.tf five.osf
EndChar
StartChar: six
Encoding: 54 54 2023
Width: 519
Flags: MW
HStem: -11 48<197 304 197 320> 386 47<277.5 334.5> 628 48<300 374>
VStem: 62 57<149 212 149 226.5> 409 58<226 308>
LayerCount: 2
Back
Fore
SplineSet
313 433 m 0
 399 433 467 378 467 265 c 0
 467 156 401 -11 239 -11 c 0
 111 -11 62 81 62 212 c 0
 62 241 65 271 69 304 c 0
 102 534 211 676 358 676 c 0
 409 676 445 661 477 636 c 1
 449 597 l 1
 422 617 392 628 356 628 c 0
 244 628 161 506 131 337 c 1
 181 400 242 433 313 433 c 0
240 37 m 0
 368 37 409 186 409 266 c 0
 409 350 365 386 304 386 c 0
 234 386 172 340 123 272 c 1
 121 246 119 223 119 201 c 0
 119 97 154 37 240 37 c 0
EndSplineSet
Substitution2: "'onum' Oldstyle Figures lookup 26 subtable" six.osf
Substitution2: "'tnum' Tabular Numbers lookup 25 subtable" six.tf
Substitution2: "'frac' Diagonal Fractions lookup 19 subtable" six.numr
Substitution2: "'dnom' Denominators lookup 17 subtable" six.dnom
Substitution2: "'numr' Numerators lookup 16 subtable" six.numr
Substitution2: "'sups' Superscript lookup 15 subtable" uni2076
Substitution2: "'subs' Subscript lookup 14 subtable" uni2086
AlternateSubs2: "'aalt' Access All Alternates lookup 1 subtable" uni2086 uni2076 six.numr six.dnom six.tf six.osf
EndChar
StartChar: seven
Encoding: 55 55 2024
Width: 434
Flags: MW
HStem: -8 21G<102 102> 616 49<86 387 80 456>
VStem: 49 407
LayerCount: 2
Back
Fore
SplineSet
456 665 m 1
 450 620 l 1
 102 -8 l 1
 49 10 l 1
 387 616 l 1
 80 616 l 1
 86 665 l 1
 456 665 l 1
EndSplineSet
Substitution2: "'onum' Oldstyle Figures lookup 26 subtable" seven.osf
Substitution2: "'tnum' Tabular Numbers lookup 25 subtable" seven.tf
Substitution2: "'frac' Diagonal Fractions lookup 19 subtable" seven.numr
Substitution2: "'dnom' Denominators lookup 17 subtable" seven.dnom
Substitution2: "'numr' Numerators lookup 16 subtable" seven.numr
Substitution2: "'sups' Superscript lookup 15 subtable" uni2077
Substitution2: "'subs' Subscript lookup 14 subtable" uni2087
AlternateSubs2: "'aalt' Access All Alternates lookup 1 subtable" uni2087 uni2077 seven.numr seven.dnom seven.tf seven.osf
EndChar
StartChar: eight
Encoding: 56 56 2025
Width: 535
Flags: MW
HStem: -11 49<191.5 284 191.5 309> 630 46<276 356.5>
VStem: 39 59<117.5 186.5 117.5 193> 115 57<467.5 533 467.5 554.5> 412 59<148.5 230.5> 434 57<498.5 563>
LayerCount: 2
Back
Fore
SplineSet
348 351 m 1xd8
 430 316 471 269 471 197 c 0
 471 89 387 -11 231 -11 c 0
 111 -11 39 58 39 155 c 0xf8
 39 231 78 310 209 358 c 1
 146 389 115 434 115 496 c 0
 115 613 220 676 322 676 c 0
 410 676 491 627 491 531 c 0xd4
 491 447 447 397 348 351 c 1xd8
172 496 m 0
 172 439 203 408 277 380 c 2
 306 369 l 1
 403 417 434 466 434 531 c 0xd4
 434 595 390 630 323 630 c 0
 229 630 172 570 172 496 c 0
233 38 m 0
 335 38 412 97 412 200 c 0
 412 261 373 292 285 327 c 2
 254 339 l 1
 124 290 98 219 98 154 c 0xf8
 98 81 150 38 233 38 c 0
EndSplineSet
Substitution2: "'onum' Oldstyle Figures lookup 26 subtable" eight.osf
Substitution2: "'tnum' Tabular Numbers lookup 25 subtable" eight.tf
Substitution2: "'frac' Diagonal Fractions lookup 19 subtable" eight.numr
Substitution2: "'dnom' Denominators lookup 17 subtable" eight.dnom
Substitution2: "'numr' Numerators lookup 16 subtable" eight.numr
Substitution2: "'sups' Superscript lookup 15 subtable" uni2078
Substitution2: "'subs' Subscript lookup 14 subtable" uni2088
AlternateSubs2: "'aalt' Access All Alternates lookup 1 subtable" uni2088 uni2078 eight.numr eight.dnom eight.tf eight.osf
EndChar
StartChar: nine
Encoding: 57 57 2026
Width: 515
Flags: MW
HStem: 248 48<211 269> 628 48<241 347>
VStem: 78 57<383 464 383 481.5> 423 58<465.5 527>
LayerCount: 2
Back
Fore
SplineSet
307 676 m 0
 424 676 481 597 481 473 c 0
 481 276 416 66 84 -20 c 1
 74 26 l 1
 252 79 372 164 407 338 c 1
 363 283 303 248 235 248 c 0
 143 248 78 318 78 426 c 0
 78 537 143 676 307 676 c 0
245 296 m 0
 312 296 367 335 417 399 c 1
 421 430 423 453 423 478 c 0
 423 576 386 628 308 628 c 0
 174 628 135 505 135 423 c 0
 135 343 177 296 245 296 c 0
EndSplineSet
Substitution2: "'onum' Oldstyle Figures lookup 26 subtable" nine.osf
Substitution2: "'tnum' Tabular Numbers lookup 25 subtable" nine.tf
Substitution2: "'frac' Diagonal Fractions lookup 19 subtable" nine.numr
Substitution2: "'dnom' Denominators lookup 17 subtable" nine.dnom
Substitution2: "'numr' Numerators lookup 16 subtable" nine.numr
Substitution2: "'sups' Superscript lookup 15 subtable" uni2079
Substitution2: "'subs' Subscript lookup 14 subtable" uni2089
AlternateSubs2: "'aalt' Access All Alternates lookup 1 subtable" uni2089 uni2079 nine.numr nine.dnom nine.tf nine.osf
EndChar
StartChar: colon
Encoding: 58 58 2122
Width: 207
Flags: MW
HStem: -11 21G<54 81.5> -11 95<60.5 81.5> 380 95<115.5 137>
VStem: 24 94<26 47> 79 95<416.5 437.5>
LayerCount: 2
Back
Fore
SplineSet
130 475 m 0xa8
 157 475 174 455 174 431 c 0
 174 402 152 380 122 380 c 0
 96 380 79 399 79 423 c 0
 79 452 101 475 130 475 c 0xa8
75 84 m 0x70
 102 84 118 65 118 40 c 0
 118 12 96 -11 67 -11 c 0
 41 -11 24 8 24 32 c 0
 24 62 46 84 75 84 c 0x70
EndSplineSet
EndChar

StartChar: less
Encoding: 60 60 1103
Width: 494
Flags: MW
HStem: 509 20G<446 446>
VStem: 69 394<306 479>
LayerCount: 2
Fore
SplineSet
463 479 m 1
 124 332 l 1
 420 183 l 1
 392 135 l 1
 69 306 l 1
 77 360 l 1
 446 529 l 1
 463 479 l 1
EndSplineSet
Substitution2: "'onum' Oldstyle Figures lookup 22 subtable" less.osf
Substitution2: "'tnum' Tabular Numbers lookup 21 subtable" less.tf
AlternateSubs2: "'aalt' Access All Alternates lookup 1 subtable" less.tf less.osf
EndChar

StartChar: equal
Encoding: 61 61 1095
Width: 491
Flags: MW
HStem: 218 51<70 416 63 423> 393 51<94 441 87 448>
VStem: 63 385<218 444>
LayerCount: 2
Fore
SplineSet
94 444 m 1
 448 444 l 1
 441 393 l 1
 87 393 l 1
 94 444 l 1
70 269 m 1
 423 269 l 1
 416 218 l 1
 63 218 l 1
 70 269 l 1
EndSplineSet
Substitution2: "'onum' Oldstyle Figures lookup 22 subtable" equal.osf
Substitution2: "'tnum' Tabular Numbers lookup 21 subtable" equal.tf
Substitution2: "'dnom' Denominators lookup 14 subtable" equal.dnom
Substitution2: "'numr' Numerators lookup 13 subtable" equal.numr
Substitution2: "'sups' Superscript lookup 12 subtable" equalsuperior
AlternateSubs2: "'aalt' Access All Alternates lookup 1 subtable" equalsuperior equal.numr equal.dnom equal.tf equal.osf
EndChar
StartChar: greater
Encoding: 62 62 2256
Width: 494
GlyphClass: 2
Flags: MW
HStem: 509 20G<122 122>
VStem: 51 394<184 360>
LayerCount: 2
Back
Fore
SplineSet
122 529 m 1
 445 360 l 1
 437 306 l 1
 67 135 l 1
 51 184 l 1
 390 335 l 1
 94 480 l 1
 122 529 l 1
EndSplineSet
Substitution2: "'onum' Oldstyle Figures lookup 26 subtable" greater.osf
Substitution2: "'tnum' Tabular Numbers lookup 25 subtable" greater.tf
AlternateSubs2: "'aalt' Access All Alternates lookup 1 subtable" greater.tf greater.osf
EndChar

StartChar: question
Encoding: 63 63 991
Width: 445
Flags: MW
HStem: -11 21G<165 193> -11 95<172 193> 647 49<256.5 318>
VStem: 135 95<25.5 46.5> 154 57<263 335.5 259.5 352.5> 385 60<492.5 591>
LayerCount: 2
Fore
SplineSet
291 696 m 0xac
 393 696 445 639 445 568 c 0
 445 386 211 404 211 267 c 0
 211 252 213 239 216 226 c 1
 164 216 l 1
 158 233 154 255 154 271 c 0
 154 434 385 419 385 566 c 0
 385 616 349 647 287 647 c 0
 226 647 177 622 125 571 c 1
 89 605 l 1
 151 668 214 696 291 696 c 0xac
186 84 m 0x74
 213 84 230 64 230 40 c 0
 230 11 208 -11 178 -11 c 0
 152 -11 135 8 135 32 c 0
 135 61 158 84 186 84 c 0x74
EndSplineSet
EndChar
StartChar: at
Encoding: 64 64 2378
Width: 1017
GlyphClass: 2
Flags: MW
HStem: -205 49<369.5 510.5 369.5 514> 12 47<686 780 686 801.5> 439 45<480.5 571> 646 50<411 673>
VStem: 77 58<79.5 275.5 79.5 286> 308 57<138.5 231 138.5 248.5> 611 43.45 884 58<295.5 444>
LayerCount: 2
Back
Fore
SplineSet
573 696 m 0
 816 696 942 547 942 355 c 0
 942 210 883 12 720 12 c 0
 649 12 615 61 611 120 c 1
 575 58 524 14 451 14 c 0
 366 14 308 76 308 185 c 0
 308 312 374 484 552 484 c 0
 605 484 651 471 693 447 c 1
 657 178 l 2
 650 121 653 59 719 59 c 0
 841 59 884 234 884 357 c 0
 884 531 774 646 572 646 c 0
 250 646 135 372 135 179 c 0
 135 -20 267 -156 472 -156 c 0
 549 -156 610 -142 666 -122 c 1
 678 -170 l 1
 616 -190 558 -205 470 -205 c 0
 240 -205 77 -52 77 179 c 0
 77 393 210 696 573 696 c 0
458 60 m 0
 530 60 581 123 602 171 c 1
 638 419 l 1
 612 432 588 439 554 439 c 0
 407 439 365 284 365 178 c 0
 365 99 400 60 458 60 c 0
EndSplineSet
EndChar

StartChar: C
Encoding: 67 67 14
Width: 548
GlyphClass: 2
Flags: MW
HStem: -11 53<258 345 258 346.5> 645 51<302 429>
VStem: 71 62<184.5 340 184.5 354>
AnchorPoint: "Anchor-11" 305 0 basechar 0
AnchorPoint: "Anchor-10" 0 0 basechar 0
AnchorPoint: "Anchor-9" 402 685 basechar 0
AnchorPoint: "Anchor-8" 0 0 basechar 0
LayerCount: 2
Fore
SplineSet
399 696 m 0
 476 696 525 672 569 632 c 1
 532 594 l 1
 492 630 455 645 403 645 c 0
 201 645 133 420 133 260 c 0
 133 109 207 42 309 42 c 0
 381 42 425 69 469 101 c 1
 497 58 l 1
 450 20 388 -11 305 -11 c 0
 166 -11 71 84 71 263 c 0
 71 445 161 696 399 696 c 0
EndSplineSet
Substitution2: "'c2sc' Capitals to Small Capitals lookup 23 subtable" c.sc
Substitution2: "'aalt' Access All Alternates lookup 0 subtable" c.sc
Position2: "'cpsp' Capital Spacing lookup 0 subtable" dx=5 dy=0 dh=10 dv=0
EndChar

StartChar: D
Encoding: 68 68 20
Width: 630
GlyphClass: 2
Flags: MW
HStem: 0 50<141 221> 635 50<222 222 222 304 304 307>
VStem: 521 60<340.5 519.5>
AnchorPoint: "Anchor-11" 0 0 basechar 0
AnchorPoint: "Anchor-10" 0 0 basechar 0
AnchorPoint: "Anchor-9" 358 685 basechar 0
AnchorPoint: "Anchor-8" 0 0 basechar 0
LayerCount: 2
Fore
SplineSet
304 685 m 2
 446 685 581 640 581 429 c 0
 581 215 487 0 221 0 c 2
 74 0 l 1
 170 685 l 1
 304 685 l 2
222 635 m 1
 141 50 l 1
 230 50 l 2
 450 50 521 251 521 430 c 0
 521 609 413 635 307 635 c 2
 222 635 l 1
EndSplineSet
Substitution2: "'c2sc' Capitals to Small Capitals lookup 23 subtable" d.sc
Substitution2: "'aalt' Access All Alternates lookup 0 subtable" d.sc
Position2: "'cpsp' Capital Spacing lookup 0 subtable" dx=5 dy=0 dh=10 dv=0
EndChar
StartChar: E
Encoding: 69 69 65
Width: 509
GlyphClass: 2
Flags: MW
HStem: 0 50<141 426> 330 50<186 422 180 428> 635 50<222 502 222 222>
VStem: 74 442
AnchorPoint: "Anchor-14" 0 0 basechar 0
AnchorPoint: "Anchor-13" 0 0 basechar 0
AnchorPoint: "Anchor-12" 347 685 basechar 0
AnchorPoint: "Anchor-11" 405 0 basechar 0
AnchorPoint: "Anchor-10" 248 0 basechar 0
LayerCount: 2
Back
Fore
SplineSet
516 685 m 1
 502 635 l 1
 222 635 l 1
 186 380 l 1
 428 380 l 1
 422 330 l 1
 180 330 l 1
 141 50 l 1
 434 50 l 1
 426 0 l 1
 74 0 l 1
 170 685 l 1
 516 685 l 1
EndSplineSet
Substitution2: "'c2sc' Capitals to Small Capitals lookup 27 subtable" e.sc
Substitution2: "'aalt' Access All Alternates lookup 0 subtable" e.sc
Position2: "'cpsp' Capital Spacing lookup 0 subtable" dx=5 dy=0 dh=10 dv=0
EndChar

StartChar: F
Encoding: 70 70 34
Width: 478
GlyphClass: 2
Flags: MW
HStem: 0 21G<74 133 74 74> 318 50<185 415 178 422> 635 50<222 496 222 222>
VStem: 74 436
LayerCount: 2
Fore
SplineSet
496 635 m 1
 222 635 l 1
 185 368 l 1
 422 368 l 1
 415 318 l 1
 178 318 l 1
 133 0 l 1
 74 0 l 1
 170 685 l 1
 510 685 l 1
 496 635 l 1
EndSplineSet
Substitution2: "'c2sc' Capitals to Small Capitals lookup 23 subtable" f.sc
Substitution2: "'aalt' Access All Alternates lookup 0 subtable" f.sc
Position2: "'cpsp' Capital Spacing lookup 0 subtable" dx=5 dy=0 dh=10 dv=0
EndChar

StartChar: J
Encoding: 74 74 54
Width: 289
GlyphClass: 2
Flags: MW
HStem: 665 20G<184 243 243 243>
VStem: -36 279
AnchorPoint: "Anchor-11" 0 0 basechar 0
AnchorPoint: "Anchor-10" 0 0 basechar 0
AnchorPoint: "Anchor-9" 212 685 basechar 0
AnchorPoint: "Anchor-8" 0 0 basechar 0
LayerCount: 2
Fore
SplineSet
160 90 m 2
 142 -32 93 -76 -23 -119 c 1
 -36 -74 l 1
 60 -34 88 4 101 97 c 2
 184 685 l 1
 243 685 l 1
 160 90 l 2
EndSplineSet
Substitution2: "'c2sc' Capitals to Small Capitals lookup 23 subtable" j.sc
Substitution2: "'aalt' Access All Alternates lookup 0 subtable" j.sc
Position2: "'cpsp' Capital Spacing lookup 0 subtable" dx=5 dy=0 dh=10 dv=0
EndChar
StartChar: K
Encoding: 75 75 137
Width: 545
GlyphClass: 2
Flags: MW
HStem: 0 21G<74 133 74 74 437 437 437 508> 665 20G<170 230 230 230 516 588 588 588>
VStem: 74 514
AnchorPoint: "Anchor-14" 0 0 basechar 0
AnchorPoint: "Anchor-13" 0 0 basechar 0
AnchorPoint: "Anchor-12" 365 685 basechar 0
AnchorPoint: "Anchor-11" 0 0 basechar 0
AnchorPoint: "Anchor-10" 268 0 basechar 0
LayerCount: 2
Back
Fore
SplineSet
230 685 m 1
 133 0 l 1
 74 0 l 1
 170 685 l 1
 230 685 l 1
588 685 m 1
 258 365 l 1
 508 0 l 1
 437 0 l 1
 189 367 l 1
 516 685 l 1
 588 685 l 1
EndSplineSet
Substitution2: "'c2sc' Capitals to Small Capitals lookup 27 subtable" k.sc
Substitution2: "'aalt' Access All Alternates lookup 0 subtable" k.sc
Position2: "'cpsp' Capital Spacing lookup 0 subtable" dx=5 dy=0 dh=10 dv=0
EndChar

StartChar: L
Encoding: 76 76 58
Width: 472
GlyphClass: 2
Flags: MW
HStem: 0 54<141 410> 665 20G<170 229 229 229>
VStem: 74 352<0 54>
AnchorPoint: "Anchor-11" 244 0 basechar 0
AnchorPoint: "Anchor-10" 0 0 basechar 0
AnchorPoint: "Anchor-9" 200 685 basechar 0
AnchorPoint: "Anchor-8" 0 0 basechar 0
LayerCount: 2
Fore
SplineSet
141 54 m 1
 426 54 l 1
 410 0 l 1
 74 0 l 1
 170 685 l 1
 229 685 l 1
 141 54 l 1
EndSplineSet
Substitution2: "'c2sc' Capitals to Small Capitals lookup 23 subtable" l.sc
Substitution2: "'aalt' Access All Alternates lookup 0 subtable" l.sc
Position2: "'cpsp' Capital Spacing lookup 0 subtable" dx=5 dy=0 dh=10 dv=0
EndChar

StartChar: Q
Encoding: 81 81 85
Width: 678
GlyphClass: 2
Flags: MW
HStem: -11 33 -11 51<256.5 369.5> 645 51<298 456.5>
VStem: 71 62<182.5 333 182.5 348.5> 578 62<355 504>
LayerCount: 2
Fore
SplineSet
640 424 m 0x78
 640 277 584 79 426 22 c 1
 496 19 559 -4 605 -45 c 1xb8
 561 -93 l 1
 496 -28 430 -11 309 -11 c 0
 164 -11 71 85 71 262 c 0
 71 435 156 696 404 696 c 0
 548 696 640 602 640 424 c 0x78
133 256 m 0
 133 109 203 40 310 40 c 0
 521 40 578 278 578 432 c 0
 578 576 512 645 401 645 c 0
 195 645 133 410 133 256 c 0
EndSplineSet
Substitution2: "'c2sc' Capitals to Small Capitals lookup 23 subtable" q.sc
Substitution2: "'aalt' Access All Alternates lookup 0 subtable" q.sc
Position2: "'cpsp' Capital Spacing lookup 0 subtable" dx=5 dy=0 dh=10 dv=0
EndChar

StartChar: R
Encoding: 82 82 86
Width: 587
GlyphClass: 2
Flags: MW
HStem: 0 21G<74 133 74 74 451 517 451 451> 307 49<183 301 301 315 176 301> 636 49<222 334 222 222>
VStem: 491 62<490.5 566.5>
AnchorPoint: "Anchor-11" 268 0 basechar 0
AnchorPoint: "Anchor-10" 0 0 basechar 0
AnchorPoint: "Anchor-9" 352 685 basechar 0
AnchorPoint: "Anchor-8" 0 0 basechar 0
LayerCount: 2
Fore
SplineSet
553 528 m 0
 553 442 509 349 373 316 c 1
 517 0 l 1
 451 0 l 1
 315 307 l 1
 176 307 l 1
 133 0 l 1
 74 0 l 1
 170 685 l 1
 334 685 l 2
 484 685 553 633 553 528 c 0
301 356 m 2
 449 356 491 451 491 530 c 0
 491 603 445 636 334 636 c 2
 222 636 l 1
 183 356 l 1
 301 356 l 2
EndSplineSet
Substitution2: "'c2sc' Capitals to Small Capitals lookup 23 subtable" r.sc
Substitution2: "'aalt' Access All Alternates lookup 0 subtable" r.sc
Position2: "'cpsp' Capital Spacing lookup 0 subtable" dx=5 dy=0 dh=10 dv=0
EndChar

StartChar: T
Encoding: 84 84 96
Width: 492
GlyphClass: 2
Flags: MW
HStem: 0 21G<179 239 179 179> 632 53<74 268 66 542 328 527 328 328>
VStem: 66 476<632 685>
AnchorPoint: "Anchor-11" 210 0 basechar 0
AnchorPoint: "Anchor-10" 0 0 basechar 0
AnchorPoint: "Anchor-9" 301 685 basechar 0
AnchorPoint: "Anchor-8" 0 0 basechar 0
LayerCount: 2
Fore
SplineSet
527 632 m 1
 328 632 l 1
 239 0 l 1
 179 0 l 1
 268 632 l 1
 66 632 l 1
 74 685 l 1
 542 685 l 1
 527 632 l 1
EndSplineSet
Substitution2: "'c2sc' Capitals to Small Capitals lookup 23 subtable" t.sc
Substitution2: "'aalt' Access All Alternates lookup 0 subtable" t.sc
Position2: "'cpsp' Capital Spacing lookup 0 subtable" dx=5 dy=0 dh=10 dv=0
EndChar

StartChar: V
Encoding: 86 86 112
Width: 544
GlyphClass: 2
Flags: MW
HStem: 0 21G<201 268 201 201> 0 62<242 242 242 268 201 242> 665 20G<75 137 137 137 524 586 586 586>
VStem: 75 511<685 685>
LayerCount: 2
Fore
SplineSet
268 0 m 1xb0
 201 0 l 1
 75 685 l 1
 137 685 l 1
 242 62 l 1x70
 524 685 l 1
 586 685 l 1
 268 0 l 1xb0
EndSplineSet
Substitution2: "'c2sc' Capitals to Small Capitals lookup 23 subtable" v.sc
Substitution2: "'aalt' Access All Alternates lookup 0 subtable" v.sc
Position2: "'cpsp' Capital Spacing lookup 0 subtable" dx=5 dy=0 dh=10 dv=0
EndChar
StartChar: Z
Encoding: 90 90 306
Width: 513
GlyphClass: 2
Flags: MW
HStem: 0 53<75 415> 633 52<132 450 124 525>
VStem: -2 527
AnchorPoint: "Anchor-14" 0 0 basechar 0
AnchorPoint: "Anchor-13" 0 0 basechar 0
AnchorPoint: "Anchor-12" 321 685 basechar 0
AnchorPoint: "Anchor-11" 0 0 basechar 0
AnchorPoint: "Anchor-10" 207 0 basechar 0
LayerCount: 2
Back
Fore
SplineSet
-2 0 m 1
 5 50 l 1
 450 633 l 1
 124 633 l 1
 132 685 l 1
 525 685 l 1
 519 636 l 1
 75 53 l 1
 430 53 l 1
 415 0 l 1
 -2 0 l 1
EndSplineSet
Substitution2: "'c2sc' Capitals to Small Capitals lookup 27 subtable" z.sc
Substitution2: "'aalt' Access All Alternates lookup 0 subtable" z.sc
Position2: "'cpsp' Capital Spacing lookup 0 subtable" dx=5 dy=0 dh=10 dv=0
EndChar
StartChar: bracketleft
Encoding: 91 91 2148
Width: 314
Flags: MW
HStem: -112 47<91 196> 759 48<207 319 207 207>
VStem: 31 295
LayerCount: 2
Back
Fore
SplineSet
326 807 m 1
 319 759 l 1
 207 759 l 1
 91 -65 l 1
 203 -65 l 1
 196 -112 l 1
 31 -112 l 1
 160 807 l 1
 326 807 l 1
EndSplineSet
Substitution2: "'case' Case-Sensitive Forms lookup 29 subtable" bracketleft.case
Substitution2: "'aalt' Access All Alternates lookup 0 subtable" bracketleft.case
EndChar

StartChar: backslash
Encoding: 92 92 981
Width: 517
Flags: MW
HStem: -100 902<243 298>
VStem: 193 156
LayerCount: 2
Fore
SplineSet
349 -88 m 1
 298 -100 l 1
 193 791 l 1
 243 802 l 1
 349 -88 l 1
EndSplineSet
EndChar

StartChar: bracketright
Encoding: 93 93 1008
Width: 315
Flags: MW
HStem: -112 47<19 131 19 179 13 131> 759 48<142 248 136 308>
VStem: 13 295
LayerCount: 2
Fore
SplineSet
179 -112 m 1
 13 -112 l 1
 19 -65 l 1
 131 -65 l 1
 248 759 l 1
 136 759 l 1
 142 807 l 1
 308 807 l 1
 179 -112 l 1
EndSplineSet
Substitution2: "'case' Case-Sensitive Forms lookup 25 subtable" bracketright.case
Substitution2: "'aalt' Access All Alternates lookup 0 subtable" bracketright.case
EndChar
StartChar: asciicircum
Encoding: 94 94 2389
Width: 528
GlyphClass: 2
Flags: MW
HStem: 527 305<93 368 93 368 320 509 320 445>
VStem: 93 416<527 527>
LayerCount: 2
Back
Fore
SplineSet
368 832 m 1
 509 527 l 1
 445 527 l 1
 337 775 l 1
 159 527 l 1
 93 527 l 1
 320 832 l 1
 368 832 l 1
EndSplineSet
EndChar

StartChar: underscore
Encoding: 95 95 997
Width: 517
Flags: MW
HStem: -122 51<-18 436 -26 443>
VStem: -26 469<-122 -71>
LayerCount: 2
Fore
SplineSet
-18 -71 m 1
 443 -71 l 1
 436 -122 l 1
 -26 -122 l 1
 -18 -71 l 1
EndSplineSet
EndChar
StartChar: grave
Encoding: 96 96 2524
Width: 272
Flags: MW
HStem: 645 137
VStem: 95 205<678 730>
LayerCount: 2
Back
Fore
SplineSet
128 782 m 1
 300 678 l 1
 278 645 l 1
 95 730 l 1
 128 782 l 1
EndSplineSet
Substitution2: "'case' Case-Sensitive Forms lookup 29 subtable" grave.case
Substitution2: "'smcp' Lowercase to Small Capitals lookup 28 subtable" grave.sc
Substitution2: "'c2sc' Capitals to Small Capitals lookup 27 subtable" grave.sc
AlternateSubs2: "'aalt' Access All Alternates lookup 1 subtable" grave.sc grave.case
EndChar
StartChar: b
Encoding: 98 98 371
Width: 572
GlyphClass: 2
Flags: MW
HStem: -11 48<222.5 325.5 222.5 345.5> 486 48<323.5 378> 723 20G<231 231>
VStem: 454 60<280 390.5>
AnchorPoint: "Anchor-14" 0 0 basechar 0
AnchorPoint: "Anchor-13" 0 0 basechar 0
AnchorPoint: "Anchor-12" 363 736 basechar 0
AnchorPoint: "Anchor-11" 0 0 basechar 0
AnchorPoint: "Anchor-10" 249 0 basechar 0
LayerCount: 2
Back
Fore
SplineSet
231 743 m 1
 191 457 l 1
 237 504 291 534 356 534 c 0
 457 534 514 464 514 336 c 0
 514 193 447 -11 244 -11 c 0
 185 -11 140 -1 72 23 c 1
 173 736 l 1
 231 743 l 1
343 486 m 0
 276 486 228 447 183 398 c 1
 136 58 l 1
 169 45 199 37 246 37 c 0
 405 37 454 220 454 340 c 0
 454 441 413 486 343 486 c 0
EndSplineSet
Substitution2: "'smcp' Lowercase to Small Capitals lookup 28 subtable" b.sc
Substitution2: "'aalt' Access All Alternates lookup 0 subtable" b.sc
EndChar

StartChar: c
Encoding: 99 99 147
Width: 467
GlyphClass: 2
Flags: MW
HStem: -11 51<211.5 276 211.5 278> 485 49<245 343.5>
VStem: 60 60<143.5 255 143.5 268>
AnchorPoint: "Anchor-11" 245 0 basechar 0
AnchorPoint: "Anchor-10" 0 0 basechar 0
AnchorPoint: "Anchor-9" 324 523 basechar 0
AnchorPoint: "Anchor-8" 0 0 basechar 0
LayerCount: 2
Fore
SplineSet
320 534 m 0
 376 534 422 518 461 480 c 1
 428 444 l 1
 399 472 366 485 321 485 c 0
 169 485 120 313 120 197 c 0
 120 90 172 40 251 40 c 0
 301 40 340 57 380 84 c 1
 405 43 l 1
 359 8 306 -11 250 -11 c 0
 131 -11 60 65 60 200 c 0
 60 336 129 534 320 534 c 0
EndSplineSet
Substitution2: "'smcp' Lowercase to Small Capitals lookup 24 subtable" c.sc
Substitution2: "'aalt' Access All Alternates lookup 0 subtable" c.sc
EndChar

StartChar: d
Encoding: 100 100 153
Width: 583
GlyphClass: 2
Flags: MW
HStem: -11 48<200 265.5> 0 21G<391 441 391 391> 486 48<244.5 344.5 218 348.5> 723 20G<488 488> 736 7
VStem: 64 61<141 250.5 141 263>
LayerCount: 2
Fore
SplineSet
545 736 m 1xac
 441 0 l 1
 391 0 l 1x74
 398 106 l 1
 361 42 306 -11 225 -11 c 0
 124 -11 64 67 64 195 c 0
 64 331 127 534 309 534 c 0
 380 534 423 499 448 462 c 1
 488 743 l 1
 545 736 l 1xac
317 486 m 0
 172 486 125 309 125 192 c 0
 125 90 166 37 234 37 c 0xb4
 311 37 359 96 409 181 c 1
 441 409 l 1
 416 453 380 486 317 486 c 0
EndSplineSet
Substitution2: "'smcp' Lowercase to Small Capitals lookup 24 subtable" d.sc
Substitution2: "'aalt' Access All Alternates lookup 0 subtable" d.sc
EndChar

StartChar: f
Encoding: 102 102 167
Width: 319
GlyphClass: 2
Flags: MW
HStem: -204 21G<-34 -34> 476 47<57 141 50 148 204 329> 695 48<291.5 338>
VStem: -51 490
LayerCount: 2
Fore
SplineSet
322 695 m 0
 261 695 225 667 216 606 c 2
 204 523 l 1
 342 523 l 1
 329 476 l 1
 198 476 l 1
 134 17 l 2
 115 -123 66 -159 -34 -204 c 1
 -51 -159 l 1
 22 -125 61 -97 77 19 c 2
 141 476 l 1
 50 476 l 1
 57 523 l 1
 148 523 l 1
 160 610 l 2
 171 693 231 743 321 743 c 0
 366 743 401 731 439 708 c 1
 416 668 l 1
 382 688 354 695 322 695 c 0
EndSplineSet
Substitution2: "'smcp' Lowercase to Small Capitals lookup 24 subtable" f.sc
Substitution2: "'aalt' Access All Alternates lookup 0 subtable" f.sc
EndChar
StartChar: h
Encoding: 104 104 468
Width: 582
GlyphClass: 2
Flags: MW
HStem: 0 21G<69 126 69 69 386 444 386 386> 485 49<336.5 393.5> 723 20G<231 231>
VStem: 440.64 58.23
AnchorPoint: "Anchor-14" 293 262 basechar 0
AnchorPoint: "Anchor-13" 0 0 basechar 0
AnchorPoint: "Anchor-12" 360 736 basechar 0
AnchorPoint: "Anchor-11" 0 0 basechar 0
AnchorPoint: "Anchor-10" 257 0 basechar 0
LayerCount: 2
Back
Fore
SplineSet
375 534 m 0
 467 534 511 473 496 371 c 2
 444 0 l 1
 386 0 l 1
 438 367 l 2
 450 452 422 485 365 485 c 0
 286 485 221 409 170 313 c 1
 126 0 l 1
 69 0 l 1
 173 736 l 1
 231 743 l 1
 181 395 l 1
 230 481 298 534 375 534 c 0
EndSplineSet
Substitution2: "'smcp' Lowercase to Small Capitals lookup 28 subtable" h.sc
Substitution2: "'aalt' Access All Alternates lookup 0 subtable" h.sc
EndChar

StartChar: i
Encoding: 105 105 176
Width: 269
GlyphClass: 2
Flags: MW
HStem: 0 21G<69 127 69 69> 503 20G<143 201 201 201> 669 84<188 206.5>
VStem: 155 84
AnchorPoint: "Anchor-11" 0 0 basechar 0
AnchorPoint: "Anchor-10" 0 0 basechar 0
AnchorPoint: "Anchor-9" 172 523 basechar 0
AnchorPoint: "Anchor-8" 136 0 basechar 0
LayerCount: 2
Fore
SplineSet
200 753 m 0
 228 753 243 733 239 708 c 0
 236 686 219 669 194 669 c 0
 167 669 151 689 155 714 c 0
 158 737 176 753 200 753 c 0
127 0 m 1
 69 0 l 1
 143 523 l 1
 201 523 l 1
 127 0 l 1
EndSplineSet
Substitution2: "'smcp' Lowercase to Small Capitals lookup 24 subtable" i.sc
Substitution2: "'locl' Localized Forms in Latin lookup 10 subtable" i.loclTRK
Substitution2: "'locl' Localized Forms in Latin lookup 8 subtable" i.loclTRK
Substitution2: "'locl' Localized Forms in Latin lookup 6 subtable" i.loclTRK
Substitution2: "'locl' Localized Forms in Latin lookup 3 subtable" i.loclTRK
Substitution2: "'locl' Localized Forms in Latin lookup 2 subtable" i.loclTRK
AlternateSubs2: "'aalt' Access All Alternates lookup 1 subtable" i.loclTRK i.sc
EndChar

StartChar: j
Encoding: 106 106 188
Width: 267
GlyphClass: 2
Flags: MW
HStem: -204 21G<-41 -41> 503 20G<141 199 199 199> 669 84<186 204.5>
VStem: 153 84
AnchorPoint: "Anchor-11" 0 0 basechar 0
AnchorPoint: "Anchor-10" 0 0 basechar 0
AnchorPoint: "Anchor-9" 170 523 basechar 0
AnchorPoint: "Anchor-8" 0 0 basechar 0
LayerCount: 2
Fore
SplineSet
198 753 m 0
 226 753 241 733 237 708 c 0
 234 686 217 669 192 669 c 0
 165 669 149 689 153 714 c 0
 156 737 174 753 198 753 c 0
127 17 m 2
 108 -123 59 -159 -41 -204 c 1
 -58 -160 l 1
 15 -126 54 -97 70 19 c 2
 141 523 l 1
 199 523 l 1
 127 17 l 2
EndSplineSet
Substitution2: "'smcp' Lowercase to Small Capitals lookup 24 subtable" j.sc
Substitution2: "'aalt' Access All Alternates lookup 0 subtable" j.sc
EndChar
StartChar: l
Encoding: 108 108 511
Width: 282
GlyphClass: 2
Flags: MW
HStem: -11 50<152.5 167> 723 20G<226 226>
VStem: 75.84 58.16
AnchorPoint: "Anchor-14" 293 377 basechar 0
AnchorPoint: "Anchor-13" 246 736 basechar 0
AnchorPoint: "Anchor-12" 197 736 basechar 0
AnchorPoint: "Anchor-11" 0 0 basechar 0
AnchorPoint: "Anchor-10" 151 0 basechar 0
LayerCount: 2
Back
Fore
SplineSet
226 743 m 1
 134 88 l 2
 130 55 138 39 167 39 c 0
 180 39 193 42 205 47 c 1
 218 3 l 1
 198 -6 177 -11 157 -11 c 0
 99 -11 67 23 78 97 c 2
 168 736 l 1
 226 743 l 1
EndSplineSet
Substitution2: "'smcp' Lowercase to Small Capitals lookup 28 subtable" l.sc
Substitution2: "'sups' Superscript lookup 15 subtable" uni02E1
AlternateSubs2: "'aalt' Access All Alternates lookup 1 subtable" uni02E1 l.sc
EndChar

StartChar: m
Encoding: 109 109 200
Width: 849
GlyphClass: 2
Flags: MW
HStem: 0 21G<69 126 69 69 361 418 361 361 653 711 653 653> 485 49<326.5 371 622 664> 503 20G<143 191 191 191>
VStem: 415.57 58.43 707.9 58.04
LayerCount: 2
Fore
SplineSet
656 534 m 0xd8
 735 534 778 473 763 372 c 2
 711 0 l 1
 653 0 l 1
 705 367 l 2
 718 454 688 485 640 485 c 0
 572 485 515 410 463 316 c 1
 418 0 l 1
 361 0 l 1
 413 367 l 2
 425 454 395 485 347 485 c 0xd8
 279 485 221 409 170 313 c 1
 126 0 l 1
 69 0 l 1
 143 523 l 1
 191 523 l 1xb8
 178 394 l 1
 229 481 290 534 363 534 c 0
 429 534 474 489 474 405 c 1
 526 488 588 534 656 534 c 0xd8
EndSplineSet
Substitution2: "'smcp' Lowercase to Small Capitals lookup 24 subtable" m.sc
Substitution2: "'aalt' Access All Alternates lookup 0 subtable" m.sc
EndChar
StartChar: n
Encoding: 110 110 535
Width: 581
GlyphClass: 2
Flags: MW
HStem: 0 21G<69 126 69 69 386 444 386 386> 485 49<337 392> 503 20G<143 191 191 191>
VStem: 440.55 58.24
AnchorPoint: "Anchor-14" 0 0 basechar 0
AnchorPoint: "Anchor-13" 0 0 basechar 0
AnchorPoint: "Anchor-12" 328 523 basechar 0
AnchorPoint: "Anchor-11" 0 0 basechar 0
AnchorPoint: "Anchor-10" 257 0 basechar 0
LayerCount: 2
Back
Fore
SplineSet
376 534 m 0xd0
 465 534 511 473 496 369 c 2
 444 0 l 1
 386 0 l 1
 438 367 l 2
 450 452 420 485 364 485 c 0xd0
 287 485 221 409 170 313 c 1
 126 0 l 1
 69 0 l 1
 143 523 l 1
 191 523 l 1xb0
 178 393 l 1
 230 480 298 534 376 534 c 0xd0
EndSplineSet
Substitution2: "'smcp' Lowercase to Small Capitals lookup 28 subtable" n.sc
Substitution2: "'aalt' Access All Alternates lookup 0 subtable" n.sc
EndChar

StartChar: p
Encoding: 112 112 220
Width: 578
GlyphClass: 2
Flags: MW
HStem: -207 21G<40 40> -11 48<222.5 325 222 345.5> 486 48<323.5 377.5> 503 20G<143 192 192 192>
VStem: 454 59<280 390.5>
LayerCount: 2
Fore
SplineSet
355 534 m 0xe8
 456 534 513 464 513 336 c 0
 513 193 447 -11 244 -11 c 0
 201 -11 167 -5 127 9 c 1
 99 -199 l 1
 40 -207 l 1
 143 523 l 1
 192 523 l 1xd8
 186 451 l 1
 238 507 292 534 355 534 c 0xe8
342 486 m 0
 275 486 228 448 182 398 c 1
 135 58 l 1
 168 45 198 37 246 37 c 0
 404 37 454 220 454 340 c 0
 454 441 413 486 342 486 c 0
EndSplineSet
Substitution2: "'smcp' Lowercase to Small Capitals lookup 24 subtable" p.sc
Substitution2: "'aalt' Access All Alternates lookup 0 subtable" p.sc
EndChar

StartChar: q
Encoding: 113 113 222
Width: 566
GlyphClass: 2
Flags: MW
HStem: -207 21G<343 343> -11 48<197 256> 487 47<252 351>
VStem: 58 61<141 252.5 141 262.5>
LayerCount: 2
Fore
SplineSet
327 534 m 0
 395 534 442 519 497 491 c 1
 401 -200 l 1
 343 -207 l 1
 383 79 l 1
 347 27 289 -11 223 -11 c 0
 118 -11 58 67 58 192 c 0
 58 333 130 534 327 534 c 0
329 487 m 0
 175 487 119 313 119 192 c 0
 119 90 161 37 233 37 c 0
 297 37 347 80 391 148 c 1
 436 463 l 1
 405 478 373 487 329 487 c 0
EndSplineSet
Substitution2: "'smcp' Lowercase to Small Capitals lookup 24 subtable" q.sc
Substitution2: "'aalt' Access All Alternates lookup 0 subtable" q.sc
EndChar
StartChar: r
Encoding: 114 114 603
Width: 371
GlyphClass: 2
Flags: MW
HStem: 0 21G<69 126 69 69> 478 56<308 345> 503 20G<143 192 192 192> 527 7
VStem: 69 326
AnchorPoint: "Anchor-14" 0 0 basechar 0
AnchorPoint: "Anchor-13" 0 0 basechar 0
AnchorPoint: "Anchor-12" 269 523 basechar 0
AnchorPoint: "Anchor-11" 0 0 basechar 0
AnchorPoint: "Anchor-10" 97 0 basechar 0
LayerCount: 2
Back
Fore
SplineSet
345 534 m 0xc8
 365 534 383 531 395 527 c 1x98
 379 473 l 1
 367 476 353 478 337 478 c 0xc8
 260 478 212 410 169 298 c 1
 126 0 l 1
 69 0 l 1
 143 523 l 1
 192 523 l 1xa8
 178 396 l 1
 218 484 271 534 345 534 c 0xc8
EndSplineSet
Substitution2: "'smcp' Lowercase to Small Capitals lookup 28 subtable" r.sc
Substitution2: "'aalt' Access All Alternates lookup 0 subtable" r.sc
EndChar

StartChar: t
Encoding: 116 116 234
Width: 339
GlyphClass: 2
Flags: MW
HStem: -11 50<178.5 217> 476 47<54 135 47 143 199 320>
VStem: 83.74 58.11
AnchorPoint: "Anchor-11" 189 0 basechar 0
AnchorPoint: "Anchor-10" 0 0 basechar 0
AnchorPoint: "Anchor-9" 0 0 basechar 0
AnchorPoint: "Anchor-8" 0 0 basechar 0
LayerCount: 2
Fore
SplineSet
144 129 m 2
 135 68 152 39 205 39 c 0
 234 39 261 49 289 64 c 1
 309 21 l 1
 274 1 238 -11 196 -11 c 0
 117 -11 73 37 86 128 c 2
 135 476 l 1
 47 476 l 1
 54 523 l 1
 143 523 l 1
 172 650 l 1
 218 655 l 1
 199 523 l 1
 333 523 l 1
 320 476 l 1
 193 476 l 1
 144 129 l 2
EndSplineSet
Substitution2: "'smcp' Lowercase to Small Capitals lookup 24 subtable" t.sc
Substitution2: "'aalt' Access All Alternates lookup 0 subtable" t.sc
EndChar
StartChar: u
Encoding: 117 117 657
Width: 577
GlyphClass: 2
Flags: MW
HStem: -11 48<188.5 249> 0 21G<386 434 386 386> 503 20G<138 195 195 195 450 508 508 508>
VStem: 82.52 57.83
AnchorPoint: "Anchor-14" 0 0 basechar 0
AnchorPoint: "Anchor-13" 518 523 basechar 0
AnchorPoint: "Anchor-12" 323 523 basechar 0
AnchorPoint: "Anchor-11" 444 0 basechar 0
AnchorPoint: "Anchor-10" 251 0 basechar 0
LayerCount: 2
Back
Fore
SplineSet
508 523 m 1xb0
 434 0 l 1
 386 0 l 1x70
 400 133 l 1
 355 49 291 -11 207 -11 c 0
 117 -11 71 48 85 151 c 2
 138 523 l 1
 195 523 l 1
 143 153 l 2
 131 70 159 37 218 37 c 0
 296 37 359 112 406 203 c 1
 450 523 l 1
 508 523 l 1xb0
EndSplineSet
Substitution2: "'smcp' Lowercase to Small Capitals lookup 28 subtable" u.sc
Substitution2: "'aalt' Access All Alternates lookup 0 subtable" u.sc
EndChar
StartChar: v
Encoding: 118 118 686
Width: 467
GlyphClass: 2
Flags: MW
HStem: 0 52<206 206 206 235 164 206> 503 20G<52 115 115 115 425 489 489 489>
VStem: 52 437<523 523>
AnchorPoint: "Anchor-14" 0 0 basechar 0
AnchorPoint: "Anchor-13" 0 0 basechar 0
AnchorPoint: "Anchor-12" 270 523 basechar 0
AnchorPoint: "Anchor-11" 0 0 basechar 0
AnchorPoint: "Anchor-10" 200 0 basechar 0
LayerCount: 2
Back
Fore
SplineSet
489 523 m 1
 235 0 l 1
 164 0 l 1
 52 523 l 1
 115 523 l 1
 206 52 l 1
 425 523 l 1
 489 523 l 1
EndSplineSet
Substitution2: "'smcp' Lowercase to Small Capitals lookup 28 subtable" v.sc
Substitution2: "'aalt' Access All Alternates lookup 0 subtable" v.sc
EndChar
StartChar: w
Encoding: 119 119 690
Width: 696
GlyphClass: 2
Flags: MW
HStem: 0 44<472 472 472 507 429 472> 469 54<380 380>
VStem: 63 644<523 523>
AnchorPoint: "Anchor-14" 0 0 basechar 0
AnchorPoint: "Anchor-13" 0 0 basechar 0
AnchorPoint: "Anchor-12" 386 523 basechar 0
AnchorPoint: "Anchor-11" 0 0 basechar 0
AnchorPoint: "Anchor-10" 313 0 basechar 0
LayerCount: 2
Back
Fore
SplineSet
707 523 m 1
 507 0 l 1
 429 0 l 1
 380 469 l 1
 197 0 l 1
 120 0 l 1
 63 523 l 1
 120 523 l 1
 165 45 l 1
 353 523 l 1
 421 523 l 1
 472 44 l 1
 650 523 l 1
 707 523 l 1
EndSplineSet
Substitution2: "'smcp' Lowercase to Small Capitals lookup 28 subtable" w.sc
Substitution2: "'aalt' Access All Alternates lookup 0 subtable" w.sc
EndChar
StartChar: x
Encoding: 120 120 698
Width: 456
GlyphClass: 2
Flags: MW
HStem: 0 21G<-27 40 -27 -27 344 409 344 344> 503 20G<71 135 135 135 394 461 461 461>
VStem: -27 488
AnchorPoint: "Anchor-14" 0 0 basechar 0
AnchorPoint: "Anchor-13" 0 0 basechar 0
AnchorPoint: "Anchor-12" 265 523 basechar 0
AnchorPoint: "Anchor-11" 0 0 basechar 0
AnchorPoint: "Anchor-10" 192 0 basechar 0
LayerCount: 2
Back
Fore
SplineSet
461 523 m 1
 265 276 l 1
 409 0 l 1
 344 0 l 1
 225 242 l 1
 40 0 l 1
 -27 0 l 1
 196 281 l 1
 71 523 l 1
 135 523 l 1
 235 315 l 1
 394 523 l 1
 461 523 l 1
EndSplineSet
Substitution2: "'smcp' Lowercase to Small Capitals lookup 28 subtable" x.sc
Substitution2: "'sups' Superscript lookup 15 subtable" uni02E3
AlternateSubs2: "'aalt' Access All Alternates lookup 1 subtable" uni02E3 x.sc
EndChar
StartChar: z
Encoding: 122 122 712
Width: 419
GlyphClass: 2
Flags: MW
HStem: 0 50<70 341> 473 50<88 344 81 423>
VStem: -10 433
AnchorPoint: "Anchor-14" 0 0 basechar 0
AnchorPoint: "Anchor-13" 0 0 basechar 0
AnchorPoint: "Anchor-12" 256 523 basechar 0
AnchorPoint: "Anchor-11" 0 0 basechar 0
AnchorPoint: "Anchor-10" 166 0 basechar 0
LayerCount: 2
Back
Fore
SplineSet
423 523 m 1
 417 478 l 1
 70 50 l 1
 354 50 l 1
 341 0 l 1
 -10 0 l 1
 -3 45 l 1
 344 473 l 1
 81 473 l 1
 88 523 l 1
 423 523 l 1
EndSplineSet
Substitution2: "'smcp' Lowercase to Small Capitals lookup 28 subtable" z.sc
Substitution2: "'aalt' Access All Alternates lookup 0 subtable" z.sc
EndChar
StartChar: braceleft
Encoding: 123 123 2146
Width: 323
Flags: MW
HStem: -129 44<178 206> 324 50<57 77.5> 784 44<303 335>
VStem: 118 55.13
LayerCount: 2
Back
Fore
SplineSet
338 828 m 1
 335 784 l 1
 271 784 243 758 235 703 c 2
 199 450 l 2
 190 380 163 361 111 348 c 1
 156 336 181 316 171 246 c 2
 135 -8 l 2
 127 -63 146 -85 210 -85 c 1
 206 -129 l 1
 119 -129 70 -90 82 -2 c 2
 118 253 l 2
 126 307 104 324 51 324 c 1
 57 374 l 1
 107 374 138 396 146 450 c 2
 182 705 l 2
 194 793 241 828 338 828 c 1
EndSplineSet
Substitution2: "'case' Case-Sensitive Forms lookup 29 subtable" braceleft.case
Substitution2: "'aalt' Access All Alternates lookup 0 subtable" braceleft.case
EndChar
StartChar: bar
Encoding: 124 124 2376
Width: 404
GlyphClass: 2
Flags: MW
HStem: -100 904<125 305 125 305>
VStem: 125 180
LayerCount: 2
Back
Fore
SplineSet
305 804 m 1
 179 -100 l 1
 125 -100 l 1
 251 804 l 1
 305 804 l 1
EndSplineSet
EndChar

StartChar: braceright
Encoding: 125 125 1006
Width: 323
Flags: MW
HStem: -129 44<13 44.5 13 58.5> 325 50<270.5 290> 784 44<141 169.5>
VStem: 174.81 55.19
LayerCount: 2
Fore
SplineSet
13 -85 m 1
 76 -85 105 -59 113 -4 c 2
 148 249 l 2
 158 319 185 338 237 351 c 1
 191 363 167 383 177 453 c 2
 213 707 l 2
 220 762 201 784 138 784 c 1
 141 828 l 1
 229 828 278 789 266 701 c 2
 230 446 l 2
 222 392 244 375 297 375 c 1
 290 325 l 1
 241 325 210 303 202 249 c 2
 166 -6 l 2
 153 -94 107 -129 10 -129 c 1
 13 -85 l 1
EndSplineSet
Substitution2: "'case' Case-Sensitive Forms lookup 25 subtable" braceright.case
Substitution2: "'aalt' Access All Alternates lookup 0 subtable" braceright.case
EndChar
StartChar: asciitilde
Encoding: 126 126 2247
Width: 469
GlyphClass: 2
Flags: MW
HStem: 264 49<293 334 293 340.5> 322 49<152 193>
VStem: 56 373<296 336>
LayerCount: 2
Back
Fore
SplineSet
314 264 m 0
 251 264 216 322 170 322 c 0
 134 322 112 299 90 274 c 1
 56 296 l 1
 84 334 118 371 174 371 c 0x60
 237 371 269 313 317 313 c 0
 351 313 373 333 394 359 c 1
 429 336 l 1
 400 297 367 264 314 264 c 0
EndSplineSet
Substitution2: "'onum' Oldstyle Figures lookup 26 subtable" asciitilde.osf
Substitution2: "'tnum' Tabular Numbers lookup 25 subtable" asciitilde.tf
AlternateSubs2: "'aalt' Access All Alternates lookup 1 subtable" asciitilde.tf asciitilde.osf
EndChar

StartChar: exclamdown
Encoding: 161 161 988
Width: 238
Flags: MW
HStem: -197 21G<27 88 27 27> 380 95<134 155>
VStem: 97 95<416.5 437.5>
LayerCount: 2
Fore
SplineSet
148 475 m 0
 175 475 192 455 192 431 c 0
 192 402 170 380 140 380 c 0
 114 380 97 399 97 423 c 0
 97 452 120 475 148 475 c 0
88 -197 m 1
 27 -197 l 1
 94 249 l 1
 147 249 l 1
 88 -197 l 1
EndSplineSet
Substitution2: "'case' Case-Sensitive Forms lookup 25 subtable" exclamdown.case
Substitution2: "'aalt' Access All Alternates lookup 0 subtable" exclamdown.case
EndChar
StartChar: cent
Encoding: 162 162 2204
Width: 466
GlyphClass: 2
Flags: MW
HStem: -11 51<259 259> -8 21G<208 208> 485 49<335 335 335 342> 485 195<306 342>
VStem: 59 60<143 255 143 264>
LayerCount: 2
Back
Fore
SplineSet
319 485 m 0xa8
 168 485 119 313 119 197 c 0
 119 89 170 40 251 40 c 0
 300 40 339 57 379 84 c 1
 405 43 l 1
 361 10 313 -8 259 -11 c 1xa8
 239 -150 l 1
 188 -150 l 1
 208 -8 l 1
 116 8 59 81 59 200 c 0
 59 328 120 510 286 532 c 1
 306 680 l 1
 356 680 l 1x58
 335 534 l 1
 385 531 426 514 460 480 c 1
 428 444 l 1
 398 471 365 485 319 485 c 0xa8
EndSplineSet
Substitution2: "'onum' Oldstyle Figures lookup 26 subtable" cent.osf
Substitution2: "'tnum' Tabular Numbers lookup 25 subtable" cent.tf
AlternateSubs2: "'aalt' Access All Alternates lookup 1 subtable" cent.tf cent.osf
EndChar

StartChar: sterling
Encoding: 163 163 1067
Width: 511
Flags: MW
HStem: 0 50.5 331 43<84 143 78 149 206 413> 627 49<322 387>
VStem: 14 498
LayerCount: 2
Fore
SplineSet
359 676 m 0
 429 676 476 650 512 599 c 1
 472 571 l 1
 444 609 413 627 361 627 c 0
 283 627 235 575 224 498 c 2
 206 374 l 1
 419 374 l 1
 413 331 l 1
 201 331 l 1
 178 169 l 2
 168 103 147 76 96 50 c 1
 422 51 l 1
 407 0 l 1
 14 0 l 1
 19 49 l 1
 86 77 111 102 121 172 c 2
 143 331 l 1
 78 331 l 1
 84 374 l 1
 149 374 l 1
 167 501 l 2
 181 601 248 676 359 676 c 0
EndSplineSet
Substitution2: "'onum' Oldstyle Figures lookup 22 subtable" sterling.osf
Substitution2: "'tnum' Tabular Numbers lookup 21 subtable" sterling.tf
AlternateSubs2: "'aalt' Access All Alternates lookup 1 subtable" sterling.tf sterling.osf
EndChar
StartChar: brokenbar
Encoding: 166 166 2377
Width: 404
GlyphClass: 2
Flags: MW
HStem: 146 412<159 271 159 271>
VStem: 159 112
LayerCount: 2
Back
Fore
SplineSet
271 558 m 1
 220 197 l 1
 213 146 l 1
 159 146 l 1
 209 508 l 1
 210 508 l 1
 217 558 l 1
 271 558 l 1
EndSplineSet
EndChar
StartChar: dieresis
Encoding: 168 168 2522
Width: 327
Flags: MW
HStem: 663 79<123 139.5 311 328>
VStem: 92 78 280 78
LayerCount: 2
Back
Fore
SplineSet
134 742 m 0
 158 742 173 722 170 699 c 0
 167 678 150 663 129 663 c 0
 104 663 89 682 92 706 c 0
 95 726 112 742 134 742 c 0
322 742 m 0
 347 742 362 722 358 699 c 0
 355 678 339 663 317 663 c 0
 292 663 277 682 280 706 c 0
 283 726 300 742 322 742 c 0
EndSplineSet
Substitution2: "'case' Case-Sensitive Forms lookup 29 subtable" dieresis.case
Substitution2: "'smcp' Lowercase to Small Capitals lookup 28 subtable" dieresis.sc
Substitution2: "'c2sc' Capitals to Small Capitals lookup 27 subtable" dieresis.sc
AlternateSubs2: "'aalt' Access All Alternates lookup 1 subtable" dieresis.sc dieresis.case
EndChar

StartChar: ordfeminine
Encoding: 170 170 415
Width: 497
GlyphClass: 2
Flags: MW
HStem: 0 51<47 393 40 400> 274 45<202 240.5> 481 40<289 294 294 360> 639 46<278.5 321>
VStem: 96 59<365 407.5 365 421.5> 349 50.68 372 57<580.5 600.5>
LayerCount: 2
Fore
SplineSet
300 685 m 0xfa
 389 685 429 650 429 585 c 0
 429 576 428 567 427 557 c 2xfa
 402 373 l 1
 397 344 398 324 425 313 c 1
 410 274 l 1
 374 281 354 296 349 337 c 1xfc
 313 293 267 274 214 274 c 0
 138 274 96 321 96 383 c 0
 96 460 157 521 289 521 c 2
 366 521 l 1
 370 554 l 2
 372 565 372 572 372 579 c 0
 372 622 350 639 292 639 c 0
 258 639 218 630 176 616 c 1
 164 659 l 1
 213 676 257 685 300 685 c 0xfa
294 481 m 2
 185 481 155 430 155 385 c 0
 155 345 180 319 224 319 c 0
 277 319 317 345 347 387 c 1
 360 481 l 1
 294 481 l 2
47 51 m 1
 400 51 l 1
 393 0 l 1
 40 0 l 1
 47 51 l 1
EndSplineSet
EndChar
StartChar: guillemotleft
Encoding: 171 171 2177
Width: 553
Flags: MW
HStem: 56 464<206 267 267 419>
VStem: 72 443<268 495>
LayerCount: 2
Back
Fore
SplineSet
480 520 m 1
 515 495 l 1
 349 288 l 1
 457 80 l 1
 419 56 l 1
 285 268 l 1
 290 307 l 1
 480 520 l 1
267 520 m 1
 302 495 l 1
 136 288 l 1
 243 80 l 1
 206 56 l 1
 72 268 l 1
 76 307 l 1
 267 520 l 1
EndSplineSet
Substitution2: "'case' Case-Sensitive Forms lookup 29 subtable" guillemotleft.case
Substitution2: "'aalt' Access All Alternates lookup 0 subtable" guillemotleft.case
EndChar

StartChar: logicalnot
Encoding: 172 172 1105
Width: 497
Flags: MW
HStem: 296 51<81 378 73 440>
VStem: 73 367<296 347>
LayerCount: 2
Fore
SplineSet
414 168 m 1
 360 168 l 1
 378 296 l 1
 73 296 l 1
 81 347 l 1
 440 347 l 1
 414 168 l 1
EndSplineSet
Substitution2: "'onum' Oldstyle Figures lookup 22 subtable" logicalnot.osf
Substitution2: "'tnum' Tabular Numbers lookup 21 subtable" logicalnot.tf
AlternateSubs2: "'aalt' Access All Alternates lookup 1 subtable" logicalnot.tf logicalnot.osf
EndChar

StartChar: softhyphen
Encoding: 173 173 1028
Width: 398
Flags: MW
HStem: 288 50<78 334 71 341>
VStem: 71 270<288 338>
LayerCount: 2
Fore
SplineSet
78 338 m 1
 341 338 l 1
 334 288 l 1
 71 288 l 1
 78 338 l 1
EndSplineSet
Substitution2: "'case' Case-Sensitive Forms lookup 25 subtable" softhyphen.case
Substitution2: "'aalt' Access All Alternates lookup 0 subtable" softhyphen.case
EndChar
StartChar: uni00AD
Encoding: 173 173 2169
Width: 398
Flags: MW
HStem: 288 50<71 341 78 334>
VStem: 71 270<288 338>
LayerCount: 2
Back
Fore
SplineSet
71 288 m 1
 78 338 l 1
 341 338 l 1
 334 288 l 1
 71 288 l 1
EndSplineSet
Substitution2: "'case' Case-Sensitive Forms lookup 29 subtable" uni00AD.case
Substitution2: "'aalt' Access All Alternates lookup 0 subtable" uni00AD.case
EndChar

StartChar: macron
Encoding: 175 175 1261
Width: 298
Flags: MW
HStem: 676 47<87 334 94 327>
VStem: 87 247<676 723>
LayerCount: 2
Fore
SplineSet
87 676 m 1
 94 723 l 1
 334 723 l 1
 327 676 l 1
 87 676 l 1
EndSplineSet
Substitution2: "'case' Case-Sensitive Forms lookup 25 subtable" macron.case
Substitution2: "'smcp' Lowercase to Small Capitals lookup 24 subtable" macron.sc
Substitution2: "'c2sc' Capitals to Small Capitals lookup 23 subtable" macron.sc
AlternateSubs2: "'aalt' Access All Alternates lookup 1 subtable" macron.sc macron.case
EndChar

StartChar: plusminus
Encoding: 177 177 1117
Width: 491
Flags: MW
HStem: 0 51<39 386 32 393> 316 50<84 226 77 233 288 430 84 281>
VStem: 32 405<0 366>
LayerCount: 2
Fore
SplineSet
288 366 m 1
 437 366 l 1
 430 316 l 1
 281 316 l 1
 259 164 l 1
 204 164 l 1
 226 316 l 1
 77 316 l 1
 84 366 l 1
 233 366 l 1
 254 518 l 1
 309 518 l 1
 288 366 l 1
39 51 m 1
 393 51 l 1
 386 0 l 1
 32 0 l 1
 39 51 l 1
EndSplineSet
Substitution2: "'onum' Oldstyle Figures lookup 22 subtable" plusminus.osf
Substitution2: "'tnum' Tabular Numbers lookup 21 subtable" plusminus.tf
AlternateSubs2: "'aalt' Access All Alternates lookup 1 subtable" plusminus.tf plusminus.osf
EndChar
StartChar: uni00B2
Encoding: 178 178 2110
Width: 397
Flags: MW
HStem: 323 42.5 700 43<199.5 242>
VStem: 283 53
LayerCount: 2
Back
Fore
SplineSet
223 743 m 0
 304 743 345 689 336 624 c 0
 325 548 274 502 114 365 c 1
 310 366 l 1
 297 323 l 1
 46 323 l 1
 51 365 l 1
 229 521 274 560 283 627 c 0
 289 672 264 700 220 700 c 0
 179 700 148 682 120 653 c 1
 87 682 l 1
 129 724 172 743 223 743 c 0
EndSplineSet
EndChar

StartChar: threesuperior
Encoding: 179 179 973
Width: 397
Flags: MW
HStem: 315 42<146.5 194.5 146.5 209> 521 39<173 192 192 193 161 192> 703 41<204.5 245.5>
VStem: 272 51 288 51
LayerCount: 2
Fore
SplineSet
226 744 m 0xe8
 305 744 347 698 339 637 c 0xe8
 332 585 294 552 240 542 c 1
 292 540 332 503 323 436 c 0
 313 366 253 315 165 315 c 0
 111 315 70 336 42 373 c 1
 76 398 l 1
 102 367 130 357 163 357 c 0
 226 357 264 393 272 444 c 0
 280 501 248 521 193 521 c 2xf0
 161 521 l 1
 173 560 l 1
 192 560 l 2
 235 560 281 585 288 639 c 0
 294 680 268 703 223 703 c 0
 186 703 157 691 122 664 c 1
 97 697 l 1
 137 728 176 744 226 744 c 0xe8
EndSplineSet
EndChar
StartChar: acute
Encoding: 180 180 2517
Width: 273
Flags: MW
HStem: 645 137
VStem: 88 220<679 730>
LayerCount: 2
Back
Fore
SplineSet
289 782 m 1
 308 730 l 1
 102 645 l 1
 88 679 l 1
 289 782 l 1
EndSplineSet
Substitution2: "'case' Case-Sensitive Forms lookup 29 subtable" acute.case
Substitution2: "'smcp' Lowercase to Small Capitals lookup 28 subtable" acute.sc
Substitution2: "'c2sc' Capitals to Small Capitals lookup 27 subtable" acute.sc
Substitution2: "'locl' Localized Forms in Latin lookup 7 subtable" acute.loclPLK
AlternateSubs2: "'aalt' Access All Alternates lookup 1 subtable" acute.loclPLK acute.sc acute.case
EndChar
StartChar: uni00B5
Encoding: 181 181 2264
Width: 582
GlyphClass: 2
Flags: MW
HStem: -203 21G<40 40> -11 51<202 260 202 260> -8 21G<406 406> -1 21G<459 459> 503 20G<143 200 200 200 449 506 506 506>
VStem: 396 54.5
LayerCount: 2
Back
Fore
SplineSet
457 175 m 2xcc
 446 97 450 44 459 -1 c 1x9c
 406 -8 l 1xac
 396 32 394 58 396 100 c 1
 354 41 298 -11 222 -11 c 0
 170 -11 139 10 124 41 c 1
 125 8 122 -27 114 -82 c 2
 98 -197 l 1
 40 -203 l 1
 143 523 l 1
 200 523 l 1
 147 148 l 2
 135 66 176 40 228 40 c 0
 292 40 348 81 398 159 c 1
 449 523 l 1
 506 523 l 1
 457 175 l 2xcc
EndSplineSet
EndChar
StartChar: paragraph
Encoding: 182 182 2380
Width: 706
GlyphClass: 2
Flags: MW
HStem: -206 21G<254 254 435 435> 636 49
VStem: 130.41 483.59
LayerCount: 2
Back
Fore
SplineSet
390 684 m 1
 614 685 l 1
 491 -197 l 1
 435 -206 l 1
 553 636 l 1
 426 636 l 1
 309 -197 l 1
 254 -206 l 1
 324 294 l 1
 166 301 118 387 133 493 c 0
 151 616 244 684 389 684 c 1
 389 681 l 1
 390 684 l 1
EndSplineSet
EndChar

StartChar: cedilla
Encoding: 184 184 1255
Width: 243
Flags: MW
HStem: -227 42<29.5 58 29.5 77.5> -205 20 -96 32<24 75>
VStem: 106 52
LayerCount: 2
Fore
SplineSet
75 -64 m 1x70
 132 -69 158 -94 158 -133 c 0
 158 -184 112 -227 43 -227 c 0xb0
 7 -227 -18 -217 -36 -205 c 1
 -14 -170 l 1
 0 -179 17 -185 42 -185 c 0
 74 -185 105 -169 106 -138 c 0
 107 -108 87 -96 24 -96 c 1
 49 16 l 1
 88 16 l 1
 75 -64 l 1x70
EndSplineSet
Substitution2: "'case' Case-Sensitive Forms lookup 25 subtable" cedilla.case
Substitution2: "'smcp' Lowercase to Small Capitals lookup 24 subtable" cedilla.sc
Substitution2: "'c2sc' Capitals to Small Capitals lookup 23 subtable" cedilla.sc
AlternateSubs2: "'aalt' Access All Alternates lookup 1 subtable" cedilla.sc cedilla.case
EndChar

StartChar: onesuperior
Encoding: 185 185 971
Width: 397
Flags: MW
HStem: 717 20G<243 287 287 287>
VStem: 100 187<658 737>
LayerCount: 2
Fore
SplineSet
228 323 m 1
 178 323 l 1
 228 682 l 1
 119 622 l 1
 100 658 l 1
 243 737 l 1
 287 737 l 1
 228 323 l 1
EndSplineSet
EndChar

StartChar: ordmasculine
Encoding: 186 186 416
Width: 497
GlyphClass: 2
Flags: MW
HStem: 0 51<44 390 37 397> 274 46<221 312 221 331.5> 639 46<245.5 336>
VStem: 95 59<396.5 475.5 396.5 489> 403 59<487.5 564.5>
LayerCount: 2
Fore
SplineSet
304 685 m 0
 404 685 462 626 462 522 c 0
 462 418 410 274 253 274 c 0
 152 274 95 335 95 438 c 0
 95 540 147 685 304 685 c 0
304 639 m 0
 187 639 154 517 154 434 c 0
 154 359 189 320 253 320 c 0
 371 320 403 448 403 527 c 0
 403 602 368 639 304 639 c 0
44 51 m 1
 397 51 l 1
 390 0 l 1
 37 0 l 1
 44 51 l 1
EndSplineSet
EndChar
StartChar: guillemotright
Encoding: 187 187 2178
Width: 543
Flags: MW
HStem: 56 464<79 140 140 283>
VStem: 45 433<80 307>
LayerCount: 2
Back
Fore
SplineSet
343 520 m 1
 478 307 l 1
 474 268 l 1
 283 56 l 1
 248 80 l 1
 414 288 l 1
 307 495 l 1
 343 520 l 1
140 520 m 1
 274 307 l 1
 270 268 l 1
 79 56 l 1
 45 80 l 1
 210 288 l 1
 103 495 l 1
 140 520 l 1
EndSplineSet
Substitution2: "'case' Case-Sensitive Forms lookup 29 subtable" guillemotright.case
Substitution2: "'aalt' Access All Alternates lookup 0 subtable" guillemotright.case
EndChar
StartChar: onequarter
Encoding: 188 188 2066
Width: 906
Flags: MW
HStem: 0 145<711 732 598 761 711 711> 103 42<598 726 782 831> 665 20G<236 280 280 280> 727 20G<703 703>
VStem: 93 744<145 606>
LayerCount: 2
Back
Fore
SplineSet
703 747 m 1x78
 741 728 l 1
 224 -71 l 1
 186 -51 l 1
 703 747 l 1x78
221 271 m 1
 171 271 l 1
 221 630 l 1
 112 570 l 1
 93 606 l 1
 236 685 l 1
 280 685 l 1
 221 271 l 1
837 145 m 1
 831 103 l 1
 776 103 l 1x78
 761 0 l 1
 711 0 l 1xb8
 726 103 l 1
 539 103 l 1
 543 140 l 1
 712 421 l 1
 753 404 l 1
 598 145 l 1
 732 145 l 1
 754 260 l 1
 798 260 l 1
 782 145 l 1
 837 145 l 1
EndSplineSet
EndChar
StartChar: onehalf
Encoding: 189 189 2063
Width: 906
Flags: MW
HStem: 0 42.5 377 43<699.5 742> 665 20G<236 280 280 280> 727 20G<703 703>
VStem: 783 53
LayerCount: 2
Back
Fore
SplineSet
703 747 m 1
 741 728 l 1
 224 -71 l 1
 186 -51 l 1
 703 747 l 1
280 685 m 1
 221 271 l 1
 171 271 l 1
 221 630 l 1
 112 570 l 1
 93 606 l 1
 236 685 l 1
 280 685 l 1
723 420 m 0
 804 420 845 366 836 301 c 0
 825 225 774 179 614 42 c 1
 810 43 l 1
 797 0 l 1
 546 0 l 1
 551 42 l 1
 729 198 774 237 783 304 c 0
 789 349 764 377 720 377 c 0
 679 377 648 359 620 330 c 1
 587 359 l 1
 629 401 672 420 723 420 c 0
EndSplineSet
EndChar

StartChar: threequarters
Encoding: 190 190 929
Width: 906
Flags: MW
HStem: 0 145<711 732 598 761 711 711> 103 42<598 726 782 831> 263 42<139.5 187.5 139.5 202> 469 39<166 185 185 186 154 185> 651 41<197.5 238.5> 727 20G<703 703>
VStem: 265 51 281 51
LayerCount: 2
Fore
SplineSet
741 728 m 1x7d
 224 -71 l 1
 186 -51 l 1
 703 747 l 1
 741 728 l 1x7d
316 384 m 0x7e
 306 314 246 263 158 263 c 0
 104 263 63 284 35 321 c 1
 69 346 l 1
 95 315 123 305 156 305 c 0
 219 305 257 341 265 392 c 0
 273 449 241 469 186 469 c 2x7e
 154 469 l 1
 166 508 l 1
 185 508 l 2
 228 508 274 533 281 587 c 0
 287 628 261 651 216 651 c 0
 179 651 150 639 115 612 c 1
 90 645 l 1
 130 676 169 692 219 692 c 0
 298 692 340 646 332 585 c 0x7d
 325 533 287 500 233 490 c 1
 285 488 325 451 316 384 c 0x7e
831 103 m 1x7d
 776 103 l 1x7d
 761 0 l 1
 711 0 l 1xbd
 726 103 l 1
 539 103 l 1
 543 140 l 1
 712 421 l 1
 753 404 l 1
 598 145 l 1
 732 145 l 1
 754 260 l 1
 798 260 l 1
 782 145 l 1
 837 145 l 1
 831 103 l 1x7d
EndSplineSet
EndChar
StartChar: questiondown
Encoding: 191 191 2131
Width: 445
Flags: MW
HStem: -207 49<122 183.5 122 187.5> 410 95<247 268>
VStem: -5 59<-102 -3.5 -102 12.5> 210 95<447.5 468.5> 229 57<153.5 227 137.5 230>
LayerCount: 2
Back
Fore
SplineSet
254 410 m 0xf0
 227 410 210 429 210 454 c 0
 210 483 232 505 262 505 c 0
 288 505 305 486 305 462 c 0
 305 433 282 410 254 410 c 0xf0
149 -207 m 0
 47 -207 -5 -149 -5 -78 c 0
 -5 103 229 85 229 222 c 0
 229 238 227 250 224 263 c 1
 276 273 l 1
 282 256 286 235 286 219 c 0xa8
 286 56 54 70 54 -77 c 0
 54 -127 91 -158 153 -158 c 0
 214 -158 263 -132 315 -81 c 1
 351 -116 l 1
 289 -178 226 -207 149 -207 c 0
EndSplineSet
Substitution2: "'case' Case-Sensitive Forms lookup 29 subtable" questiondown.case
Substitution2: "'aalt' Access All Alternates lookup 0 subtable" questiondown.case
EndChar
StartChar: Agrave
Encoding: 192 192 23
Width: 562
GlyphClass: 2
Flags: MW
HStem: 0 21G<-21 40 -21 -21 447 509 447 447> 187 51<150 405 150 414 127 405> 636 49<334 334>
VStem: -21 530<0 0>
AnchorPoint: "Anchor-14" 0 0 basechar 0
AnchorPoint: "Anchor-13" 0 0 basechar 0
AnchorPoint: "Anchor-12" 362 888 basechar 0
AnchorPoint: "Anchor-11" 501 0 basechar 0
AnchorPoint: "Anchor-10" 244 0 basechar 0
LayerCount: 2
Back
Fore
SplineSet
464 792 m 1
 444 758 l 1
 257 836 l 1
 290 888 l 1
 464 792 l 1
447 0 m 1
 414 187 l 1
 127 187 l 1
 40 0 l 1
 -21 0 l 1
 303 685 l 1
 378 685 l 1
 509 0 l 1
 447 0 l 1
150 238 m 1
 405 238 l 1
 334 636 l 1
 150 238 l 1
EndSplineSet
Substitution2: "'c2sc' Capitals to Small Capitals lookup 27 subtable" agrave.sc
Substitution2: "'aalt' Access All Alternates lookup 0 subtable" agrave.sc
Position2: "'cpsp' Capital Spacing lookup 0 subtable" dx=5 dy=0 dh=10 dv=0
EndChar

StartChar: Acircumflex
Encoding: 194 194 4
Width: 562
GlyphClass: 2
Flags: MW
HStem: 0 21G<-21 40 -21 -21 447 447 447 509> 187 51<150 405 150 414 126 405> 636 49<334 334>
VStem: -21 530<0 0>
AnchorPoint: "Anchor-11" 0 0 basechar 0
AnchorPoint: "Anchor-10" 174 523 basechar 0
AnchorPoint: "Anchor-9" 341 685 basechar 0
AnchorPoint: "Anchor-8" 501 0 basechar 0
LayerCount: 2
Fore
SplineSet
239 762 m 1
 214 792 l 1
 357 894 l 1
 393 894 l 1
 508 792 l 1
 481 762 l 1
 370 842 l 1
 239 762 l 1
414 187 m 1
 126 187 l 1
 40 0 l 1
 -21 0 l 1
 303 685 l 1
 378 685 l 1
 509 0 l 1
 447 0 l 1
 414 187 l 1
405 238 m 1
 334 636 l 1
 150 238 l 1
 405 238 l 1
EndSplineSet
Substitution2: "'c2sc' Capitals to Small Capitals lookup 23 subtable" acircumflex.sc
Substitution2: "'aalt' Access All Alternates lookup 0 subtable" acircumflex.sc
Position2: "'cpsp' Capital Spacing lookup 0 subtable" dx=5 dy=0 dh=10 dv=0
EndChar

StartChar: Atilde
Encoding: 195 195 10
Width: 562
GlyphClass: 2
Flags: MW
HStem: 0 21G<-21 40 -21 -21 447 509 447 447> 187 51<150 405 150 414 126 405> 636 49<334 334> 792 47<399 429 399 436.5> 838 46<307 324>
VStem: -21 536
AnchorPoint: "Anchor-11" 0 0 basechar 0
AnchorPoint: "Anchor-10" 174 523 basechar 0
AnchorPoint: "Anchor-9" 341 685 basechar 0
AnchorPoint: "Anchor-8" 501 0 basechar 0
LayerCount: 2
Fore
SplineSet
307 838 m 1xec
 279 837 265 824 243 796 c 1
 210 818 l 1
 237 858 268 884 308 884 c 0xec
 356 884 380 839 418 839 c 0
 440 839 458 853 481 884 c 1
 515 862 l 1
 484 813 452 792 421 792 c 0xf4
 363 792 341 838 307 838 c 1xec
378 685 m 1
 509 0 l 1
 447 0 l 1
 414 187 l 1
 126 187 l 1
 40 0 l 1
 -21 0 l 1
 303 685 l 1
 378 685 l 1
405 238 m 1
 334 636 l 1
 150 238 l 1
 405 238 l 1
EndSplineSet
Substitution2: "'c2sc' Capitals to Small Capitals lookup 23 subtable" atilde.sc
Substitution2: "'aalt' Access All Alternates lookup 0 subtable" atilde.sc
Position2: "'cpsp' Capital Spacing lookup 0 subtable" dx=5 dy=0 dh=10 dv=0
EndChar
StartChar: Adieresis
Encoding: 196 196 18
Width: 562
GlyphClass: 2
Flags: MW
HStem: 0 21G<-21 40 -21 -21 447 509 447 447> 187 51<150 405 150 414 127 405> 636 49<334 334> 789 79<259 275.5 447 464>
VStem: 228 78 416 78
AnchorPoint: "Anchor-14" 0 0 basechar 0
AnchorPoint: "Anchor-13" 0 0 basechar 0
AnchorPoint: "Anchor-12" 364 868 basechar 0
AnchorPoint: "Anchor-11" 501 0 basechar 0
AnchorPoint: "Anchor-10" 244 0 basechar 0
LayerCount: 2
Back
Fore
SplineSet
265 789 m 0
 240 789 225 808 228 832 c 0
 231 852 248 868 270 868 c 0
 294 868 309 848 306 825 c 0
 303 804 286 789 265 789 c 0
453 789 m 0
 428 789 413 808 416 832 c 0
 419 852 436 868 458 868 c 0
 483 868 498 848 494 825 c 0
 491 804 475 789 453 789 c 0
447 0 m 1
 414 187 l 1
 127 187 l 1
 40 0 l 1
 -21 0 l 1
 303 685 l 1
 378 685 l 1
 509 0 l 1
 447 0 l 1
150 238 m 1
 405 238 l 1
 334 636 l 1
 150 238 l 1
EndSplineSet
Substitution2: "'c2sc' Capitals to Small Capitals lookup 27 subtable" adieresis.sc
Substitution2: "'aalt' Access All Alternates lookup 0 subtable" adieresis.sc
Position2: "'cpsp' Capital Spacing lookup 0 subtable" dx=5 dy=0 dh=10 dv=0
EndChar

StartChar: Aring
Encoding: 197 197 9
Width: 562
GlyphClass: 2
Flags: MW
HStem: 0 21G<-21 40 -21 -21 447 447 447 509> 187 51<150 405 150 414 126 405> 636 49<334 334> 759 36<339.5 373.5 339.5 382.5> 911 36<355.5 390>
VStem: 267 43 419 43
AnchorPoint: "Anchor-11" 0 0 basechar 0
AnchorPoint: "Anchor-10" 174 523 basechar 0
AnchorPoint: "Anchor-9" 341 685 basechar 0
AnchorPoint: "Anchor-8" 501 0 basechar 0
LayerCount: 2
Fore
SplineSet
354 759 m 0
 295 759 259 802 267 856 c 0
 274 909 318 947 375 947 c 0
 434 947 470 904 462 849 c 0
 455 796 411 759 354 759 c 0
310 849 m 0
 305 817 323 795 356 795 c 0
 391 795 413 818 419 856 c 0
 425 889 407 911 373 911 c 0
 338 911 315 889 310 849 c 0
414 187 m 1
 126 187 l 1
 40 0 l 1
 -21 0 l 1
 303 685 l 1
 378 685 l 1
 509 0 l 1
 447 0 l 1
 414 187 l 1
405 238 m 1
 334 636 l 1
 150 238 l 1
 405 238 l 1
EndSplineSet
Substitution2: "'c2sc' Capitals to Small Capitals lookup 23 subtable" aring.sc
Substitution2: "'aalt' Access All Alternates lookup 0 subtable" aring.sc
Position2: "'cpsp' Capital Spacing lookup 0 subtable" dx=5 dy=0 dh=10 dv=0
EndChar
StartChar: Ccedilla
Encoding: 199 199 45
Width: 547
GlyphClass: 2
Flags: MW
HStem: -227 42<268 299 268 315.5> -205 20 -96 32<262 313> -11 53<322 322> -10 52<281 281> 645 51<301 428>
VStem: 71 62<184.5 340 184.5 354> 344 52
AnchorPoint: "Anchor-14" 0 0 basechar 0
AnchorPoint: "Anchor-13" 0 0 basechar 0
AnchorPoint: "Anchor-12" 402 685 basechar 0
AnchorPoint: "Anchor-11" 0 0 basechar 0
AnchorPoint: "Anchor-10" 301 -227 basechar 0
LayerCount: 2
Back
Fore
SplineSet
401 645 m 0x77
 201 645 133 420 133 260 c 0
 133 109 206 42 309 42 c 0
 381 42 425 69 469 101 c 1
 497 58 l 1
 453 23 396 -7 322 -11 c 1
 313 -64 l 1
 370 -69 396 -95 396 -136 c 0
 396 -188 350 -227 281 -227 c 0xb7
 245 -227 220 -217 202 -205 c 1
 224 -170 l 1
 238 -179 255 -185 281 -185 c 0
 317 -185 343 -170 344 -138 c 0
 345 -108 325 -96 262 -96 c 1
 281 -10 l 1x6f
 156 1 71 95 71 263 c 0
 71 445 161 696 399 696 c 0
 476 696 525 672 569 632 c 1
 533 595 l 1
 492 630 455 645 401 645 c 0x77
EndSplineSet
Substitution2: "'c2sc' Capitals to Small Capitals lookup 27 subtable" ccedilla.sc
Substitution2: "'aalt' Access All Alternates lookup 0 subtable" ccedilla.sc
Position2: "'cpsp' Capital Spacing lookup 0 subtable" dx=5 dy=0 dh=10 dv=0
EndChar
StartChar: Ecircumflex
Encoding: 202 202 70
Width: 509
GlyphClass: 2
Flags: MW
HStem: 0 50<141 426> 330 50<186 422 180 428> 635 50<222 502 222 222>
VStem: 74 442
AnchorPoint: "Anchor-14" 0 0 basechar 0
AnchorPoint: "Anchor-13" 454 755 basechar 0
AnchorPoint: "Anchor-12" 370 894 basechar 0
AnchorPoint: "Anchor-11" 405 0 basechar 0
AnchorPoint: "Anchor-10" 248 0 basechar 0
LayerCount: 2
Back
Fore
SplineSet
476 762 m 1
 365 842 l 1
 234 762 l 1
 209 792 l 1
 352 894 l 1
 388 894 l 1
 503 792 l 1
 476 762 l 1
516 685 m 1
 502 635 l 1
 222 635 l 1
 186 380 l 1
 428 380 l 1
 422 330 l 1
 180 330 l 1
 141 50 l 1
 434 50 l 1
 426 0 l 1
 74 0 l 1
 170 685 l 1
 516 685 l 1
EndSplineSet
Substitution2: "'c2sc' Capitals to Small Capitals lookup 27 subtable" ecircumflex.sc
Substitution2: "'aalt' Access All Alternates lookup 0 subtable" ecircumflex.sc
Position2: "'cpsp' Capital Spacing lookup 0 subtable" dx=5 dy=0 dh=10 dv=0
EndChar
StartChar: Iacute
Encoding: 205 205 117
Width: 280
GlyphClass: 2
Flags: MW
HStem: 0 21G<74 133 74 74> 665 20G<170 229 229 229>
VStem: 74 255
AnchorPoint: "Anchor-14" 0 0 basechar 0
AnchorPoint: "Anchor-13" 0 0 basechar 0
AnchorPoint: "Anchor-12" 221 888 basechar 0
AnchorPoint: "Anchor-11" 128 0 basechar 0
AnchorPoint: "Anchor-10" 103 0 basechar 0
LayerCount: 2
Back
Fore
SplineSet
309 888 m 1
 329 836 l 1
 121 758 l 1
 110 792 l 1
 309 888 l 1
229 685 m 1
 133 0 l 1
 74 0 l 1
 170 685 l 1
 229 685 l 1
EndSplineSet
Substitution2: "'c2sc' Capitals to Small Capitals lookup 27 subtable" iacute.sc
Substitution2: "'aalt' Access All Alternates lookup 0 subtable" iacute.sc
Position2: "'cpsp' Capital Spacing lookup 0 subtable" dx=5 dy=0 dh=10 dv=0
EndChar
StartChar: Icircumflex
Encoding: 206 206 120
Width: 280
GlyphClass: 2
Flags: MW
HStem: 0 21G<74 133 74 74> 665 20G<170 229 229 229>
VStem: 62 294<792 792>
AnchorPoint: "Anchor-14" 0 0 basechar 0
AnchorPoint: "Anchor-13" 307 755 basechar 0
AnchorPoint: "Anchor-12" 223 894 basechar 0
AnchorPoint: "Anchor-11" 128 0 basechar 0
AnchorPoint: "Anchor-10" 103 0 basechar 0
LayerCount: 2
Back
Fore
SplineSet
329 762 m 1
 218 842 l 1
 87 762 l 1
 62 792 l 1
 205 894 l 1
 241 894 l 1
 356 792 l 1
 329 762 l 1
229 685 m 1
 133 0 l 1
 74 0 l 1
 170 685 l 1
 229 685 l 1
EndSplineSet
Substitution2: "'c2sc' Capitals to Small Capitals lookup 27 subtable" icircumflex.sc
Substitution2: "'aalt' Access All Alternates lookup 0 subtable" icircumflex.sc
Position2: "'cpsp' Capital Spacing lookup 0 subtable" dx=5 dy=0 dh=10 dv=0
EndChar
StartChar: Idieresis
Encoding: 207 207 122
Width: 280
GlyphClass: 2
Flags: MW
HStem: 0 21G<74 133 74 74> 665 20G<170 229 229 229> 789 79<118 134.5 306 323>
VStem: 87 78 275 78
AnchorPoint: "Anchor-14" 0 0 basechar 0
AnchorPoint: "Anchor-13" 0 0 basechar 0
AnchorPoint: "Anchor-12" 223 868 basechar 0
AnchorPoint: "Anchor-11" 128 0 basechar 0
AnchorPoint: "Anchor-10" 103 0 basechar 0
LayerCount: 2
Back
Fore
SplineSet
129 868 m 0
 153 868 168 848 165 825 c 0
 162 804 145 789 124 789 c 0
 99 789 84 808 87 832 c 0
 90 852 107 868 129 868 c 0
317 868 m 0
 342 868 357 848 353 825 c 0
 350 804 334 789 312 789 c 0
 287 789 272 808 275 832 c 0
 278 852 295 868 317 868 c 0
229 685 m 1
 133 0 l 1
 74 0 l 1
 170 685 l 1
 229 685 l 1
EndSplineSet
Substitution2: "'c2sc' Capitals to Small Capitals lookup 27 subtable" idieresis.sc
Substitution2: "'aalt' Access All Alternates lookup 0 subtable" idieresis.sc
Position2: "'cpsp' Capital Spacing lookup 0 subtable" dx=5 dy=0 dh=10 dv=0
EndChar
StartChar: Eth
Encoding: 208 208 54
Width: 629
GlyphClass: 2
Flags: MW
HStem: 0 50<140 221> 330 46<39 120 33 126 186 357> 635 50<222 303 303 307 222 222>
VStem: 520 61<340.5 519.5>
AnchorPoint: "Anchor-14" 329 343 basechar 0
AnchorPoint: "Anchor-13" 0 0 basechar 0
AnchorPoint: "Anchor-12" 357 685 basechar 0
AnchorPoint: "Anchor-11" 0 0 basechar 0
AnchorPoint: "Anchor-10" 251 0 basechar 0
LayerCount: 2
Back
Fore
SplineSet
303 685 m 2
 445 685 581 640 581 429 c 0
 581 215 486 0 221 0 c 2
 73 0 l 1
 120 330 l 1
 33 330 l 1
 39 376 l 1
 126 376 l 1
 170 685 l 1
 303 685 l 2
230 50 m 2
 450 50 520 251 520 430 c 0
 520 609 413 635 307 635 c 2
 222 635 l 1
 186 376 l 1
 364 376 l 1
 357 330 l 1
 179 330 l 1
 140 50 l 1
 230 50 l 2
EndSplineSet
Substitution2: "'c2sc' Capitals to Small Capitals lookup 27 subtable" eth.sc
Substitution2: "'aalt' Access All Alternates lookup 0 subtable" eth.sc
Position2: "'cpsp' Capital Spacing lookup 0 subtable" dx=5 dy=0 dh=10 dv=0
EndChar
StartChar: Ntilde
Encoding: 209 209 169
Width: 670
GlyphClass: 2
Flags: MW
HStem: 0 55<484 484 484 522 446 484> 631 54<209 209> 792 47<462 492 462 499.5> 838 46<370 387>
VStem: 74 545
AnchorPoint: "Anchor-14" 0 0 basechar 0
AnchorPoint: "Anchor-13" 0 0 basechar 0
AnchorPoint: "Anchor-12" 427 885 basechar 0
AnchorPoint: "Anchor-11" 0 0 basechar 0
AnchorPoint: "Anchor-10" 299 0 basechar 0
LayerCount: 2
Back
Fore
SplineSet
484 792 m 0xe8
 426 792 404 838 370 838 c 0
 342 837 328 824 306 796 c 1
 273 818 l 1
 300 858 331 884 371 884 c 0xd8
 419 884 443 839 481 839 c 0
 503 839 521 853 544 884 c 1
 578 862 l 1
 547 813 515 792 484 792 c 0xe8
619 685 m 1xd8
 522 0 l 1
 446 0 l 1
 209 631 l 1
 208 569 201 504 184 381 c 2
 130 0 l 1
 74 0 l 1
 170 685 l 1
 247 685 l 1
 484 55 l 1
 486 119 492 182 504 270 c 2
 562 685 l 1
 619 685 l 1xd8
EndSplineSet
Substitution2: "'c2sc' Capitals to Small Capitals lookup 27 subtable" ntilde.sc
Substitution2: "'aalt' Access All Alternates lookup 0 subtable" ntilde.sc
Position2: "'cpsp' Capital Spacing lookup 0 subtable" dx=5 dy=0 dh=10 dv=0
EndChar
StartChar: Ograve
Encoding: 210 210 188
Width: 688
GlyphClass: 2
Flags: MW
HStem: -11 51<256.5 415.5 256.5 433.5> 645 51<298 456.5>
VStem: 71 62<184.5 335 184.5 348.5> 578 62<352.5 501.5>
AnchorPoint: "Anchor-14" 0 0 basechar 0
AnchorPoint: "Anchor-13" 599 685 basechar 0
AnchorPoint: "Anchor-12" 426 888 basechar 0
AnchorPoint: "Anchor-11" 0 0 basechar 0
AnchorPoint: "Anchor-10" 306 0 basechar 0
LayerCount: 2
Back
Fore
SplineSet
354 888 m 1
 528 792 l 1
 508 758 l 1
 321 836 l 1
 354 888 l 1
404 696 m 0
 548 696 640 602 640 424 c 0
 640 245 558 -11 309 -11 c 0
 164 -11 71 85 71 262 c 0
 71 435 156 696 404 696 c 0
401 645 m 0
 195 645 133 410 133 260 c 0
 133 109 203 40 310 40 c 0
 521 40 578 278 578 427 c 0
 578 576 512 645 401 645 c 0
EndSplineSet
Substitution2: "'c2sc' Capitals to Small Capitals lookup 27 subtable" ograve.sc
Substitution2: "'aalt' Access All Alternates lookup 0 subtable" ograve.sc
Position2: "'cpsp' Capital Spacing lookup 0 subtable" dx=5 dy=0 dh=10 dv=0
EndChar

StartChar: Otilde
Encoding: 213 213 81
Width: 688
GlyphClass: 2
Flags: MW
HStem: -11 51<256.5 415.5 256.5 433.5> 645 51<298 456.5> 792 47<456 486 456 493.5> 838 46<364 381>
VStem: 71 62<182.5 333 182.5 348.5> 578 62<355 504>
AnchorPoint: "Anchor-11" 0 0 basechar 0
AnchorPoint: "Anchor-10" 73 526 basechar 0
AnchorPoint: "Anchor-9" 397 685 basechar 0
AnchorPoint: "Anchor-8" 0 0 basechar 0
LayerCount: 2
Fore
SplineSet
478 792 m 0xec
 420 792 398 838 364 838 c 1
 336 837 322 824 300 796 c 1
 267 818 l 1
 294 858 325 884 365 884 c 0xdc
 413 884 437 839 475 839 c 0
 497 839 515 853 538 884 c 1
 572 862 l 1
 541 813 509 792 478 792 c 0xec
404 696 m 0xdc
 548 696 640 602 640 424 c 0
 640 245 558 -11 309 -11 c 0
 164 -11 71 85 71 262 c 0
 71 435 156 696 404 696 c 0xdc
401 645 m 0
 195 645 133 410 133 256 c 0
 133 109 203 40 310 40 c 0
 521 40 578 278 578 432 c 0
 578 576 512 645 401 645 c 0
EndSplineSet
Substitution2: "'c2sc' Capitals to Small Capitals lookup 23 subtable" otilde.sc
Substitution2: "'aalt' Access All Alternates lookup 0 subtable" otilde.sc
Position2: "'cpsp' Capital Spacing lookup 0 subtable" dx=5 dy=0 dh=10 dv=0
EndChar

StartChar: Oslash
Encoding: 216 216 79
Width: 688
GlyphClass: 2
Flags: MW
HStem: -11 51<298.5 415.5 298.5 433.5> 0 21G<231 231> 645 51<298 412> 666 20G<479 479>
VStem: 71 62<207 333 207 348.5> 578 62<355 481>
AnchorPoint: "Anchor-11" 0 0 basechar 0
AnchorPoint: "Anchor-10" 167 685 basechar 0
AnchorPoint: "Anchor-9" 399 697 basechar 0
AnchorPoint: "Anchor-8" 0 0 basechar 0
LayerCount: 2
Fore
SplineSet
524 668 m 1x9c
 597 628 640 546 640 424 c 0
 640 245 558 -11 309 -11 c 0xac
 281 -11 255 -7 231 0 c 1
 179 -120 l 1
 130 -105 l 1
 185 19 l 1
 113 60 71 143 71 262 c 0
 71 435 156 696 404 696 c 0x6c
 431 696 456 693 479 686 c 1
 532 810 l 1
 582 796 l 1
 524 668 l 1x9c
133 256 m 0xac
 133 158 162 97 212 65 c 1
 462 637 l 1
 443 642 423 645 401 645 c 0
 195 645 133 410 133 256 c 0xac
310 40 m 0
 521 40 578 278 578 432 c 0
 578 530 549 592 498 622 c 1
 248 49 l 1
 267 43 287 40 310 40 c 0
EndSplineSet
Substitution2: "'c2sc' Capitals to Small Capitals lookup 23 subtable" oslash.sc
Substitution2: "'aalt' Access All Alternates lookup 0 subtable" oslash.sc
Position2: "'cpsp' Capital Spacing lookup 0 subtable" dx=5 dy=0 dh=10 dv=0
EndChar

StartChar: Ugrave
Encoding: 217 217 106
Width: 649
GlyphClass: 2
Flags: MW
HStem: -11 52<234.5 349 234.5 363> 665 20G<160 219 219 219 548 608 608 608>
VStem: 90.92 59.73
AnchorPoint: "Anchor-11" 0 0 basechar 0
AnchorPoint: "Anchor-10" 0 0 basechar 0
AnchorPoint: "Anchor-9" 386 685 basechar 0
AnchorPoint: "Anchor-8" 378 0 basechar 0
LayerCount: 2
Fore
SplineSet
509 792 m 1
 489 758 l 1
 302 836 l 1
 335 888 l 1
 509 792 l 1
542 212 m 2
 523 80 437 -11 289 -11 c 0
 136 -11 76 84 94 216 c 2
 160 685 l 1
 219 685 l 1
 154 217 l 2
 138 106 178 41 291 41 c 0
 407 41 467 111 482 221 c 2
 548 685 l 1
 608 685 l 1
 542 212 l 2
EndSplineSet
Substitution2: "'c2sc' Capitals to Small Capitals lookup 23 subtable" ugrave.sc
Substitution2: "'aalt' Access All Alternates lookup 0 subtable" ugrave.sc
Position2: "'cpsp' Capital Spacing lookup 0 subtable" dx=5 dy=0 dh=10 dv=0
EndChar
StartChar: Udieresis
Encoding: 220 220 260
Width: 649
GlyphClass: 2
Flags: MW
HStem: -11 52<234.5 349 234.5 363> 665 20G<160 219 219 219 548 608 608 608> 789 79<302 318.5 490 507>
VStem: 90.92 59.73 271 78 459 78
AnchorPoint: "Anchor-14" 0 0 basechar 0
AnchorPoint: "Anchor-13" 618 685 basechar 0
AnchorPoint: "Anchor-12" 407 868 basechar 0
AnchorPoint: "Anchor-11" 378 0 basechar 0
AnchorPoint: "Anchor-10" 288 0 basechar 0
LayerCount: 2
Back
Fore
SplineSet
313 868 m 0
 337 868 352 848 349 825 c 0
 346 804 329 789 308 789 c 0
 283 789 268 808 271 832 c 0
 274 852 291 868 313 868 c 0
501 868 m 0
 526 868 541 848 537 825 c 0
 534 804 518 789 496 789 c 0
 471 789 456 808 459 832 c 0
 462 852 479 868 501 868 c 0
608 685 m 1
 542 212 l 2
 523 80 437 -11 289 -11 c 0
 136 -11 76 84 94 216 c 2
 160 685 l 1
 219 685 l 1
 154 217 l 2
 138 106 178 41 291 41 c 0
 407 41 467 111 482 221 c 2
 548 685 l 1
 608 685 l 1
EndSplineSet
Substitution2: "'c2sc' Capitals to Small Capitals lookup 27 subtable" udieresis.sc
Substitution2: "'aalt' Access All Alternates lookup 0 subtable" udieresis.sc
Position2: "'cpsp' Capital Spacing lookup 0 subtable" dx=5 dy=0 dh=10 dv=0
EndChar
StartChar: Yacute
Encoding: 221 221 294
Width: 520
GlyphClass: 2
Flags: MW
HStem: 0 21G<194 254 194 194> 665 20G<73 136 136 136 500 567 567 567>
VStem: 73 494<685 685>
AnchorPoint: "Anchor-14" 0 0 basechar 0
AnchorPoint: "Anchor-13" 0 0 basechar 0
AnchorPoint: "Anchor-12" 340 888 basechar 0
AnchorPoint: "Anchor-11" 0 0 basechar 0
AnchorPoint: "Anchor-10" 224 0 basechar 0
LayerCount: 2
Back
Fore
SplineSet
428 888 m 1
 448 836 l 1
 240 758 l 1
 229 792 l 1
 428 888 l 1
567 685 m 1
 292 268 l 1
 254 0 l 1
 194 0 l 1
 232 267 l 1
 73 685 l 1
 136 685 l 1
 267 322 l 1
 500 685 l 1
 567 685 l 1
EndSplineSet
Substitution2: "'c2sc' Capitals to Small Capitals lookup 27 subtable" yacute.sc
Substitution2: "'aalt' Access All Alternates lookup 0 subtable" yacute.sc
Position2: "'cpsp' Capital Spacing lookup 0 subtable" dx=5 dy=0 dh=10 dv=0
EndChar
StartChar: Thorn
Encoding: 222 222 215
Width: 567
GlyphClass: 2
Flags: MW
HStem: 0 21G<74 133 74 74> 136 50<159 252 152 256> 513 50<212 308 205 311> 513 172<205 229 170 308 205 205>
VStem: 477 62<335 433>
LayerCount: 2
Back
Fore
SplineSet
311 563 m 2xe8
 455 563 539 510 539 385 c 0
 539 269 475 136 252 136 c 2
 152 136 l 1
 133 0 l 1
 74 0 l 1
 170 685 l 1
 229 685 l 1xd8
 212 563 l 1
 311 563 l 2xe8
256 186 m 2
 427 186 477 286 477 384 c 0
 477 482 415 513 308 513 c 2
 205 513 l 1
 159 186 l 1
 256 186 l 2
EndSplineSet
Substitution2: "'c2sc' Capitals to Small Capitals lookup 27 subtable" thorn.sc
Substitution2: "'aalt' Access All Alternates lookup 0 subtable" thorn.sc
Position2: "'cpsp' Capital Spacing lookup 0 subtable" dx=5 dy=0 dh=10 dv=0
EndChar
StartChar: germandbls
Encoding: 223 223 629
Width: 579
GlyphClass: 2
Flags: MW
HStem: -204 21G<-41 -41> -11 49<309 375.5 309 395> 696 47<316.5 383.5>
VStem: 306 55<378 453.5 378 463> 448 56<567 646> 459 58<143 234>
LayerCount: 2
Back
Fore
SplineSet
361 416 m 0xf4
 361 340 517 324 517 169 c 0
 517 93 461 -11 329 -11 c 0
 283 -11 241 4 217 17 c 1
 239 58 l 1
 265 46 292 38 326 38 c 0
 425 38 459 118 459 168 c 0xf4
 459 300 306 312 306 410 c 0
 306 516 448 512 448 622 c 0
 448 670 411 696 356 696 c 0
 277 696 216 645 201 536 c 2
 128 17 l 2
 108 -123 59 -159 -41 -204 c 1
 -58 -159 l 1
 15 -125 54 -97 71 19 c 2
 144 542 l 2
 162 673 245 743 356 743 c 0
 448 743 504 693 504 624 c 0xf8
 504 498 361 491 361 416 c 0xf4
EndSplineSet
Substitution2: "'smcp' Lowercase to Small Capitals lookup 28 subtable" germandbls.sc
Substitution2: "'aalt' Access All Alternates lookup 0 subtable" germandbls.sc
EndChar
StartChar: acircumflex
Encoding: 226 226 344
Width: 559
GlyphClass: 2
Flags: MW
HStem: -11 48<196.5 255.5> 487 47<251.5 350>
VStem: 58 61<141 252.5 141 262.5> 384 53<84 84>
AnchorPoint: "Anchor-14" 0 0 basechar 0
AnchorPoint: "Anchor-13" 0 0 basechar 0
AnchorPoint: "Anchor-12" 370 779 basechar 0
AnchorPoint: "Anchor-11" 462 -11 basechar 0
AnchorPoint: "Anchor-10" 271 0 basechar 0
LayerCount: 2
Back
Fore
SplineSet
234 643 m 1
 209 674 l 1
 353 779 l 1
 388 779 l 1
 502 674 l 1
 474 643 l 1
 365 728 l 1
 234 643 l 1
327 534 m 0
 395 534 442 519 496 491 c 1
 440 114 l 2
 438 102 437 91 437 83 c 0
 437 50 449 39 470 30 c 1
 454 -11 l 1
 410 -2 383 20 384 84 c 1
 344 27 289 -11 222 -11 c 0
 117 -11 58 67 58 192 c 0
 58 333 130 534 327 534 c 0
328 487 m 0
 175 487 119 313 119 192 c 0
 119 90 160 37 233 37 c 0
 297 37 345 80 388 148 c 1
 435 463 l 1
 405 478 372 487 328 487 c 0
EndSplineSet
Substitution2: "'smcp' Lowercase to Small Capitals lookup 28 subtable" acircumflex.sc
Substitution2: "'aalt' Access All Alternates lookup 0 subtable" acircumflex.sc
EndChar
StartChar: atilde
Encoding: 227 227 366
Width: 559
GlyphClass: 2
Flags: MW
HStem: -11 48<196.5 255.5> 487 47<251.5 350> 666 47<401.5 431 401.5 437.5> 672 20G<212 212> 712 46<295 326> 716 20G<517 517>
VStem: 58 61<141 252.5 141 262.5> 384 53<84 84>
AnchorPoint: "Anchor-14" 0 0 basechar 0
AnchorPoint: "Anchor-13" 0 0 basechar 0
AnchorPoint: "Anchor-12" 367 759 basechar 0
AnchorPoint: "Anchor-11" 462 -11 basechar 0
AnchorPoint: "Anchor-10" 271 0 basechar 0
LayerCount: 2
Back
Fore
SplineSet
421 666 m 0xe2
 366 666 344 712 308 712 c 0xda
 282 712 267 698 245 670 c 1xd6
 212 692 l 1
 239 732 271 758 309 758 c 0xda
 359 758 383 713 420 713 c 0
 442 713 460 727 483 758 c 1xe2
 517 736 l 1xd6
 486 687 454 666 421 666 c 0xe2
327 534 m 0xd7
 395 534 442 519 496 491 c 1
 440 114 l 2
 438 102 437 91 437 83 c 0
 437 50 449 39 470 30 c 1
 454 -11 l 1
 410 -2 383 20 384 84 c 1
 344 27 289 -11 222 -11 c 0
 117 -11 58 67 58 192 c 0
 58 333 130 534 327 534 c 0xd7
328 487 m 0
 175 487 119 313 119 192 c 0
 119 90 160 37 233 37 c 0
 297 37 345 80 388 148 c 1
 435 463 l 1
 405 478 372 487 328 487 c 0
EndSplineSet
Substitution2: "'smcp' Lowercase to Small Capitals lookup 28 subtable" atilde.sc
Substitution2: "'aalt' Access All Alternates lookup 0 subtable" atilde.sc
EndChar

StartChar: adieresis
Encoding: 228 228 138
Width: 560
GlyphClass: 2
Flags: MW
HStem: -11 48<197 256> 487 47<252 351> 663 79<249 265.5 437 454>
VStem: 58 61<141 252.5 141 262.5> 218 78 384 54<66.5 84> 406 78
AnchorPoint: "Anchor-11" 0 0 basechar 0
AnchorPoint: "Anchor-10" 0 0 basechar 0
AnchorPoint: "Anchor-9" 346 661 basechar 0
AnchorPoint: "Anchor-8" 463 -11 basechar 0
LayerCount: 2
Fore
SplineSet
260 742 m 0xfa
 284 742 299 722 296 699 c 0
 293 678 276 663 255 663 c 0
 230 663 215 682 218 706 c 0
 221 726 238 742 260 742 c 0xfa
448 742 m 0
 473 742 488 722 484 699 c 0
 481 678 465 663 443 663 c 0
 418 663 403 682 406 706 c 0
 409 726 426 742 448 742 c 0
327 534 m 0
 395 534 442 519 497 491 c 1
 440 114 l 2
 439 102 438 91 438 83 c 0
 438 50 450 39 471 30 c 1
 454 -11 l 1
 411 -2 384 20 384 84 c 1xfc
 345 27 289 -11 223 -11 c 0
 118 -11 58 67 58 192 c 0
 58 333 130 534 327 534 c 0
329 487 m 0
 175 487 119 313 119 192 c 0
 119 90 161 37 233 37 c 0
 297 37 345 80 389 148 c 1
 436 463 l 1
 405 478 373 487 329 487 c 0
EndSplineSet
Substitution2: "'smcp' Lowercase to Small Capitals lookup 24 subtable" adieresis.sc
Substitution2: "'aalt' Access All Alternates lookup 0 subtable" adieresis.sc
EndChar
StartChar: aring
Encoding: 229 229 363
Width: 559
GlyphClass: 2
Flags: MW
HStem: -11 48<196.5 255.5> 487 47<251.5 350> 633 36<343 379 343 386.5> 785 36<354.5 390>
VStem: 58 61<141 252.5 141 262.5> 268 43<702 735 702 746> 384 53<84 84> 422 43<720 752.5>
AnchorPoint: "Anchor-14" 0 0 basechar 0
AnchorPoint: "Anchor-13" 0 0 basechar 0
AnchorPoint: "Anchor-12" 379 821 basechar 0
AnchorPoint: "Anchor-11" 462 -11 basechar 0
AnchorPoint: "Anchor-10" 271 0 basechar 0
LayerCount: 2
Back
Fore
SplineSet
377 821 m 0xfd
 431 821 465 785 465 738 c 0
 465 677 417 633 356 633 c 0
 303 633 268 669 268 716 c 0
 268 776 316 821 377 821 c 0xfd
375 785 m 0
 334 785 311 753 311 717 c 0
 311 687 328 669 358 669 c 0
 400 669 422 703 422 737 c 0
 422 768 405 785 375 785 c 0
327 534 m 0
 395 534 442 519 496 491 c 1
 440 114 l 2
 438 102 437 91 437 83 c 0
 437 50 449 39 470 30 c 1
 454 -11 l 1
 410 -2 383 20 384 84 c 1xfe
 344 27 289 -11 222 -11 c 0
 117 -11 58 67 58 192 c 0
 58 333 130 534 327 534 c 0
328 487 m 0
 175 487 119 313 119 192 c 0
 119 90 160 37 233 37 c 0
 297 37 345 80 388 148 c 1
 435 463 l 1
 405 478 372 487 328 487 c 0
EndSplineSet
Substitution2: "'smcp' Lowercase to Small Capitals lookup 28 subtable" aring.sc
Substitution2: "'aalt' Access All Alternates lookup 0 subtable" aring.sc
EndChar

StartChar: ae
Encoding: 230 230 144
Width: 847
GlyphClass: 2
Flags: MW
HStem: -11 47<174 230.5> -11 50<530.5 598 530.5 600> 207 46 261 43<287 293 293 381> 486 48<595.5 674.5>
VStem: 46 62<96 164 96 170.5> 381 53 737 61<357.5 426>
AnchorPoint: "Anchor-11" 0 0 basechar 0
AnchorPoint: "Anchor-10" 0 0 basechar 0
AnchorPoint: "Anchor-9" 463 523 basechar 0
AnchorPoint: "Anchor-8" 0 0 basechar 0
LayerCount: 2
Fore
SplineSet
301 534 m 0x9f
 391 534 436 491 451 432 c 1
 480 481 550 534 641 534 c 0
 741 534 798 479 798 407 c 0
 798 273 648 224 434 207 c 1
 434 82 491 39 570 39 c 0
 626 39 668 57 717 92 c 1x7f
 744 51 l 1
 690 12 634 -11 566 -11 c 0
 483 -11 423 26 395 93 c 1
 332 15 267 -11 194 -11 c 0
 101 -11 46 44 46 125 c 0
 46 216 108 304 287 304 c 2
 389 304 l 1
 399 345 408 370 413 382 c 1
 410 443 363 485 290 485 c 0
 246 485 201 475 147 456 c 1
 134 502 l 1
 195 524 249 534 301 534 c 0x9f
641 486 m 0
 511 486 451 364 437 253 c 1xbf
 632 269 737 310 737 405 c 0
 737 447 708 486 641 486 c 0
293 261 m 2
 160 261 108 203 108 125 c 0
 108 67 144 36 204 36 c 0
 268 36 325 67 382 142 c 1
 376 172 376 228 381 261 c 1
 293 261 l 2
EndSplineSet
Substitution2: "'smcp' Lowercase to Small Capitals lookup 24 subtable" ae.sc
Substitution2: "'aalt' Access All Alternates lookup 0 subtable" ae.sc
EndChar
StartChar: ccedilla
Encoding: 231 231 383
Width: 466
GlyphClass: 2
Flags: MW
HStem: -227 42<205 236 205 252.5> -205 20 -96 32<199 250> -11 51<259 259> 485 49<243.5 342>
VStem: 59 60<143 255 143 268> 281 52
AnchorPoint: "Anchor-14" 0 0 basechar 0
AnchorPoint: "Anchor-13" 0 0 basechar 0
AnchorPoint: "Anchor-12" 323 523 basechar 0
AnchorPoint: "Anchor-11" 0 0 basechar 0
AnchorPoint: "Anchor-10" 238 -227 basechar 0
LayerCount: 2
Back
Fore
SplineSet
319 485 m 0x7e
 168 485 119 313 119 197 c 0
 119 89 170 40 251 40 c 0
 300 40 339 57 379 84 c 1
 405 43 l 1
 361 10 313 -8 259 -11 c 1
 250 -64 l 1
 307 -69 333 -95 333 -136 c 0
 333 -188 287 -227 218 -227 c 0xbe
 182 -227 157 -217 139 -205 c 1
 161 -170 l 1
 175 -179 192 -185 218 -185 c 0
 254 -185 280 -170 281 -138 c 0
 282 -108 262 -96 199 -96 c 1
 218 -9 l 1
 120 3 59 77 59 200 c 0
 59 336 128 534 319 534 c 0
 376 534 422 518 460 480 c 1
 428 444 l 1
 398 471 365 485 319 485 c 0x7e
EndSplineSet
Substitution2: "'smcp' Lowercase to Small Capitals lookup 28 subtable" ccedilla.sc
Substitution2: "'aalt' Access All Alternates lookup 0 subtable" ccedilla.sc
EndChar

StartChar: egrave
Encoding: 232 232 164
Width: 520
GlyphClass: 2
Flags: MW
HStem: -11 50<213.5 281 213.5 283> 206 46 486 48<257 356.5>
VStem: 59 60<143 200 200 206 143 272> 421 60<358 426.5>
AnchorPoint: "Anchor-11" 251 0 basechar 0
AnchorPoint: "Anchor-10" 0 0 basechar 0
AnchorPoint: "Anchor-9" 312 523 basechar 0
AnchorPoint: "Anchor-8" 350 5 basechar 0
LayerCount: 2
Fore
SplineSet
425 645 m 1
 242 730 l 1
 275 782 l 1
 447 678 l 1
 425 645 l 1
481 408 m 0
 481 274 332 223 119 206 c 1
 119 200 l 2
 119 86 174 39 253 39 c 0
 309 39 352 57 401 92 c 1
 427 51 l 1
 373 12 317 -11 249 -11 c 0
 129 -11 59 65 59 199 c 0
 59 345 135 534 322 534 c 0
 424 534 481 479 481 408 c 0
321 486 m 0
 193 486 136 363 122 252 c 1
 317 267 421 310 421 406 c 0
 421 447 392 486 321 486 c 0
EndSplineSet
Substitution2: "'smcp' Lowercase to Small Capitals lookup 24 subtable" egrave.sc
Substitution2: "'aalt' Access All Alternates lookup 0 subtable" egrave.sc
EndChar

StartChar: ecircumflex
Encoding: 234 234 161
Width: 520
GlyphClass: 2
Flags: MW
HStem: -11 50<213.5 281 213.5 283> 206 46 486 48<257 356.5>
VStem: 59 60<143 200 200 206 143 272> 421 60<358 426.5>
AnchorPoint: "Anchor-11" 251 0 basechar 0
AnchorPoint: "Anchor-10" 0 0 basechar 0
AnchorPoint: "Anchor-9" 312 523 basechar 0
AnchorPoint: "Anchor-8" 350 5 basechar 0
LayerCount: 2
Fore
SplineSet
213 643 m 1
 188 674 l 1
 332 779 l 1
 367 779 l 1
 481 674 l 1
 453 643 l 1
 344 728 l 1
 213 643 l 1
322 534 m 0
 424 534 481 479 481 408 c 0
 481 274 332 223 119 206 c 1
 119 200 l 2
 119 86 174 39 253 39 c 0
 309 39 352 57 401 92 c 1
 427 51 l 1
 373 12 317 -11 249 -11 c 0
 129 -11 59 65 59 199 c 0
 59 345 135 534 322 534 c 0
122 252 m 1
 317 267 421 310 421 406 c 0
 421 447 392 486 321 486 c 0
 193 486 136 363 122 252 c 1
EndSplineSet
Substitution2: "'smcp' Lowercase to Small Capitals lookup 24 subtable" ecircumflex.sc
Substitution2: "'aalt' Access All Alternates lookup 0 subtable" ecircumflex.sc
EndChar
StartChar: edieresis
Encoding: 235 235 421
Width: 519
GlyphClass: 2
Flags: MW
HStem: -11 50<213 281 213 282.5> 206 45 486 48<257 356> 663 79<235 251.5 423 440>
VStem: 59 60<143 200 200 206 143 272> 204 78 392 78 420 61<358.5 426.5>
AnchorPoint: "Anchor-14" 0 0 basechar 0
AnchorPoint: "Anchor-13" 0 0 basechar 0
AnchorPoint: "Anchor-12" 340 742 basechar 0
AnchorPoint: "Anchor-11" 349 5 basechar 0
AnchorPoint: "Anchor-10" 246 0 basechar 0
LayerCount: 2
Back
Fore
SplineSet
241 663 m 0xfd
 216 663 201 682 204 706 c 0
 207 726 224 742 246 742 c 0
 270 742 285 722 282 699 c 0
 279 678 262 663 241 663 c 0xfd
429 663 m 0xfe
 404 663 389 682 392 706 c 0
 395 726 412 742 434 742 c 0
 459 742 474 722 470 699 c 0
 467 678 451 663 429 663 c 0xfe
481 408 m 0xfd
 481 274 332 222 119 206 c 1
 119 200 l 2
 119 86 173 39 253 39 c 0
 309 39 351 57 400 92 c 1
 427 51 l 1
 372 12 316 -11 249 -11 c 0
 128 -11 59 65 59 199 c 0
 59 345 134 534 321 534 c 0
 423 534 481 479 481 408 c 0xfd
321 486 m 0
 193 486 136 362 122 251 c 1
 316 267 420 311 420 406 c 0
 420 447 391 486 321 486 c 0
EndSplineSet
Substitution2: "'smcp' Lowercase to Small Capitals lookup 28 subtable" edieresis.sc
Substitution2: "'aalt' Access All Alternates lookup 0 subtable" edieresis.sc
EndChar
StartChar: igrave
Encoding: 236 236 488
Width: 269
GlyphClass: 2
Flags: MW
HStem: 0 21G<69 126 69 69> 503 20G<143 200 200 200>
VStem: 69 242
AnchorPoint: "Anchor-14" 0 0 basechar 0
AnchorPoint: "Anchor-13" 0 0 basechar 0
AnchorPoint: "Anchor-12" 210 782 basechar 0
AnchorPoint: "Anchor-11" 117 0 basechar 0
AnchorPoint: "Anchor-10" 97 0 basechar 0
LayerCount: 2
Back
Fore
SplineSet
139 782 m 1
 311 678 l 1
 289 645 l 1
 106 730 l 1
 139 782 l 1
200 523 m 1
 126 0 l 1
 69 0 l 1
 143 523 l 1
 200 523 l 1
EndSplineSet
Substitution2: "'smcp' Lowercase to Small Capitals lookup 28 subtable" igrave.sc
Substitution2: "'aalt' Access All Alternates lookup 0 subtable" igrave.sc
EndChar
StartChar: iacute
Encoding: 237 237 479
Width: 269
GlyphClass: 2
Flags: MW
HStem: 0 21G<69 126 69 69> 503 20G<143 200 200 200>
VStem: 69 239
AnchorPoint: "Anchor-14" 0 0 basechar 0
AnchorPoint: "Anchor-13" 0 0 basechar 0
AnchorPoint: "Anchor-12" 200 782 basechar 0
AnchorPoint: "Anchor-11" 117 0 basechar 0
AnchorPoint: "Anchor-10" 97 0 basechar 0
LayerCount: 2
Back
Fore
SplineSet
289 782 m 1
 308 730 l 1
 102 645 l 1
 88 679 l 1
 289 782 l 1
200 523 m 1
 126 0 l 1
 69 0 l 1
 143 523 l 1
 200 523 l 1
EndSplineSet
Substitution2: "'smcp' Lowercase to Small Capitals lookup 28 subtable" iacute.sc
Substitution2: "'aalt' Access All Alternates lookup 0 subtable" iacute.sc
EndChar
StartChar: icircumflex
Encoding: 238 238 482
Width: 269
GlyphClass: 2
Flags: MW
HStem: 0 21G<69 126 69 69> 503 20G<143 200 200 200>
VStem: 43 293<674 674>
AnchorPoint: "Anchor-14" 0 0 basechar 0
AnchorPoint: "Anchor-13" 0 0 basechar 0
AnchorPoint: "Anchor-12" 204 779 basechar 0
AnchorPoint: "Anchor-11" 117 0 basechar 0
AnchorPoint: "Anchor-10" 97 0 basechar 0
LayerCount: 2
Back
Fore
SplineSet
68 643 m 1
 43 674 l 1
 187 779 l 1
 222 779 l 1
 336 674 l 1
 308 643 l 1
 199 728 l 1
 68 643 l 1
200 523 m 1
 126 0 l 1
 69 0 l 1
 143 523 l 1
 200 523 l 1
EndSplineSet
Substitution2: "'smcp' Lowercase to Small Capitals lookup 28 subtable" icircumflex.sc
Substitution2: "'aalt' Access All Alternates lookup 0 subtable" icircumflex.sc
EndChar
StartChar: eth
Encoding: 240 240 391
Width: 559
GlyphClass: 2
Flags: MW
HStem: -11 48<198 285 198 300> 421 47<223 318.5 200.5 322> 552 20G 668 20G<342 342> 678 20G<190 190> 724 20G<206 206>
VStem: 56 59<135 235.5 135 246> 438 57
AnchorPoint: "Anchor-14" 0 0 basechar 0
AnchorPoint: "Anchor-13" 0 0 basechar 0
AnchorPoint: "Anchor-12" 341 736 basechar 0
AnchorPoint: "Anchor-11" 0 0 basechar 0
AnchorPoint: "Anchor-10" 238 0 basechar 0
LayerCount: 2
Back
Fore
SplineSet
378 662 m 1xf7
 455 596 495 510 495 385 c 0
 495 351 492 315 487 276 c 0
 460 88 364 -11 236 -11 c 0
 125 -11 56 62 56 183 c 0
 56 309 117 468 284 468 c 0
 353 468 403 439 438 391 c 1
 436 498 408 567 341 629 c 1
 253 552 l 1
 213 572 l 1
 304 654 l 1
 271 673 232 690 190 698 c 1xef
 206 744 l 1
 255 733 301 716 342 688 c 1
 422 762 l 1
 454 731 l 1
 378 662 l 1xf7
237 37 m 0xef
 333 37 406 121 429 284 c 0
 432 303 433 320 434 334 c 1
 400 389 353 421 291 421 c 0
 155 421 115 289 115 182 c 0
 115 88 159 37 237 37 c 0xef
EndSplineSet
Substitution2: "'smcp' Lowercase to Small Capitals lookup 28 subtable" eth.sc
Substitution2: "'aalt' Access All Alternates lookup 0 subtable" eth.sc
EndChar
StartChar: ntilde
Encoding: 241 241 550
Width: 581
GlyphClass: 2
Flags: MW
HStem: 0 21G<69 126 69 69 386 444 386 386> 485 49<337 392> 503 20G<143 191 191 191> 666 47<392.5 422 392.5 428.5> 672 20G<203 203> 712 46<286 317> 716 20G<508 508>
VStem: 440.55 58.24
AnchorPoint: "Anchor-14" 0 0 basechar 0
AnchorPoint: "Anchor-13" 0 0 basechar 0
AnchorPoint: "Anchor-12" 358 759 basechar 0
AnchorPoint: "Anchor-11" 0 0 basechar 0
AnchorPoint: "Anchor-10" 257 0 basechar 0
LayerCount: 2
Back
Fore
SplineSet
412 666 m 0xd1
 357 666 335 712 299 712 c 0xcd
 273 712 258 698 236 670 c 1xcb
 203 692 l 1
 230 732 262 758 300 758 c 0xcd
 350 758 374 713 411 713 c 0
 433 713 451 727 474 758 c 1xd1
 508 736 l 1xcb
 477 687 445 666 412 666 c 0xd1
376 534 m 0xcb
 465 534 511 473 496 369 c 2
 444 0 l 1
 386 0 l 1
 438 367 l 2
 450 452 420 485 364 485 c 0xcb
 287 485 221 409 170 313 c 1
 126 0 l 1
 69 0 l 1
 143 523 l 1
 191 523 l 1xab
 178 393 l 1
 230 480 298 534 376 534 c 0xcb
EndSplineSet
Substitution2: "'smcp' Lowercase to Small Capitals lookup 28 subtable" ntilde.sc
Substitution2: "'aalt' Access All Alternates lookup 0 subtable" ntilde.sc
EndChar
StartChar: ograve
Encoding: 242 242 568
Width: 569
GlyphClass: 2
Flags: MW
HStem: -11 49<208 326.5 208 348> 486 48<241.5 361>
VStem: 59 60<143.5 250.5 143.5 267> 449 61<272 380.5>
AnchorPoint: "Anchor-14" 0 0 basechar 0
AnchorPoint: "Anchor-13" 501 523 basechar 0
AnchorPoint: "Anchor-12" 360 782 basechar 0
AnchorPoint: "Anchor-11" 0 0 basechar 0
AnchorPoint: "Anchor-10" 249 0 basechar 0
LayerCount: 2
Back
Fore
SplineSet
289 782 m 1
 461 678 l 1
 439 645 l 1
 256 730 l 1
 289 782 l 1
321 534 m 0
 441 534 510 457 510 324 c 0
 510 195 447 -11 249 -11 c 0
 127 -11 59 69 59 201 c 0
 59 333 124 534 321 534 c 0
319 486 m 0
 164 486 119 305 119 196 c 0
 119 91 166 38 250 38 c 0
 403 38 449 216 449 328 c 0
 449 433 403 486 319 486 c 0
EndSplineSet
Substitution2: "'smcp' Lowercase to Small Capitals lookup 28 subtable" ograve.sc
Substitution2: "'aalt' Access All Alternates lookup 0 subtable" ograve.sc
EndChar

StartChar: oacute
Encoding: 243 243 209
Width: 569
GlyphClass: 2
Flags: MW
HStem: -11 49<208 326.5 208 348> 486 48<241.5 361>
VStem: 59 60<143.5 250.5 143.5 267> 449 61<272 380.5>
AnchorPoint: "Anchor-11" 0 0 basechar 0
AnchorPoint: "Anchor-10" 0 0 basechar 0
AnchorPoint: "Anchor-9" 322 523 basechar 0
AnchorPoint: "Anchor-8" 0 0 basechar 0
LayerCount: 2
Fore
SplineSet
447 730 m 1
 241 645 l 1
 227 679 l 1
 428 782 l 1
 447 730 l 1
321 534 m 0
 441 534 510 457 510 324 c 0
 510 195 447 -11 249 -11 c 0
 127 -11 59 69 59 201 c 0
 59 333 124 534 321 534 c 0
319 486 m 0
 164 486 119 305 119 196 c 0
 119 91 166 38 250 38 c 0
 403 38 449 216 449 328 c 0
 449 433 403 486 319 486 c 0
EndSplineSet
Substitution2: "'smcp' Lowercase to Small Capitals lookup 24 subtable" oacute.sc
Substitution2: "'locl' Localized Forms in Latin lookup 7 subtable" oacute.loclPLK
AlternateSubs2: "'aalt' Access All Alternates lookup 1 subtable" oacute.loclPLK oacute.sc
EndChar
StartChar: ocircumflex
Encoding: 244 244 556
Width: 569
GlyphClass: 2
Flags: MW
HStem: -11 49<208 326.5 208 348> 486 48<241.5 361>
VStem: 59 60<143.5 250.5 143.5 267> 449 61<272 380.5>
AnchorPoint: "Anchor-14" 0 0 basechar 0
AnchorPoint: "Anchor-13" 501 523 basechar 0
AnchorPoint: "Anchor-12" 355 779 basechar 0
AnchorPoint: "Anchor-11" 0 0 basechar 0
AnchorPoint: "Anchor-10" 249 0 basechar 0
LayerCount: 2
Back
Fore
SplineSet
219 643 m 1
 194 674 l 1
 338 779 l 1
 373 779 l 1
 487 674 l 1
 459 643 l 1
 350 728 l 1
 219 643 l 1
321 534 m 0
 441 534 510 457 510 324 c 0
 510 195 447 -11 249 -11 c 0
 127 -11 59 69 59 201 c 0
 59 333 124 534 321 534 c 0
319 486 m 0
 164 486 119 305 119 196 c 0
 119 91 166 38 250 38 c 0
 403 38 449 216 449 328 c 0
 449 433 403 486 319 486 c 0
EndSplineSet
Substitution2: "'smcp' Lowercase to Small Capitals lookup 28 subtable" ocircumflex.sc
Substitution2: "'aalt' Access All Alternates lookup 0 subtable" ocircumflex.sc
EndChar
StartChar: otilde
Encoding: 245 245 588
Width: 569
GlyphClass: 2
Flags: MW
HStem: -11 49<208 326.5 208 348> 486 48<241.5 361> 666 47<385.5 415 385.5 421.5> 672 20G<196 196> 712 46<279 310> 716 20G<501 501>
VStem: 59 60<143.5 250.5 143.5 267> 449 61<272 380.5>
AnchorPoint: "Anchor-14" 0 0 basechar 0
AnchorPoint: "Anchor-13" 501 523 basechar 0
AnchorPoint: "Anchor-12" 351 759 basechar 0
AnchorPoint: "Anchor-11" 0 0 basechar 0
AnchorPoint: "Anchor-10" 249 0 basechar 0
LayerCount: 2
Back
Fore
SplineSet
405 666 m 0xe3
 350 666 328 712 292 712 c 0xdb
 266 712 251 698 229 670 c 1xd7
 196 692 l 1
 223 732 255 758 293 758 c 0xdb
 343 758 367 713 404 713 c 0
 426 713 444 727 467 758 c 1xe3
 501 736 l 1xd7
 470 687 438 666 405 666 c 0xe3
321 534 m 0xd7
 441 534 510 457 510 324 c 0
 510 195 447 -11 249 -11 c 0
 127 -11 59 69 59 201 c 0
 59 333 124 534 321 534 c 0xd7
319 486 m 0
 164 486 119 305 119 196 c 0
 119 91 166 38 250 38 c 0
 403 38 449 216 449 328 c 0
 449 433 403 486 319 486 c 0
EndSplineSet
Substitution2: "'smcp' Lowercase to Small Capitals lookup 28 subtable" otilde.sc
Substitution2: "'aalt' Access All Alternates lookup 0 subtable" otilde.sc
EndChar

StartChar: odieresis
Encoding: 246 246 212
Width: 569
GlyphClass: 2
Flags: MW
HStem: -11 49<208 326.5 208 348> 486 48<241.5 361> 663 79<238 254.5 426 443>
VStem: 59 60<143.5 250.5 143.5 267> 207 78 395 78 449 61<272 380.5>
AnchorPoint: "Anchor-11" 0 0 basechar 0
AnchorPoint: "Anchor-10" 0 0 basechar 0
AnchorPoint: "Anchor-9" 335 661 basechar 0
AnchorPoint: "Anchor-8" 0 0 basechar 0
LayerCount: 2
Fore
SplineSet
249 742 m 0xfa
 273 742 288 722 285 699 c 0
 282 678 265 663 244 663 c 0
 219 663 204 682 207 706 c 0
 210 726 227 742 249 742 c 0xfa
437 742 m 0xfc
 462 742 477 722 473 699 c 0
 470 678 454 663 432 663 c 0
 407 663 392 682 395 706 c 0
 398 726 415 742 437 742 c 0xfc
321 534 m 0xfa
 441 534 510 457 510 324 c 0
 510 195 447 -11 249 -11 c 0
 127 -11 59 69 59 201 c 0
 59 333 124 534 321 534 c 0xfa
319 486 m 0
 164 486 119 305 119 196 c 0
 119 91 166 38 250 38 c 0
 403 38 449 216 449 328 c 0
 449 433 403 486 319 486 c 0
EndSplineSet
Substitution2: "'smcp' Lowercase to Small Capitals lookup 24 subtable" odieresis.sc
Substitution2: "'aalt' Access All Alternates lookup 0 subtable" odieresis.sc
EndChar

StartChar: divide
Encoding: 247 247 1091
Width: 491
Flags: MW
HStem: 65 95<209.5 230.5> 306 51<82 428 75 435> 503 95<270.5 292>
VStem: 173 94<102 123> 234 95<539.5 561>
LayerCount: 2
Fore
SplineSet
285 598 m 0x68
 312 598 329 579 329 554 c 0
 329 525 307 503 277 503 c 0
 251 503 234 522 234 546 c 0
 234 576 256 598 285 598 c 0x68
82 357 m 1
 435 357 l 1
 428 306 l 1
 75 306 l 1
 82 357 l 1
224 160 m 0xf0
 251 160 267 141 267 116 c 0
 267 88 245 65 216 65 c 0
 190 65 173 84 173 108 c 0
 173 138 195 160 224 160 c 0xf0
EndSplineSet
Substitution2: "'onum' Oldstyle Figures lookup 22 subtable" divide.osf
Substitution2: "'tnum' Tabular Numbers lookup 21 subtable" divide.tf
AlternateSubs2: "'aalt' Access All Alternates lookup 1 subtable" divide.tf divide.osf
EndChar
StartChar: oslash
Encoding: 248 248 586
Width: 569
GlyphClass: 2
Flags: MW
HStem: -11 49<241.5 326.5 241.5 348> -2 21G<186 186> 486 48<241.5 328> 505 20G<384 384>
VStem: 59 60<163 250.5 163 267> 449 61<272 360.5>
AnchorPoint: "Anchor-14" 0 0 basechar 0
AnchorPoint: "Anchor-13" 0 0 basechar 0
AnchorPoint: "Anchor-12" 322 523 basechar 0
AnchorPoint: "Anchor-11" 0 0 basechar 0
AnchorPoint: "Anchor-10" 250 0 basechar 0
LayerCount: 2
Back
Fore
SplineSet
128 -125 m 1xac
 81 -111 l 1
 142 17 l 1
 88 51 59 115 59 201 c 0
 59 333 124 534 321 534 c 0xac
 344 534 365 531 384 525 c 1
 441 648 l 1
 488 634 l 1
 428 506 l 1
 481 472 510 410 510 324 c 0
 510 195 447 -11 249 -11 c 0x9c
 226 -11 205 -8 186 -2 c 1x6c
 128 -125 l 1xac
170 62 m 1
 367 479 l 1
 353 484 337 486 319 486 c 0
 164 486 119 305 119 196 c 0
 119 130 137 86 170 62 c 1
250 38 m 0
 403 38 449 216 449 328 c 0
 449 393 432 437 401 461 c 1
 204 45 l 1
 217 40 233 38 250 38 c 0
EndSplineSet
Substitution2: "'smcp' Lowercase to Small Capitals lookup 28 subtable" oslash.sc
Substitution2: "'aalt' Access All Alternates lookup 0 subtable" oslash.sc
EndChar

StartChar: udieresis
Encoding: 252 252 243
Width: 577
GlyphClass: 2
Flags: MW
HStem: -11 48<188.5 249> 0 21G<386 434 386 386> 503 20G<138 195 195 195 450 508 508 508> 663 79<240 256.5 428 445>
VStem: 82.52 57.83 209 78 397 78
AnchorPoint: "Anchor-11" 0 0 basechar 0
AnchorPoint: "Anchor-10" 0 0 basechar 0
AnchorPoint: "Anchor-9" 337 661 basechar 0
AnchorPoint: "Anchor-8" 444 0 basechar 0
LayerCount: 2
Fore
SplineSet
251 742 m 0xbe
 275 742 290 722 287 699 c 0
 284 678 267 663 246 663 c 0
 221 663 206 682 209 706 c 0
 212 726 229 742 251 742 c 0xbe
439 742 m 0
 464 742 479 722 475 699 c 0
 472 678 456 663 434 663 c 0
 409 663 394 682 397 706 c 0
 400 726 417 742 439 742 c 0
434 0 m 1x7e
 386 0 l 1x7e
 400 133 l 1
 355 49 291 -11 207 -11 c 0
 117 -11 71 48 85 151 c 2
 138 523 l 1
 195 523 l 1
 143 153 l 2
 131 70 159 37 218 37 c 0xbe
 296 37 359 112 406 203 c 1
 450 523 l 1
 508 523 l 1
 434 0 l 1x7e
EndSplineSet
Substitution2: "'smcp' Lowercase to Small Capitals lookup 24 subtable" udieresis.sc
Substitution2: "'aalt' Access All Alternates lookup 0 subtable" udieresis.sc
EndChar

StartChar: ydieresis
Encoding: 255 255 260
Width: 465
GlyphClass: 2
Flags: MW
HStem: -204 21G<-5 -5> 1 21G<180 180> 503 20G<52 113 113 113 426 487 487 487> 663 79<181 197.5 369 386>
VStem: 150 78 338 78
AnchorPoint: "Anchor-11" 0 0 basechar 0
AnchorPoint: "Anchor-10" 0 0 basechar 0
AnchorPoint: "Anchor-9" 278 661 basechar 0
AnchorPoint: "Anchor-8" 0 0 basechar 0
LayerCount: 2
Fore
SplineSet
192 742 m 0
 216 742 231 722 228 699 c 0
 225 678 208 663 187 663 c 0
 162 663 147 682 150 706 c 0
 153 726 170 742 192 742 c 0
380 742 m 0
 405 742 420 722 416 699 c 0
 413 678 397 663 375 663 c 0
 350 663 335 682 338 706 c 0
 341 726 358 742 380 742 c 0
238 -4 m 2
 184 -118 125 -179 -5 -204 c 1
 -8 -159 l 1
 101 -133 133 -90 180 1 c 1
 159 0 l 1
 52 523 l 1
 113 523 l 1
 203 44 l 1
 426 523 l 1
 487 523 l 1
 238 -4 l 2
EndSplineSet
Substitution2: "'smcp' Lowercase to Small Capitals lookup 24 subtable" ydieresis.sc
Substitution2: "'aalt' Access All Alternates lookup 0 subtable" ydieresis.sc
EndChar
StartChar: amacron
Encoding: 257 257 361
Width: 559
GlyphClass: 2
Flags: MW
HStem: -11 48<196.5 255.5> 487 47<251.5 350> 676 47<246 479 239 486>
VStem: 58 61<141 252.5 141 262.5> 384 53<84 84>
AnchorPoint: "Anchor-14" 0 0 basechar 0
AnchorPoint: "Anchor-13" 0 0 basechar 0
AnchorPoint: "Anchor-12" 365 723 basechar 0
AnchorPoint: "Anchor-11" 462 -11 basechar 0
AnchorPoint: "Anchor-10" 271 0 basechar 0
LayerCount: 2
Back
Fore
SplineSet
479 676 m 1
 239 676 l 1
 246 723 l 1
 486 723 l 1
 479 676 l 1
327 534 m 0
 395 534 442 519 496 491 c 1
 440 114 l 2
 438 102 437 91 437 83 c 0
 437 50 449 39 470 30 c 1
 454 -11 l 1
 410 -2 383 20 384 84 c 1
 344 27 289 -11 222 -11 c 0
 117 -11 58 67 58 192 c 0
 58 333 130 534 327 534 c 0
328 487 m 0
 175 487 119 313 119 192 c 0
 119 90 160 37 233 37 c 0
 297 37 345 80 388 148 c 1
 435 463 l 1
 405 478 372 487 328 487 c 0
EndSplineSet
Substitution2: "'smcp' Lowercase to Small Capitals lookup 28 subtable" amacron.sc
Substitution2: "'aalt' Access All Alternates lookup 0 subtable" amacron.sc
EndChar

StartChar: Abreve
Encoding: 258 258 3
Width: 562
GlyphClass: 2
Flags: MW
HStem: 0 21G<-21 40 -21 -21 447 447 447 509> 187 51<150 405 150 414 126 405> 636 49<334 334> 765 47<326 373 326 381.5>
VStem: -21 530<0 0>
AnchorPoint: "Anchor-11" 0 0 basechar 0
AnchorPoint: "Anchor-10" 174 523 basechar 0
AnchorPoint: "Anchor-9" 341 685 basechar 0
AnchorPoint: "Anchor-8" 501 0 basechar 0
LayerCount: 2
Fore
SplineSet
348 765 m 0
 278 765 231 809 230 867 c 1
 269 872 l 1
 277 836 303 812 349 812 c 0
 397 812 432 838 450 875 c 1
 489 863 l 1
 473 806 415 765 348 765 c 0
414 187 m 1
 126 187 l 1
 40 0 l 1
 -21 0 l 1
 303 685 l 1
 378 685 l 1
 509 0 l 1
 447 0 l 1
 414 187 l 1
405 238 m 1
 334 636 l 1
 150 238 l 1
 405 238 l 1
EndSplineSet
Substitution2: "'c2sc' Capitals to Small Capitals lookup 23 subtable" abreve.sc
Substitution2: "'aalt' Access All Alternates lookup 0 subtable" abreve.sc
Position2: "'cpsp' Capital Spacing lookup 0 subtable" dx=5 dy=0 dh=10 dv=0
EndChar

StartChar: abreve
Encoding: 259 259 136
Width: 560
GlyphClass: 2
Flags: MW
HStem: -11 48<197 256> 487 47<252 351> 653 47<331 378 331 386.5>
VStem: 58 61<141 252.5 141 262.5> 237 41<731.5 771> 384 54<66.5 84>
AnchorPoint: "Anchor-11" 0 0 basechar 0
AnchorPoint: "Anchor-10" 0 0 basechar 0
AnchorPoint: "Anchor-9" 333 523 basechar 0
AnchorPoint: "Anchor-8" 463 -11 basechar 0
LayerCount: 2
Fore
SplineSet
353 653 m 0
 283 653 237 698 237 765 c 1
 278 771 l 1
 284 724 308 700 354 700 c 0
 402 700 439 727 458 773 c 1
 496 761 l 1
 479 694 420 653 353 653 c 0
327 534 m 0
 395 534 442 519 497 491 c 1
 440 114 l 2
 439 102 438 91 438 83 c 0
 438 50 450 39 471 30 c 1
 454 -11 l 1
 411 -2 384 20 384 84 c 1
 345 27 289 -11 223 -11 c 0
 118 -11 58 67 58 192 c 0
 58 333 130 534 327 534 c 0
329 487 m 0
 175 487 119 313 119 192 c 0
 119 90 161 37 233 37 c 0
 297 37 345 80 389 148 c 1
 436 463 l 1
 405 478 373 487 329 487 c 0
EndSplineSet
Substitution2: "'smcp' Lowercase to Small Capitals lookup 24 subtable" abreve.sc
Substitution2: "'aalt' Access All Alternates lookup 0 subtable" abreve.sc
EndChar

StartChar: Aogonek
Encoding: 260 260 8
Width: 562
GlyphClass: 2
Flags: MW
HStem: -217 48<388 409.5> 0 21G<-21 40 -21 -21 492 509 492 492> 187 51<150 405 150 414 126 405> 636 49<334 334>
VStem: 298 54<-138 -105>
AnchorPoint: "Anchor-11" 0 0 basechar 0
AnchorPoint: "Anchor-10" 174 523 basechar 0
AnchorPoint: "Anchor-9" 341 685 basechar 0
AnchorPoint: "Anchor-8" 501 0 basechar 0
LayerCount: 2
Fore
SplineSet
492 0 m 1
 391 -43 352 -79 352 -124 c 0
 352 -152 369 -169 407 -169 c 0
 428 -169 443 -167 466 -162 c 1
 456 -211 l 1
 436 -215 420 -217 399 -217 c 0
 332 -217 298 -182 298 -136 c 0
 298 -74 337 -28 445 13 c 1
 414 187 l 1
 126 187 l 1
 40 0 l 1
 -21 0 l 1
 303 685 l 1
 378 685 l 1
 509 0 l 1
 492 0 l 1
405 238 m 1
 334 636 l 1
 150 238 l 1
 405 238 l 1
EndSplineSet
Substitution2: "'c2sc' Capitals to Small Capitals lookup 23 subtable" aogonek.sc
Substitution2: "'aalt' Access All Alternates lookup 0 subtable" aogonek.sc
Position2: "'cpsp' Capital Spacing lookup 0 subtable" dx=5 dy=0 dh=10 dv=0
EndChar
StartChar: aogonek
Encoding: 261 261 362
Width: 559
GlyphClass: 2
Flags: MW
HStem: -228 48<349 370.5> -11 48<196.5 255.5> 487 47<251.5 350>
VStem: 58 61<141 252.5 141 262.5> 259 54<-149 -115.5> 384 53<84 84>
AnchorPoint: "Anchor-14" 0 0 basechar 0
AnchorPoint: "Anchor-13" 0 0 basechar 0
AnchorPoint: "Anchor-12" 337 523 basechar 0
AnchorPoint: "Anchor-11" 462 -11 basechar 0
AnchorPoint: "Anchor-10" 271 0 basechar 0
LayerCount: 2
Back
Fore
SplineSet
437 83 m 0
 437 50 449 39 470 30 c 1
 454 -11 l 1
 453 -11 l 1
 352 -54 313 -90 313 -135 c 0
 313 -163 330 -180 368 -180 c 0
 389 -180 404 -178 427 -173 c 1
 417 -222 l 1
 397 -226 381 -228 360 -228 c 0
 293 -228 259 -193 259 -147 c 0
 259 -84 300 -36 414 5 c 1
 394 19 383 43 384 84 c 1
 344 27 289 -11 222 -11 c 0
 117 -11 58 67 58 192 c 0
 58 333 130 534 327 534 c 0
 395 534 442 519 496 491 c 1
 440 114 l 2
 438 102 437 91 437 83 c 0
388 148 m 1
 435 463 l 1
 405 478 372 487 328 487 c 0
 175 487 119 313 119 192 c 0
 119 90 160 37 233 37 c 0
 297 37 345 80 388 148 c 1
EndSplineSet
Substitution2: "'smcp' Lowercase to Small Capitals lookup 28 subtable" aogonek.sc
Substitution2: "'aalt' Access All Alternates lookup 0 subtable" aogonek.sc
EndChar

StartChar: cacute
Encoding: 263 263 148
Width: 467
GlyphClass: 2
Flags: MW
HStem: -11 51<211.5 276 211.5 278> 485 49<245 343.5>
VStem: 60 60<143.5 255 143.5 268>
AnchorPoint: "Anchor-11" 245 0 basechar 0
AnchorPoint: "Anchor-10" 0 0 basechar 0
AnchorPoint: "Anchor-9" 324 523 basechar 0
AnchorPoint: "Anchor-8" 0 0 basechar 0
LayerCount: 2
Fore
SplineSet
449 730 m 1
 243 645 l 1
 229 679 l 1
 430 782 l 1
 449 730 l 1
320 534 m 0
 376 534 422 518 461 480 c 1
 428 444 l 1
 399 472 366 485 321 485 c 0
 169 485 120 313 120 197 c 0
 120 90 172 40 251 40 c 0
 301 40 340 57 380 84 c 1
 405 43 l 1
 359 8 306 -11 250 -11 c 0
 131 -11 60 65 60 200 c 0
 60 336 129 534 320 534 c 0
EndSplineSet
Substitution2: "'smcp' Lowercase to Small Capitals lookup 24 subtable" cacute.sc
Substitution2: "'locl' Localized Forms in Latin lookup 7 subtable" cacute.loclPLK
AlternateSubs2: "'aalt' Access All Alternates lookup 1 subtable" cacute.loclPLK cacute.sc
EndChar
StartChar: Ccircumflex
Encoding: 264 264 46
Width: 547
GlyphClass: 2
Flags: MW
HStem: -11 53<257.5 345 257.5 346.5> 645 51<301 428>
VStem: 71 62<184.5 340 184.5 354>
AnchorPoint: "Anchor-14" 0 0 basechar 0
AnchorPoint: "Anchor-13" 510 755 basechar 0
AnchorPoint: "Anchor-12" 426 894 basechar 0
AnchorPoint: "Anchor-11" 0 0 basechar 0
AnchorPoint: "Anchor-10" 305 0 basechar 0
LayerCount: 2
Back
Fore
SplineSet
532 762 m 1
 421 842 l 1
 290 762 l 1
 265 792 l 1
 408 894 l 1
 444 894 l 1
 559 792 l 1
 532 762 l 1
399 696 m 0
 476 696 525 672 569 632 c 1
 533 595 l 1
 492 630 455 645 401 645 c 0
 201 645 133 420 133 260 c 0
 133 109 206 42 309 42 c 0
 381 42 425 69 469 101 c 1
 497 58 l 1
 450 20 388 -11 305 -11 c 0
 167 -11 71 84 71 263 c 0
 71 445 161 696 399 696 c 0
EndSplineSet
Substitution2: "'c2sc' Capitals to Small Capitals lookup 27 subtable" ccircumflex.sc
Substitution2: "'aalt' Access All Alternates lookup 0 subtable" ccircumflex.sc
Position2: "'cpsp' Capital Spacing lookup 0 subtable" dx=5 dy=0 dh=10 dv=0
EndChar

StartChar: ccircumflex
Encoding: 265 265 151
Width: 467
GlyphClass: 2
Flags: MW
HStem: -11 51<211.5 276 211.5 278> 485 49<245 343.5>
VStem: 60 60<143.5 255 143.5 268>
AnchorPoint: "Anchor-11" 245 0 basechar 0
AnchorPoint: "Anchor-10" 0 0 basechar 0
AnchorPoint: "Anchor-9" 324 523 basechar 0
AnchorPoint: "Anchor-8" 0 0 basechar 0
LayerCount: 2
Fore
SplineSet
199 674 m 1
 343 779 l 1
 378 779 l 1
 492 674 l 1
 464 643 l 1
 355 728 l 1
 224 643 l 1
 199 674 l 1
320 534 m 0
 376 534 422 518 461 480 c 1
 428 444 l 1
 399 472 366 485 321 485 c 0
 169 485 120 313 120 197 c 0
 120 90 172 40 251 40 c 0
 301 40 340 57 380 84 c 1
 405 43 l 1
 359 8 306 -11 250 -11 c 0
 131 -11 60 65 60 200 c 0
 60 336 129 534 320 534 c 0
EndSplineSet
Substitution2: "'smcp' Lowercase to Small Capitals lookup 24 subtable" ccircumflex.sc
Substitution2: "'aalt' Access All Alternates lookup 0 subtable" ccircumflex.sc
EndChar
StartChar: Cdotaccent
Encoding: 266 266 47
Width: 547
GlyphClass: 2
Flags: MW
HStem: -11 53<257.5 345 257.5 346.5> 645 51<301 428> 795 84<415 433.5>
VStem: 71 62<184.5 340 184.5 354> 382 84
AnchorPoint: "Anchor-14" 0 0 basechar 0
AnchorPoint: "Anchor-13" 0 0 basechar 0
AnchorPoint: "Anchor-12" 427 879 basechar 0
AnchorPoint: "Anchor-11" 0 0 basechar 0
AnchorPoint: "Anchor-10" 305 0 basechar 0
LayerCount: 2
Back
Fore
SplineSet
427 879 m 0
 455 879 470 859 466 834 c 0
 463 812 446 795 421 795 c 0
 394 795 378 815 382 840 c 0
 385 863 403 879 427 879 c 0
399 696 m 0
 476 696 525 672 569 632 c 1
 533 595 l 1
 492 630 455 645 401 645 c 0
 201 645 133 420 133 260 c 0
 133 109 206 42 309 42 c 0
 381 42 425 69 469 101 c 1
 497 58 l 1
 450 20 388 -11 305 -11 c 0
 167 -11 71 84 71 263 c 0
 71 445 161 696 399 696 c 0
EndSplineSet
Substitution2: "'c2sc' Capitals to Small Capitals lookup 27 subtable" cdotaccent.sc
Substitution2: "'aalt' Access All Alternates lookup 0 subtable" cdotaccent.sc
Position2: "'cpsp' Capital Spacing lookup 0 subtable" dx=5 dy=0 dh=10 dv=0
EndChar
StartChar: cdotaccent
Encoding: 267 267 386
Width: 466
GlyphClass: 2
Flags: MW
HStem: -11 51<210.5 275.5 210.5 276.5> 485 49<243.5 342> 669 84<341 359.5>
VStem: 59 60<143 255 143 268> 308 84
AnchorPoint: "Anchor-14" 0 0 basechar 0
AnchorPoint: "Anchor-13" 0 0 basechar 0
AnchorPoint: "Anchor-12" 355 753 basechar 0
AnchorPoint: "Anchor-11" 0 0 basechar 0
AnchorPoint: "Anchor-10" 245 0 basechar 0
LayerCount: 2
Back
Fore
SplineSet
353 753 m 0
 381 753 396 733 392 708 c 0
 389 686 372 669 347 669 c 0
 320 669 304 689 308 714 c 0
 311 737 329 753 353 753 c 0
319 534 m 0
 376 534 422 518 460 480 c 1
 428 444 l 1
 398 471 365 485 319 485 c 0
 168 485 119 313 119 197 c 0
 119 89 170 40 251 40 c 0
 300 40 339 57 379 84 c 1
 405 43 l 1
 358 8 306 -11 247 -11 c 0
 132 -11 59 65 59 200 c 0
 59 336 128 534 319 534 c 0
EndSplineSet
Substitution2: "'smcp' Lowercase to Small Capitals lookup 28 subtable" cdotaccent.sc
Substitution2: "'aalt' Access All Alternates lookup 0 subtable" cdotaccent.sc
EndChar
StartChar: Ccaron
Encoding: 268 268 44
Width: 547
GlyphClass: 2
Flags: MW
HStem: -11 53<257.5 345 257.5 346.5> 645 51<301 428>
VStem: 71 62<184.5 340 184.5 354>
AnchorPoint: "Anchor-14" 0 0 basechar 0
AnchorPoint: "Anchor-13" 0 0 basechar 0
AnchorPoint: "Anchor-12" 424 888 basechar 0
AnchorPoint: "Anchor-11" 0 0 basechar 0
AnchorPoint: "Anchor-10" 305 0 basechar 0
LayerCount: 2
Back
Fore
SplineSet
545 888 m 1
 568 857 l 1
 426 756 l 1
 391 756 l 1
 275 857 l 1
 303 887 l 1
 413 808 l 1
 545 888 l 1
399 696 m 0
 476 696 525 672 569 632 c 1
 533 595 l 1
 492 630 455 645 401 645 c 0
 201 645 133 420 133 260 c 0
 133 109 206 42 309 42 c 0
 381 42 425 69 469 101 c 1
 497 58 l 1
 450 20 388 -11 305 -11 c 0
 167 -11 71 84 71 263 c 0
 71 445 161 696 399 696 c 0
EndSplineSet
Substitution2: "'c2sc' Capitals to Small Capitals lookup 27 subtable" ccaron.sc
Substitution2: "'aalt' Access All Alternates lookup 0 subtable" ccaron.sc
Position2: "'cpsp' Capital Spacing lookup 0 subtable" dx=5 dy=0 dh=10 dv=0
EndChar

StartChar: ccaron
Encoding: 269 269 149
Width: 467
GlyphClass: 2
Flags: MW
HStem: -11 51<211.5 276 211.5 278> 485 49<245 343.5> 635 52<347 347 347 360 324 347> 667 20G<347 347> 721 20G<210 210 503 503>
VStem: 60 60<143.5 255 143.5 268>
AnchorPoint: "Anchor-11" 245 0 basechar 0
AnchorPoint: "Anchor-10" 0 0 basechar 0
AnchorPoint: "Anchor-9" 324 523 basechar 0
AnchorPoint: "Anchor-8" 0 0 basechar 0
LayerCount: 2
Fore
SplineSet
503 741 m 1xdc
 360 635 l 1
 324 635 l 1xec
 210 741 l 1
 237 771 l 1
 347 687 l 1
 480 771 l 1
 503 741 l 1xdc
320 534 m 0
 376 534 422 518 461 480 c 1
 428 444 l 1
 399 472 366 485 321 485 c 0
 169 485 120 313 120 197 c 0
 120 90 172 40 251 40 c 0
 301 40 340 57 380 84 c 1
 405 43 l 1
 359 8 306 -11 250 -11 c 0
 131 -11 60 65 60 200 c 0
 60 336 129 534 320 534 c 0
EndSplineSet
Substitution2: "'smcp' Lowercase to Small Capitals lookup 24 subtable" ccaron.sc
Substitution2: "'aalt' Access All Alternates lookup 0 subtable" ccaron.sc
EndChar

StartChar: dcaron
Encoding: 271 271 155
Width: 604
GlyphClass: 2
Flags: MW
HStem: -11 48<195 260.5> 0 21G<386 436 386 386> 486 48<239.5 339.5 213 343.5> 722 20G<619 619> 736 7
VStem: 59 61<141 250.5 141 263>
LayerCount: 2
Fore
SplineSet
540 736 m 1xac
 436 0 l 1
 386 0 l 1x6c
 393 106 l 1
 356 42 301 -11 220 -11 c 0
 119 -11 59 67 59 195 c 0
 59 331 122 534 304 534 c 0
 375 534 418 499 443 462 c 1
 483 743 l 1
 540 736 l 1xac
674 736 m 1
 614 572 l 1
 579 577 l 1
 619 742 l 1xb4
 674 736 l 1
312 486 m 0
 167 486 120 309 120 192 c 0
 120 90 161 37 229 37 c 0
 306 37 354 96 404 181 c 1
 436 409 l 1
 411 453 375 486 312 486 c 0
EndSplineSet
Substitution2: "'smcp' Lowercase to Small Capitals lookup 24 subtable" dcaron.sc
Substitution2: "'aalt' Access All Alternates lookup 0 subtable" dcaron.sc
EndChar

StartChar: dcroat
Encoding: 273 273 156
Width: 590
GlyphClass: 2
Flags: MW
HStem: -11 48<200 265.5> 0 21G<391 441 391 391> 486 48<244.5 344.5 218 348.5> 616 47<309 470 309 477 535 603> 723 20G<488 488> 736 7
VStem: 64 61<141 250.5 141 263>
LayerCount: 2
Fore
SplineSet
603 616 m 1xba
 528 616 l 1
 441 0 l 1
 391 0 l 1x7a
 398 106 l 1
 361 42 306 -11 225 -11 c 0
 124 -11 64 67 64 195 c 0
 64 331 127 534 309 534 c 0
 380 534 423 499 448 462 c 1
 470 616 l 1
 309 616 l 1
 309 663 l 1
 477 663 l 1
 488 743 l 1
 545 736 l 1xb6
 535 663 l 1
 610 663 l 1
 603 616 l 1xba
441 409 m 1
 416 453 380 486 317 486 c 0
 172 486 125 309 125 192 c 0
 125 90 166 37 234 37 c 0xba
 311 37 359 96 409 181 c 1
 441 409 l 1
EndSplineSet
Substitution2: "'smcp' Lowercase to Small Capitals lookup 24 subtable" dcroat.sc
Substitution2: "'aalt' Access All Alternates lookup 0 subtable" dcroat.sc
EndChar
StartChar: emacron
Encoding: 275 275 427
Width: 519
GlyphClass: 2
Flags: MW
HStem: -11 50<213 281 213 282.5> 206 45 486 48<257 356> 676 47<220 453 213 460>
VStem: 59 60<143 200 200 206 143 272> 420 61<358.5 426.5>
AnchorPoint: "Anchor-14" 0 0 basechar 0
AnchorPoint: "Anchor-13" 0 0 basechar 0
AnchorPoint: "Anchor-12" 339 723 basechar 0
AnchorPoint: "Anchor-11" 349 5 basechar 0
AnchorPoint: "Anchor-10" 246 0 basechar 0
LayerCount: 2
Back
Fore
SplineSet
460 723 m 1
 453 676 l 1
 213 676 l 1
 220 723 l 1
 460 723 l 1
481 408 m 0
 481 274 332 222 119 206 c 1
 119 200 l 2
 119 86 173 39 253 39 c 0
 309 39 351 57 400 92 c 1
 427 51 l 1
 372 12 316 -11 249 -11 c 0
 128 -11 59 65 59 199 c 0
 59 345 134 534 321 534 c 0
 423 534 481 479 481 408 c 0
321 486 m 0
 193 486 136 362 122 251 c 1
 316 267 420 311 420 406 c 0
 420 447 391 486 321 486 c 0
EndSplineSet
Substitution2: "'smcp' Lowercase to Small Capitals lookup 28 subtable" emacron.sc
Substitution2: "'aalt' Access All Alternates lookup 0 subtable" emacron.sc
EndChar
StartChar: Ebreve
Encoding: 276 276 67
Width: 509
GlyphClass: 2
Flags: MW
HStem: 0 50<141 426> 330 50<186 422 180 428> 635 50<222 502 222 222> 765 47<335 382 335 390.5>
VStem: 74 442
AnchorPoint: "Anchor-14" 0 0 basechar 0
AnchorPoint: "Anchor-13" 0 0 basechar 0
AnchorPoint: "Anchor-12" 371 875 basechar 0
AnchorPoint: "Anchor-11" 405 0 basechar 0
AnchorPoint: "Anchor-10" 248 0 basechar 0
LayerCount: 2
Back
Fore
SplineSet
357 765 m 0
 287 765 240 809 239 867 c 1
 278 872 l 1
 286 836 312 812 358 812 c 0
 406 812 441 838 459 875 c 1
 498 863 l 1
 482 806 424 765 357 765 c 0
516 685 m 1
 502 635 l 1
 222 635 l 1
 186 380 l 1
 428 380 l 1
 422 330 l 1
 180 330 l 1
 141 50 l 1
 434 50 l 1
 426 0 l 1
 74 0 l 1
 170 685 l 1
 516 685 l 1
EndSplineSet
Substitution2: "'c2sc' Capitals to Small Capitals lookup 27 subtable" ebreve.sc
Substitution2: "'aalt' Access All Alternates lookup 0 subtable" ebreve.sc
Position2: "'cpsp' Capital Spacing lookup 0 subtable" dx=5 dy=0 dh=10 dv=0
EndChar
StartChar: ebreve
Encoding: 277 277 411
Width: 519
GlyphClass: 2
Flags: MW
HStem: -11 50<213 281 213 282.5> 206 45 486 48<257 356> 653 47<306 353 306 361.5>
VStem: 59 60<143 200 200 206 143 272> 212 41<731.5 771> 420 61<358.5 426.5>
AnchorPoint: "Anchor-14" 0 0 basechar 0
AnchorPoint: "Anchor-13" 0 0 basechar 0
AnchorPoint: "Anchor-12" 344 773 basechar 0
AnchorPoint: "Anchor-11" 349 5 basechar 0
AnchorPoint: "Anchor-10" 246 0 basechar 0
LayerCount: 2
Back
Fore
SplineSet
328 653 m 0
 258 653 212 698 212 765 c 1
 253 771 l 1
 259 724 283 700 329 700 c 0
 377 700 414 727 433 773 c 1
 471 761 l 1
 454 694 395 653 328 653 c 0
481 408 m 0
 481 274 332 222 119 206 c 1
 119 200 l 2
 119 86 173 39 253 39 c 0
 309 39 351 57 400 92 c 1
 427 51 l 1
 372 12 316 -11 249 -11 c 0
 128 -11 59 65 59 199 c 0
 59 345 134 534 321 534 c 0
 423 534 481 479 481 408 c 0
321 486 m 0
 193 486 136 362 122 251 c 1
 316 267 420 311 420 406 c 0
 420 447 391 486 321 486 c 0
EndSplineSet
Substitution2: "'smcp' Lowercase to Small Capitals lookup 28 subtable" ebreve.sc
Substitution2: "'aalt' Access All Alternates lookup 0 subtable" ebreve.sc
EndChar

StartChar: Edotaccent
Encoding: 278 278 30
Width: 509
GlyphClass: 2
Flags: MW
HStem: 0 50<141 426> 330 50<186 422 180 428> 635 50<222 502 222 222> 795 84<360 378.5>
VStem: 327 84
AnchorPoint: "Anchor-11" 248 0 basechar 0
AnchorPoint: "Anchor-10" 70 526 basechar 0
AnchorPoint: "Anchor-9" 347 685 basechar 0
AnchorPoint: "Anchor-8" 405 0 basechar 0
LayerCount: 2
Fore
SplineSet
372 879 m 0
 400 879 415 859 411 834 c 0
 408 812 391 795 366 795 c 0
 339 795 323 815 327 840 c 0
 330 863 348 879 372 879 c 0
502 635 m 1
 222 635 l 1
 186 380 l 1
 428 380 l 1
 422 330 l 1
 180 330 l 1
 141 50 l 1
 434 50 l 1
 426 0 l 1
 74 0 l 1
 170 685 l 1
 516 685 l 1
 502 635 l 1
EndSplineSet
Substitution2: "'c2sc' Capitals to Small Capitals lookup 23 subtable" edotaccent.sc
Substitution2: "'aalt' Access All Alternates lookup 0 subtable" edotaccent.sc
Position2: "'cpsp' Capital Spacing lookup 0 subtable" dx=5 dy=0 dh=10 dv=0
EndChar
StartChar: edotaccent
Encoding: 279 279 422
Width: 519
GlyphClass: 2
Flags: MW
HStem: -11 50<213 281 213 282.5> 206 45 486 48<257 356> 669 84<330 348.5>
VStem: 59 60<143 200 200 206 143 272> 297 84 420 61<358.5 426.5>
AnchorPoint: "Anchor-14" 0 0 basechar 0
AnchorPoint: "Anchor-13" 0 0 basechar 0
AnchorPoint: "Anchor-12" 344 753 basechar 0
AnchorPoint: "Anchor-11" 349 5 basechar 0
AnchorPoint: "Anchor-10" 246 0 basechar 0
LayerCount: 2
Back
Fore
SplineSet
336 669 m 0
 309 669 293 689 297 714 c 0
 300 737 318 753 342 753 c 0
 370 753 385 733 381 708 c 0
 378 686 361 669 336 669 c 0
481 408 m 0
 481 274 332 222 119 206 c 1
 119 200 l 2
 119 86 173 39 253 39 c 0
 309 39 351 57 400 92 c 1
 427 51 l 1
 372 12 316 -11 249 -11 c 0
 128 -11 59 65 59 199 c 0
 59 345 134 534 321 534 c 0
 423 534 481 479 481 408 c 0
321 486 m 0
 193 486 136 362 122 251 c 1
 316 267 420 311 420 406 c 0
 420 447 391 486 321 486 c 0
EndSplineSet
Substitution2: "'smcp' Lowercase to Small Capitals lookup 28 subtable" edotaccent.sc
Substitution2: "'aalt' Access All Alternates lookup 0 subtable" edotaccent.sc
EndChar
StartChar: Eogonek
Encoding: 280 280 84
Width: 509
GlyphClass: 2
Flags: MW
HStem: -217 48<292 313.5> 0 50<141 317 396 426 396 396> 330 50<186 422 180 428> 635 50<222 502 222 222>
VStem: 202 54<-138 -108.5>
AnchorPoint: "Anchor-14" 0 0 basechar 0
AnchorPoint: "Anchor-13" 0 0 basechar 0
AnchorPoint: "Anchor-12" 347 685 basechar 0
AnchorPoint: "Anchor-11" 405 0 basechar 0
AnchorPoint: "Anchor-10" 248 0 basechar 0
LayerCount: 2
Back
Fore
SplineSet
502 635 m 1
 222 635 l 1
 186 380 l 1
 428 380 l 1
 422 330 l 1
 180 330 l 1
 141 50 l 1
 434 50 l 1
 426 0 l 1
 396 0 l 1
 295 -43 256 -79 256 -124 c 0
 256 -152 273 -169 311 -169 c 0
 332 -169 347 -167 370 -162 c 1
 360 -211 l 1
 340 -215 324 -217 303 -217 c 0
 236 -217 202 -182 202 -136 c 0
 202 -81 233 -38 317 0 c 1
 74 0 l 1
 170 685 l 1
 516 685 l 1
 502 635 l 1
EndSplineSet
Substitution2: "'c2sc' Capitals to Small Capitals lookup 27 subtable" eogonek.sc
Substitution2: "'aalt' Access All Alternates lookup 0 subtable" eogonek.sc
Position2: "'cpsp' Capital Spacing lookup 0 subtable" dx=5 dy=0 dh=10 dv=0
EndChar
StartChar: eogonek
Encoding: 281 281 428
Width: 519
GlyphClass: 2
Flags: MW
HStem: -213 48<259 285> -206 21G<332 332> -11 50 206 45 486 48<257 356>
VStem: 59 60<143 200 200 206 143 272> 163 54<-128.5 -98> 420 61<358.5 426.5>
AnchorPoint: "Anchor-14" 0 0 basechar 0
AnchorPoint: "Anchor-13" 0 0 basechar 0
AnchorPoint: "Anchor-12" 312 523 basechar 0
AnchorPoint: "Anchor-11" 349 5 basechar 0
AnchorPoint: "Anchor-10" 246 0 basechar 0
LayerCount: 2
Back
Fore
SplineSet
481 408 m 0x7f
 481 274 332 222 119 206 c 1
 119 200 l 2
 119 86 173 39 253 39 c 0
 309 39 351 57 400 92 c 1
 427 51 l 1
 396 29 365 12 331 1 c 1
 248 -37 217 -67 217 -113 c 0
 217 -144 237 -165 281 -165 c 0
 300 -165 315 -163 338 -158 c 1xbf
 332 -206 l 1
 312 -210 296 -213 274 -213 c 0
 201 -213 163 -173 163 -121 c 0
 163 -75 191 -38 246 -11 c 1
 127 -10 59 66 59 199 c 0
 59 345 134 534 321 534 c 0
 423 534 481 479 481 408 c 0x7f
321 486 m 0
 193 486 136 362 122 251 c 1
 316 267 420 311 420 406 c 0
 420 447 391 486 321 486 c 0
EndSplineSet
Substitution2: "'smcp' Lowercase to Small Capitals lookup 28 subtable" eogonek.sc
Substitution2: "'aalt' Access All Alternates lookup 0 subtable" eogonek.sc
EndChar

StartChar: Ecaron
Encoding: 282 282 27
Width: 509
GlyphClass: 2
Flags: MW
HStem: 0 50<141 426> 330 50<186 422 180 428> 635 50<222 502 222 222>
VStem: 74 442
AnchorPoint: "Anchor-11" 248 0 basechar 0
AnchorPoint: "Anchor-10" 70 526 basechar 0
AnchorPoint: "Anchor-9" 347 685 basechar 0
AnchorPoint: "Anchor-8" 405 0 basechar 0
LayerCount: 2
Fore
SplineSet
512 857 m 1
 370 756 l 1
 335 756 l 1
 219 857 l 1
 247 887 l 1
 357 808 l 1
 489 888 l 1
 512 857 l 1
502 635 m 1
 222 635 l 1
 186 380 l 1
 428 380 l 1
 422 330 l 1
 180 330 l 1
 141 50 l 1
 434 50 l 1
 426 0 l 1
 74 0 l 1
 170 685 l 1
 516 685 l 1
 502 635 l 1
EndSplineSet
Substitution2: "'c2sc' Capitals to Small Capitals lookup 23 subtable" ecaron.sc
Substitution2: "'aalt' Access All Alternates lookup 0 subtable" ecaron.sc
Position2: "'cpsp' Capital Spacing lookup 0 subtable" dx=5 dy=0 dh=10 dv=0
EndChar
StartChar: ecaron
Encoding: 283 283 412
Width: 519
GlyphClass: 2
Flags: MW
HStem: -11 50<213 281 213 282.5> 206 45 486 48<257 356> 633 52<331 331 331 344 308 331> 719 20G<194 194 487 487>
VStem: 59 60<143 200 200 206 143 272> 420 61<358.5 426.5>
AnchorPoint: "Anchor-14" 0 0 basechar 0
AnchorPoint: "Anchor-13" 0 0 basechar 0
AnchorPoint: "Anchor-12" 343 769 basechar 0
AnchorPoint: "Anchor-11" 349 5 basechar 0
AnchorPoint: "Anchor-10" 246 0 basechar 0
LayerCount: 2
Back
Fore
SplineSet
344 633 m 1
 308 633 l 1
 194 739 l 1
 221 769 l 1
 331 685 l 1
 464 769 l 1
 487 739 l 1
 344 633 l 1
321 534 m 0
 423 534 481 479 481 408 c 0
 481 274 332 222 119 206 c 1
 119 200 l 2
 119 86 173 39 253 39 c 0
 309 39 351 57 400 92 c 1
 427 51 l 1
 372 12 316 -11 249 -11 c 0
 128 -11 59 65 59 199 c 0
 59 345 134 534 321 534 c 0
122 251 m 1
 316 267 420 311 420 406 c 0
 420 447 391 486 321 486 c 0
 193 486 136 362 122 251 c 1
EndSplineSet
Substitution2: "'smcp' Lowercase to Small Capitals lookup 28 subtable" ecaron.sc
Substitution2: "'aalt' Access All Alternates lookup 0 subtable" ecaron.sc
EndChar
StartChar: gcircumflex
Encoding: 285 285 455
Width: 567
GlyphClass: 2
Flags: MW
HStem: -207 50<176.5 245 176.5 262.5> 0 48<198.5 257> 487 47<253.5 352.5>
VStem: 59 61<150.5 200 150.5 200>
AnchorPoint: "Anchor-14" 0 0 basechar 0
AnchorPoint: "Anchor-13" 0 0 basechar 0
AnchorPoint: "Anchor-12" 355 779 basechar 0
AnchorPoint: "Anchor-11" 0 0 basechar 0
AnchorPoint: "Anchor-10" 208 -197 basechar 0
LayerCount: 2
Back
Fore
SplineSet
219 643 m 1
 194 674 l 1
 338 779 l 1
 373 779 l 1
 487 674 l 1
 459 643 l 1
 350 728 l 1
 219 643 l 1
329 534 m 0
 397 534 444 519 498 491 c 1
 427 4 l 2
 404 -154 317 -207 208 -207 c 0
 143 -207 81 -185 35 -158 c 1
 58 -114 l 1
 97 -135 146 -157 207 -157 c 0
 283 -157 353 -123 370 3 c 2
 383 90 l 1
 344 37 289 0 225 0 c 0
 120 0 59 78 59 200 c 0
 58 342 132 534 329 534 c 0
330 487 m 0
 177 487 119 322 120 200 c 0
 120 101 163 48 234 48 c 0
 298 48 349 91 392 158 c 1
 437 463 l 1
 406 478 375 487 330 487 c 0
EndSplineSet
Substitution2: "'smcp' Lowercase to Small Capitals lookup 28 subtable" gcircumflex.sc
Substitution2: "'aalt' Access All Alternates lookup 0 subtable" gcircumflex.sc
EndChar

StartChar: Gbreve
Encoding: 286 286 36
Width: 615
GlyphClass: 2
Flags: MW
HStem: -11 51<258.5 343.5 258.5 348> 319 50<366 498 366 366> 645 51<310.5 436.5> 765 47<395 442 395 450.5>
VStem: 71 62<180 343.5 180 360.5>
AnchorPoint: "Anchor-11" 301 0 basechar 0
AnchorPoint: "Anchor-10" 0 0 basechar 0
AnchorPoint: "Anchor-9" 409 685 basechar 0
AnchorPoint: "Anchor-8" 0 0 basechar 0
LayerCount: 2
Fore
SplineSet
417 765 m 0
 347 765 300 809 299 867 c 1
 338 872 l 1
 346 836 372 812 418 812 c 0
 466 812 501 838 519 875 c 1
 558 863 l 1
 542 806 484 765 417 765 c 0
406 696 m 0
 483 696 539 672 589 627 c 1
 549 591 l 1
 507 629 467 645 406 645 c 0
 215 645 133 434 133 253 c 0
 133 107 201 40 316 40 c 0
 371 40 417 52 463 77 c 1
 498 319 l 1
 366 319 l 1
 365 369 l 1
 564 369 l 1
 520 47 l 1
 456 9 386 -11 310 -11 c 0
 164 -11 71 80 71 260 c 0
 71 461 177 696 406 696 c 0
EndSplineSet
Substitution2: "'c2sc' Capitals to Small Capitals lookup 23 subtable" gbreve.sc
Substitution2: "'aalt' Access All Alternates lookup 0 subtable" gbreve.sc
Position2: "'cpsp' Capital Spacing lookup 0 subtable" dx=5 dy=0 dh=10 dv=0
EndChar
StartChar: gbreve
Encoding: 287 287 453
Width: 567
GlyphClass: 2
Flags: MW
HStem: -207 50<176.5 245 176.5 262.5> 0 48<198.5 257> 487 47<253.5 352.5> 653 47<316 363 316 371.5>
VStem: 59 61<150.5 200 150.5 200> 222 41<731.5 771>
AnchorPoint: "Anchor-14" 0 0 basechar 0
AnchorPoint: "Anchor-13" 0 0 basechar 0
AnchorPoint: "Anchor-12" 354 773 basechar 0
AnchorPoint: "Anchor-11" 0 0 basechar 0
AnchorPoint: "Anchor-10" 208 -197 basechar 0
LayerCount: 2
Back
Fore
SplineSet
338 653 m 0
 268 653 222 698 222 765 c 1
 263 771 l 1
 269 724 293 700 339 700 c 0
 387 700 424 727 443 773 c 1
 481 761 l 1
 464 694 405 653 338 653 c 0
329 534 m 0
 397 534 444 519 498 491 c 1
 427 4 l 2
 404 -154 317 -207 208 -207 c 0
 143 -207 81 -185 35 -158 c 1
 58 -114 l 1
 97 -135 146 -157 207 -157 c 0
 283 -157 353 -123 370 3 c 2
 383 90 l 1
 344 37 289 0 225 0 c 0
 120 0 59 78 59 200 c 0
 58 342 132 534 329 534 c 0
330 487 m 0
 177 487 119 322 120 200 c 0
 120 101 163 48 234 48 c 0
 298 48 349 91 392 158 c 1
 437 463 l 1
 406 478 375 487 330 487 c 0
EndSplineSet
Substitution2: "'smcp' Lowercase to Small Capitals lookup 28 subtable" gbreve.sc
Substitution2: "'aalt' Access All Alternates lookup 0 subtable" gbreve.sc
EndChar
StartChar: Gdotaccent
Encoding: 288 288 103
Width: 615
GlyphClass: 2
Flags: MW
HStem: -11 51<258.5 343.5 258.5 348> 319 50<366 498 366 366> 645 51<310.5 436.5> 795 84<422 440.5>
VStem: 71 62<180 343.5 180 360.5> 389 84
AnchorPoint: "Anchor-14" 0 0 basechar 0
AnchorPoint: "Anchor-13" 0 0 basechar 0
AnchorPoint: "Anchor-12" 434 879 basechar 0
AnchorPoint: "Anchor-11" 0 0 basechar 0
AnchorPoint: "Anchor-10" 301 0 basechar 0
LayerCount: 2
Back
Fore
SplineSet
434 879 m 0
 462 879 477 859 473 834 c 0
 470 812 453 795 428 795 c 0
 401 795 385 815 389 840 c 0
 392 863 410 879 434 879 c 0
406 696 m 0
 483 696 539 672 589 627 c 1
 549 591 l 1
 507 629 467 645 406 645 c 0
 215 645 133 434 133 253 c 0
 133 107 201 40 316 40 c 0
 371 40 417 52 463 77 c 1
 498 319 l 1
 366 319 l 1
 365 369 l 1
 564 369 l 1
 520 47 l 1
 456 9 386 -11 310 -11 c 0
 164 -11 71 80 71 260 c 0
 71 461 177 696 406 696 c 0
EndSplineSet
Substitution2: "'c2sc' Capitals to Small Capitals lookup 27 subtable" gdotaccent.sc
Substitution2: "'aalt' Access All Alternates lookup 0 subtable" gdotaccent.sc
Position2: "'cpsp' Capital Spacing lookup 0 subtable" dx=5 dy=0 dh=10 dv=0
EndChar
StartChar: gdotaccent
Encoding: 289 289 457
Width: 567
GlyphClass: 2
Flags: MW
HStem: -207 50<176.5 245 176.5 262.5> 0 48<198.5 257> 487 47<253.5 352.5> 669 84<340 358.5>
VStem: 59 61<150.5 200 150.5 200> 307 84
AnchorPoint: "Anchor-14" 0 0 basechar 0
AnchorPoint: "Anchor-13" 0 0 basechar 0
AnchorPoint: "Anchor-12" 354 753 basechar 0
AnchorPoint: "Anchor-11" 0 0 basechar 0
AnchorPoint: "Anchor-10" 208 -197 basechar 0
LayerCount: 2
Back
Fore
SplineSet
352 753 m 0
 380 753 395 733 391 708 c 0
 388 686 371 669 346 669 c 0
 319 669 303 689 307 714 c 0
 310 737 328 753 352 753 c 0
329 534 m 0
 397 534 444 519 498 491 c 1
 427 4 l 2
 404 -154 317 -207 208 -207 c 0
 143 -207 81 -185 35 -158 c 1
 58 -114 l 1
 97 -135 146 -157 207 -157 c 0
 283 -157 353 -123 370 3 c 2
 383 90 l 1
 344 37 289 0 225 0 c 0
 120 0 59 78 59 200 c 0
 58 342 132 534 329 534 c 0
330 487 m 0
 177 487 119 322 120 200 c 0
 120 101 163 48 234 48 c 0
 298 48 349 91 392 158 c 1
 437 463 l 1
 406 478 375 487 330 487 c 0
EndSplineSet
Substitution2: "'smcp' Lowercase to Small Capitals lookup 28 subtable" gdotaccent.sc
Substitution2: "'aalt' Access All Alternates lookup 0 subtable" gdotaccent.sc
EndChar

StartChar: Gcommaaccent
Encoding: 290 290 38
Width: 615
GlyphClass: 2
Flags: MW
HStem: -11 51<258.5 343.5 258.5 348> 319 50<366 498 366 366> 645 51<310.5 436.5>
VStem: 71 62<180 343.5 180 360.5> 240 87<-134 -117>
AnchorPoint: "Anchor-11" 301 0 basechar 0
AnchorPoint: "Anchor-10" 0 0 basechar 0
AnchorPoint: "Anchor-9" 409 685 basechar 0
AnchorPoint: "Anchor-8" 0 0 basechar 0
LayerCount: 2
Fore
SplineSet
406 696 m 0
 483 696 539 672 589 627 c 1
 549 591 l 1
 507 629 467 645 406 645 c 0
 215 645 133 434 133 253 c 0
 133 107 201 40 316 40 c 0
 371 40 417 52 463 77 c 1
 498 319 l 1
 366 319 l 1
 365 369 l 1
 564 369 l 1
 520 47 l 1
 456 9 386 -11 310 -11 c 0
 164 -11 71 80 71 260 c 0
 71 461 177 696 406 696 c 0
287 -85 m 0
 312 -85 327 -103 327 -124 c 0
 327 -144 320 -157 296 -195 c 2
 244 -279 l 1
 209 -279 l 1
 258 -164 l 1
 247 -156 240 -143 240 -130 c 0
 240 -104 260 -85 287 -85 c 0
EndSplineSet
Substitution2: "'c2sc' Capitals to Small Capitals lookup 23 subtable" gcommaaccent.sc
Substitution2: "'aalt' Access All Alternates lookup 0 subtable" gcommaaccent.sc
Position2: "'cpsp' Capital Spacing lookup 0 subtable" dx=5 dy=0 dh=10 dv=0
EndChar
StartChar: gcommaaccent
Encoding: 291 291 456
Width: 567
GlyphClass: 2
Flags: MW
HStem: -207 50<176.5 245 176.5 262.5> 0 48<198.5 257> 487 47<253.5 352.5>
VStem: 59 61<150.5 200 150.5 200> 297 87<621 638>
AnchorPoint: "Anchor-14" 0 0 basechar 0
AnchorPoint: "Anchor-13" 0 0 basechar 0
AnchorPoint: "Anchor-12" 322 523 basechar 0
AnchorPoint: "Anchor-11" 0 0 basechar 0
AnchorPoint: "Anchor-10" 208 -197 basechar 0
LayerCount: 2
Back
Fore
SplineSet
337 589 m 0
 312 589 297 607 297 628 c 0
 297 648 304 661 328 699 c 2
 380 783 l 1
 415 783 l 1
 366 668 l 1
 377 660 384 647 384 634 c 0
 384 608 364 589 337 589 c 0
329 534 m 0
 397 534 444 519 498 491 c 1
 427 4 l 2
 404 -154 317 -207 208 -207 c 0
 143 -207 81 -185 35 -158 c 1
 58 -114 l 1
 97 -135 146 -157 207 -157 c 0
 283 -157 353 -123 370 3 c 2
 383 90 l 1
 344 37 289 0 225 0 c 0
 120 0 59 78 59 200 c 0
 58 342 132 534 329 534 c 0
330 487 m 0
 177 487 119 322 120 200 c 0
 120 101 163 48 234 48 c 0
 298 48 349 91 392 158 c 1
 437 463 l 1
 406 478 375 487 330 487 c 0
EndSplineSet
Substitution2: "'smcp' Lowercase to Small Capitals lookup 28 subtable" gcommaaccent.sc
Substitution2: "'aalt' Access All Alternates lookup 0 subtable" gcommaaccent.sc
EndChar
StartChar: Hcircumflex
Encoding: 292 292 110
Width: 667
GlyphClass: 2
Flags: MW
HStem: 0 21G<74 133 74 74 460 520 460 460> 335 51<187 508 180 515> 665 20G<170 229 229 229 557 616 616 616>
VStem: 74 542
AnchorPoint: "Anchor-14" 344 343 basechar 0
AnchorPoint: "Anchor-13" 499 755 basechar 0
AnchorPoint: "Anchor-12" 415 894 basechar 0
AnchorPoint: "Anchor-11" 0 0 basechar 0
AnchorPoint: "Anchor-10" 298 0 basechar 0
LayerCount: 2
Back
Fore
SplineSet
521 762 m 1
 410 842 l 1
 279 762 l 1
 254 792 l 1
 397 894 l 1
 433 894 l 1
 548 792 l 1
 521 762 l 1
460 0 m 1
 508 335 l 1
 180 335 l 1
 133 0 l 1
 74 0 l 1
 170 685 l 1
 229 685 l 1
 187 386 l 1
 515 386 l 1
 557 685 l 1
 616 685 l 1
 520 0 l 1
 460 0 l 1
EndSplineSet
Substitution2: "'c2sc' Capitals to Small Capitals lookup 27 subtable" hcircumflex.sc
Substitution2: "'aalt' Access All Alternates lookup 0 subtable" hcircumflex.sc
Position2: "'cpsp' Capital Spacing lookup 0 subtable" dx=5 dy=0 dh=10 dv=0
EndChar
StartChar: hcircumflex
Encoding: 293 293 471
Width: 582
GlyphClass: 2
Flags: MW
HStem: 0 21G<69 126 69 69 386 444 386 386> 485 49<336.5 393.5> 723 20G<231 231>
VStem: 440.64 58.23
AnchorPoint: "Anchor-14" 293 262 basechar 0
AnchorPoint: "Anchor-13" 467 806 basechar 0
AnchorPoint: "Anchor-12" 383 945 basechar 0
AnchorPoint: "Anchor-11" 0 0 basechar 0
AnchorPoint: "Anchor-10" 257 0 basechar 0
LayerCount: 2
Back
Fore
SplineSet
489 813 m 1
 378 893 l 1
 247 813 l 1
 222 843 l 1
 365 945 l 1
 401 945 l 1
 516 843 l 1
 489 813 l 1
375 534 m 0
 467 534 511 473 496 371 c 2
 444 0 l 1
 386 0 l 1
 438 367 l 2
 450 452 422 485 365 485 c 0
 286 485 221 409 170 313 c 1
 126 0 l 1
 69 0 l 1
 173 736 l 1
 231 743 l 1
 181 395 l 1
 230 481 298 534 375 534 c 0
EndSplineSet
Substitution2: "'smcp' Lowercase to Small Capitals lookup 28 subtable" hcircumflex.sc
Substitution2: "'aalt' Access All Alternates lookup 0 subtable" hcircumflex.sc
EndChar
StartChar: Hbar
Encoding: 294 294 108
Width: 666
GlyphClass: 2
Flags: MW
HStem: 0 21G<75 134 75 75 462 521 462 462> 335 51<189 509 182 516> 513 45<89 147 83 153 213 534 600 656> 513 172<83 231 83 231 207 207 207 231 171 534 594 618 594 594>
VStem: 75 588<0 558>
AnchorPoint: "Anchor-14" 345 343 basechar 0
AnchorPoint: "Anchor-13" 0 0 basechar 0
AnchorPoint: "Anchor-12" 393 685 basechar 0
AnchorPoint: "Anchor-11" 0 0 basechar 0
AnchorPoint: "Anchor-10" 299 0 basechar 0
LayerCount: 2
Back
Fore
SplineSet
663 558 m 1xe8
 656 513 l 1
 594 513 l 1
 521 0 l 1
 462 0 l 1
 509 335 l 1
 182 335 l 1
 134 0 l 1
 75 0 l 1
 147 513 l 1
 83 513 l 1
 89 558 l 1
 153 558 l 1xe8
 171 685 l 1
 231 685 l 1xd8
 213 558 l 1
 540 558 l 1xe8
 558 685 l 1
 618 685 l 1xd8
 600 558 l 1
 663 558 l 1xe8
516 386 m 1
 534 513 l 1
 207 513 l 1
 189 386 l 1
 516 386 l 1
EndSplineSet
Substitution2: "'c2sc' Capitals to Small Capitals lookup 27 subtable" hbar.sc
Substitution2: "'aalt' Access All Alternates lookup 0 subtable" hbar.sc
Position2: "'cpsp' Capital Spacing lookup 0 subtable" dx=5 dy=0 dh=10 dv=0
EndChar
StartChar: hbar
Encoding: 295 295 469
Width: 588
GlyphClass: 2
Flags: MW
HStem: 0 21G<75 132 75 75 392 450 392 392> 485 49<342.5 399.5> 616 47<94 162 87 169 226 382> 716 20G<179 179> 723 20G<237 237>
VStem: 446.64 58.23
AnchorPoint: "Anchor-14" 299 262 basechar 0
AnchorPoint: "Anchor-13" 0 0 basechar 0
AnchorPoint: "Anchor-12" 366 736 basechar 0
AnchorPoint: "Anchor-11" 0 0 basechar 0
AnchorPoint: "Anchor-10" 263 0 basechar 0
LayerCount: 2
Back
Fore
SplineSet
381 534 m 0xec
 473 534 517 473 502 371 c 2
 450 0 l 1
 392 0 l 1
 444 367 l 2
 456 452 428 485 371 485 c 0
 292 485 228 409 176 313 c 1
 132 0 l 1
 75 0 l 1
 162 616 l 1
 87 616 l 1
 94 663 l 1
 169 663 l 1
 179 736 l 1xf4
 237 743 l 1
 226 663 l 1
 396 663 l 1
 382 616 l 1
 219 616 l 1
 188 395 l 1
 237 481 304 534 381 534 c 0xec
EndSplineSet
Substitution2: "'smcp' Lowercase to Small Capitals lookup 28 subtable" hbar.sc
Substitution2: "'aalt' Access All Alternates lookup 0 subtable" hbar.sc
EndChar

StartChar: Itilde
Encoding: 296 296 53
Width: 281
GlyphClass: 2
Flags: MW
HStem: 0 21G<74 134 74 74> 665 20G<170 230 230 230> 792 47<259 289 259 296.5> 838 46<167 184>
VStem: 70 305<818 862>
AnchorPoint: "Anchor-11" 0 0 basechar 0
AnchorPoint: "Anchor-10" 71 526 basechar 0
AnchorPoint: "Anchor-9" 200 685 basechar 0
AnchorPoint: "Anchor-8" 143 0 basechar 0
LayerCount: 2
Fore
SplineSet
281 792 m 0xe8
 223 792 201 838 167 838 c 1
 139 837 125 824 103 796 c 1
 70 818 l 1
 97 858 128 884 168 884 c 0xd8
 216 884 240 839 278 839 c 0
 300 839 318 853 341 884 c 1
 375 862 l 1
 344 813 312 792 281 792 c 0xe8
134 0 m 1xd8
 74 0 l 1
 170 685 l 1
 230 685 l 1
 134 0 l 1xd8
EndSplineSet
Substitution2: "'c2sc' Capitals to Small Capitals lookup 23 subtable" itilde.sc
Substitution2: "'aalt' Access All Alternates lookup 0 subtable" itilde.sc
Position2: "'cpsp' Capital Spacing lookup 0 subtable" dx=5 dy=0 dh=10 dv=0
EndChar

StartChar: itilde
Encoding: 297 297 187
Width: 269
GlyphClass: 2
Flags: MW
HStem: 0 21G<69 127 69 69> 503 20G<143 201 201 201> 666 47<234 264 234 271.5> 672 20G<45 45> 712 46<142 159> 716 20G<350 350>
VStem: 45 305<692 736>
AnchorPoint: "Anchor-11" 0 0 basechar 0
AnchorPoint: "Anchor-10" 0 0 basechar 0
AnchorPoint: "Anchor-9" 172 523 basechar 0
AnchorPoint: "Anchor-8" 136 0 basechar 0
LayerCount: 2
Fore
SplineSet
256 666 m 0xe2
 198 666 176 712 142 712 c 1xda
 114 711 100 698 78 670 c 1xd6
 45 692 l 1
 72 732 103 758 143 758 c 0xda
 191 758 215 713 253 713 c 0
 275 713 293 727 316 758 c 1xe2
 350 736 l 1xd6
 319 687 287 666 256 666 c 0xe2
127 0 m 1xd6
 69 0 l 1
 143 523 l 1
 201 523 l 1
 127 0 l 1xd6
EndSplineSet
Substitution2: "'smcp' Lowercase to Small Capitals lookup 24 subtable" itilde.sc
Substitution2: "'aalt' Access All Alternates lookup 0 subtable" itilde.sc
EndChar
StartChar: Imacron
Encoding: 298 298 129
Width: 280
GlyphClass: 2
Flags: MW
HStem: 0 21G<74 133 74 74> 665 20G<170 229 229 229> 802 47<103 336 96 343>
VStem: 74 269
AnchorPoint: "Anchor-14" 0 0 basechar 0
AnchorPoint: "Anchor-13" 0 0 basechar 0
AnchorPoint: "Anchor-12" 222 849 basechar 0
AnchorPoint: "Anchor-11" 128 0 basechar 0
AnchorPoint: "Anchor-10" 103 0 basechar 0
LayerCount: 2
Back
Fore
SplineSet
336 802 m 1
 96 802 l 1
 103 849 l 1
 343 849 l 1
 336 802 l 1
229 685 m 1
 133 0 l 1
 74 0 l 1
 170 685 l 1
 229 685 l 1
EndSplineSet
Substitution2: "'c2sc' Capitals to Small Capitals lookup 27 subtable" imacron.sc
Substitution2: "'aalt' Access All Alternates lookup 0 subtable" imacron.sc
Position2: "'cpsp' Capital Spacing lookup 0 subtable" dx=5 dy=0 dh=10 dv=0
EndChar
StartChar: imacron
Encoding: 299 299 492
Width: 269
GlyphClass: 2
Flags: MW
HStem: 0 21G<69 126 69 69> 503 20G<143 200 200 200> 676 47<79 312 72 319>
VStem: 69 250
AnchorPoint: "Anchor-14" 0 0 basechar 0
AnchorPoint: "Anchor-13" 0 0 basechar 0
AnchorPoint: "Anchor-12" 198 723 basechar 0
AnchorPoint: "Anchor-11" 117 0 basechar 0
AnchorPoint: "Anchor-10" 97 0 basechar 0
LayerCount: 2
Back
Fore
SplineSet
312 676 m 1
 72 676 l 1
 79 723 l 1
 319 723 l 1
 312 676 l 1
200 523 m 1
 126 0 l 1
 69 0 l 1
 143 523 l 1
 200 523 l 1
EndSplineSet
Substitution2: "'smcp' Lowercase to Small Capitals lookup 28 subtable" imacron.sc
Substitution2: "'aalt' Access All Alternates lookup 0 subtable" imacron.sc
EndChar

StartChar: Ibreve
Encoding: 300 300 46
Width: 281
GlyphClass: 2
Flags: MW
HStem: 0 21G<74 134 74 74> 665 20G<170 230 230 230> 765 47<185 232 185 240.5>
VStem: 74 274
AnchorPoint: "Anchor-11" 0 0 basechar 0
AnchorPoint: "Anchor-10" 71 526 basechar 0
AnchorPoint: "Anchor-9" 200 685 basechar 0
AnchorPoint: "Anchor-8" 143 0 basechar 0
LayerCount: 2
Fore
SplineSet
207 765 m 0
 137 765 90 809 89 867 c 1
 128 872 l 1
 136 836 162 812 208 812 c 0
 256 812 291 838 309 875 c 1
 348 863 l 1
 332 806 274 765 207 765 c 0
134 0 m 1
 74 0 l 1
 170 685 l 1
 230 685 l 1
 134 0 l 1
EndSplineSet
Substitution2: "'c2sc' Capitals to Small Capitals lookup 23 subtable" ibreve.sc
Substitution2: "'aalt' Access All Alternates lookup 0 subtable" ibreve.sc
Position2: "'cpsp' Capital Spacing lookup 0 subtable" dx=5 dy=0 dh=10 dv=0
EndChar
StartChar: ibreve
Encoding: 301 301 480
Width: 269
GlyphClass: 2
Flags: MW
HStem: 0 21G<69 126 69 69> 503 20G<143 200 200 200> 653 47<165 212 165 220.5>
VStem: 71 41<731.5 771>
AnchorPoint: "Anchor-14" 0 0 basechar 0
AnchorPoint: "Anchor-13" 0 0 basechar 0
AnchorPoint: "Anchor-12" 203 773 basechar 0
AnchorPoint: "Anchor-11" 117 0 basechar 0
AnchorPoint: "Anchor-10" 97 0 basechar 0
LayerCount: 2
Back
Fore
SplineSet
187 653 m 0
 117 653 71 698 71 765 c 1
 112 771 l 1
 118 724 142 700 188 700 c 0
 236 700 273 727 292 773 c 1
 330 761 l 1
 313 694 254 653 187 653 c 0
200 523 m 1
 126 0 l 1
 69 0 l 1
 143 523 l 1
 200 523 l 1
EndSplineSet
Substitution2: "'smcp' Lowercase to Small Capitals lookup 28 subtable" ibreve.sc
Substitution2: "'aalt' Access All Alternates lookup 0 subtable" ibreve.sc
EndChar

StartChar: Iogonek
Encoding: 302 302 52
Width: 281
GlyphClass: 2
Flags: MW
HStem: -217 48<30 51.5> 665 20G<170 230 230 230>
VStem: -60 54<-138 -106.5>
AnchorPoint: "Anchor-11" 0 0 basechar 0
AnchorPoint: "Anchor-10" 71 526 basechar 0
AnchorPoint: "Anchor-9" 200 685 basechar 0
AnchorPoint: "Anchor-8" 143 0 basechar 0
LayerCount: 2
Fore
SplineSet
134 0 m 1
 33 -43 -6 -79 -6 -124 c 0
 -6 -152 11 -169 49 -169 c 0
 70 -169 85 -167 108 -162 c 1
 98 -211 l 1
 78 -215 62 -217 41 -217 c 0
 -26 -217 -60 -182 -60 -136 c 0
 -60 -77 -24 -31 75 9 c 1
 170 685 l 1
 230 685 l 1
 134 0 l 1
EndSplineSet
Substitution2: "'c2sc' Capitals to Small Capitals lookup 23 subtable" iogonek.sc
Substitution2: "'aalt' Access All Alternates lookup 0 subtable" iogonek.sc
Position2: "'cpsp' Capital Spacing lookup 0 subtable" dx=5 dy=0 dh=10 dv=0
EndChar
StartChar: iogonek
Encoding: 303 303 493
Width: 269
GlyphClass: 2
Flags: MW
HStem: -217 48<4 25.5> 0 21G<108 126 108 108> 503 20G<143 200 200 200> 669 84<189 207.5>
VStem: -86 54<-138 -104.5> 156 84
AnchorPoint: "Anchor-14" 0 0 basechar 0
AnchorPoint: "Anchor-13" 0 0 basechar 0
AnchorPoint: "Anchor-12" 203 753 basechar 0
AnchorPoint: "Anchor-11" 117 0 basechar 0
AnchorPoint: "Anchor-10" 97 0 basechar 0
LayerCount: 2
Back
Fore
SplineSet
201 753 m 0
 229 753 244 733 240 708 c 0
 237 686 220 669 195 669 c 0
 168 669 152 689 156 714 c 0
 159 737 177 753 201 753 c 0
71 17 m 1
 143 523 l 1
 200 523 l 1
 126 0 l 1
 108 0 l 1
 7 -43 -32 -79 -32 -124 c 0
 -32 -152 -15 -169 23 -169 c 0
 44 -169 59 -167 82 -162 c 1
 72 -211 l 1
 52 -215 36 -217 15 -217 c 0
 -52 -217 -86 -182 -86 -136 c 0
 -86 -73 -44 -25 71 17 c 1
EndSplineSet
Substitution2: "'smcp' Lowercase to Small Capitals lookup 28 subtable" iogonek.sc
Substitution2: "'aalt' Access All Alternates lookup 0 subtable" iogonek.sc
EndChar
StartChar: Idotaccent
Encoding: 304 304 124
Width: 280
GlyphClass: 2
Flags: MW
HStem: 0 21G<74 133 74 74> 665 20G<170 229 229 229> 795 84<213 231.5>
VStem: 180 84
AnchorPoint: "Anchor-14" 0 0 basechar 0
AnchorPoint: "Anchor-13" 0 0 basechar 0
AnchorPoint: "Anchor-12" 225 879 basechar 0
AnchorPoint: "Anchor-11" 128 0 basechar 0
AnchorPoint: "Anchor-10" 103 0 basechar 0
LayerCount: 2
Back
Fore
SplineSet
225 879 m 0
 253 879 268 859 264 834 c 0
 261 812 244 795 219 795 c 0
 192 795 176 815 180 840 c 0
 183 863 201 879 225 879 c 0
229 685 m 1
 133 0 l 1
 74 0 l 1
 170 685 l 1
 229 685 l 1
EndSplineSet
Substitution2: "'c2sc' Capitals to Small Capitals lookup 27 subtable" i.sc.loclTRK
Substitution2: "'aalt' Access All Alternates lookup 0 subtable" i.sc.loclTRK
Position2: "'cpsp' Capital Spacing lookup 0 subtable" dx=5 dy=0 dh=10 dv=0
EndChar
StartChar: dotlessi
Encoding: 305 305 478
Width: 269
GlyphClass: 2
Flags: MW
HStem: 0 21G<69 126 69 69> 503 20G<143 200 200 200>
VStem: 69 131
AnchorPoint: "Anchor-14" 0 0 basechar 0
AnchorPoint: "Anchor-13" 0 0 basechar 0
AnchorPoint: "Anchor-12" 171 523 basechar 0
AnchorPoint: "Anchor-11" 117 0 basechar 0
AnchorPoint: "Anchor-10" 97 0 basechar 0
LayerCount: 2
Back
Fore
SplineSet
200 523 m 1
 126 0 l 1
 69 0 l 1
 143 523 l 1
 200 523 l 1
EndSplineSet
Substitution2: "'smcp' Lowercase to Small Capitals lookup 28 subtable" dotlessi.sc
Substitution2: "'aalt' Access All Alternates lookup 0 subtable" dotlessi.sc
EndChar

StartChar: IJ
Encoding: 306 306 44
Width: 570
GlyphClass: 2
Flags: MW
HStem: 0 21G<74 134 74 74> 665 20G<170 230 230 230 465 524 524 524>
VStem: 74 450
AnchorPoint: "Anchor-11" 0 0 basechar 0
AnchorPoint: "Anchor-10" 71 526 basechar 0
AnchorPoint: "Anchor-9" 493 685 basechar 0
AnchorPoint: "Anchor-8" 143 0 basechar 0
LayerCount: 2
Fore
SplineSet
134 0 m 1
 74 0 l 1
 170 685 l 1
 230 685 l 1
 134 0 l 1
441 90 m 2
 423 -32 374 -76 258 -119 c 1
 245 -74 l 1
 341 -34 369 4 382 97 c 2
 465 685 l 1
 524 685 l 1
 441 90 l 2
EndSplineSet
Substitution2: "'c2sc' Capitals to Small Capitals lookup 23 subtable" ij.sc
Substitution2: "'aalt' Access All Alternates lookup 0 subtable" ij.sc
Position2: "'cpsp' Capital Spacing lookup 0 subtable" dx=5 dy=0 dh=10 dv=0
EndChar

StartChar: ij
Encoding: 307 307 184
Width: 536
GlyphClass: 2
Flags: MW
HStem: -204 21G<228 228> 0 21G<69 127 69 69> 503 20G<143 201 201 201 410 468 468 468> 669 84<188 206.5 455 473.5>
VStem: 155 84 422 84
AnchorPoint: "Anchor-11" 0 0 basechar 0
AnchorPoint: "Anchor-10" 0 0 basechar 0
AnchorPoint: "Anchor-9" 439 523 basechar 0
AnchorPoint: "Anchor-8" 136 0 basechar 0
LayerCount: 2
Fore
SplineSet
200 753 m 0
 228 753 243 733 239 708 c 0
 236 686 219 669 194 669 c 0
 167 669 151 689 155 714 c 0
 158 737 176 753 200 753 c 0
467 753 m 0
 495 753 510 733 506 708 c 0
 503 686 486 669 461 669 c 0
 434 669 418 689 422 714 c 0
 425 737 443 753 467 753 c 0
127 0 m 1
 69 0 l 1
 143 523 l 1
 201 523 l 1
 127 0 l 1
396 17 m 2
 377 -123 328 -159 228 -204 c 1
 211 -160 l 1
 284 -126 323 -97 339 19 c 2
 410 523 l 1
 468 523 l 1
 396 17 l 2
EndSplineSet
Substitution2: "'smcp' Lowercase to Small Capitals lookup 24 subtable" ij.sc
Substitution2: "'aalt' Access All Alternates lookup 0 subtable" ij.sc
EndChar

StartChar: Jcircumflex
Encoding: 308 308 55
Width: 289
GlyphClass: 2
Flags: MW
HStem: 665 20G<184 243 243 243>
VStem: -36 415
AnchorPoint: "Anchor-11" 0 0 basechar 0
AnchorPoint: "Anchor-10" 0 0 basechar 0
AnchorPoint: "Anchor-9" 212 685 basechar 0
AnchorPoint: "Anchor-8" 0 0 basechar 0
LayerCount: 2
Fore
SplineSet
241 842 m 1
 110 762 l 1
 85 792 l 1
 228 894 l 1
 264 894 l 1
 379 792 l 1
 352 762 l 1
 241 842 l 1
160 90 m 2
 142 -32 93 -76 -23 -119 c 1
 -36 -74 l 1
 60 -34 88 4 101 97 c 2
 184 685 l 1
 243 685 l 1
 160 90 l 2
EndSplineSet
Substitution2: "'c2sc' Capitals to Small Capitals lookup 23 subtable" jcircumflex.sc
Substitution2: "'aalt' Access All Alternates lookup 0 subtable" jcircumflex.sc
Position2: "'cpsp' Capital Spacing lookup 0 subtable" dx=5 dy=0 dh=10 dv=0
EndChar
StartChar: jcircumflex
Encoding: 309 309 500
Width: 267
GlyphClass: 2
Flags: MW
HStem: -204 21G<-41 -41> 503 20G<141 199 199 199>
VStem: -58 393
AnchorPoint: "Anchor-14" 0 0 basechar 0
AnchorPoint: "Anchor-13" 0 0 basechar 0
AnchorPoint: "Anchor-12" 203 779 basechar 0
AnchorPoint: "Anchor-11" 0 0 basechar 0
AnchorPoint: "Anchor-10" 63 -197 basechar 0
LayerCount: 2
Back
Fore
SplineSet
67 643 m 1
 42 674 l 1
 186 779 l 1
 221 779 l 1
 335 674 l 1
 307 643 l 1
 198 728 l 1
 67 643 l 1
199 523 m 1
 127 17 l 2
 108 -123 59 -159 -41 -204 c 1
 -58 -160 l 1
 15 -126 54 -97 70 19 c 2
 141 523 l 1
 199 523 l 1
EndSplineSet
Substitution2: "'smcp' Lowercase to Small Capitals lookup 28 subtable" jcircumflex.sc
Substitution2: "'aalt' Access All Alternates lookup 0 subtable" jcircumflex.sc
EndChar

StartChar: Kcommaaccent
Encoding: 310 310 57
Width: 545
GlyphClass: 2
Flags: MW
HStem: 0 21G<74 133 74 74 437 437 437 508> 665 20G<170 229 229 229 516 588 588 588>
VStem: 74 514 208 87<-134 -117>
AnchorPoint: "Anchor-11" 268 0 basechar 0
AnchorPoint: "Anchor-10" 0 0 basechar 0
AnchorPoint: "Anchor-9" 365 685 basechar 0
AnchorPoint: "Anchor-8" 0 0 basechar 0
LayerCount: 2
Fore
SplineSet
133 0 m 1xe0
 74 0 l 1
 170 685 l 1
 229 685 l 1
 133 0 l 1xe0
258 365 m 1
 508 0 l 1
 437 0 l 1
 189 367 l 1
 516 685 l 1
 588 685 l 1
 258 365 l 1
255 -85 m 0xd0
 280 -85 295 -103 295 -124 c 0
 295 -144 288 -157 264 -195 c 2
 212 -279 l 1
 177 -279 l 1
 226 -164 l 1
 215 -156 208 -143 208 -130 c 0
 208 -104 228 -85 255 -85 c 0xd0
EndSplineSet
Substitution2: "'c2sc' Capitals to Small Capitals lookup 23 subtable" kcommaaccent.sc
Substitution2: "'aalt' Access All Alternates lookup 0 subtable" kcommaaccent.sc
Position2: "'cpsp' Capital Spacing lookup 0 subtable" dx=5 dy=0 dh=10 dv=0
EndChar

StartChar: kcommaaccent
Encoding: 311 311 192
Width: 522
GlyphClass: 2
Flags: MW
HStem: 0 21G<69 126 69 69 379 443 379 379> 487 47<342 389> 723 20G<231 231>
VStem: 185 87<-134 -117> 436 61<380.5 438>
AnchorPoint: "Anchor-11" 246 0 basechar 0
AnchorPoint: "Anchor-10" 0 0 basechar 0
AnchorPoint: "Anchor-9" 0 0 basechar 0
AnchorPoint: "Anchor-8" 0 0 basechar 0
LayerCount: 2
Fore
SplineSet
182 395 m 1
 238 493 307 534 377 534 c 0
 447 534 497 491 497 424 c 0
 497 337 437 272 324 236 c 1
 443 0 l 1
 379 0 l 1
 254 254 l 1
 376 288 436 340 436 417 c 0
 436 459 414 487 364 487 c 0
 291 487 222 420 169 305 c 1
 126 0 l 1
 69 0 l 1
 173 736 l 1
 231 743 l 1
 182 395 l 1
232 -85 m 0
 257 -85 272 -103 272 -124 c 0
 272 -144 265 -157 241 -195 c 2
 189 -279 l 1
 154 -279 l 1
 203 -164 l 1
 192 -156 185 -143 185 -130 c 0
 185 -104 205 -85 232 -85 c 0
EndSplineSet
Substitution2: "'smcp' Lowercase to Small Capitals lookup 24 subtable" kcommaaccent.sc
Substitution2: "'aalt' Access All Alternates lookup 0 subtable" kcommaaccent.sc
EndChar

StartChar: kgreenlandic
Encoding: 312 312 193
Width: 484
GlyphClass: 2
Flags: MW
HStem: 0 21G<69 126 69 69 372 372 372 439> 503 20G<143 200 200 200 420 491 491 491>
VStem: 69 422
LayerCount: 2
Fore
SplineSet
126 0 m 1
 69 0 l 1
 143 523 l 1
 200 523 l 1
 126 0 l 1
237 275 m 1
 439 0 l 1
 372 0 l 1
 170 276 l 1
 420 523 l 1
 491 523 l 1
 237 275 l 1
EndSplineSet
Substitution2: "'smcp' Lowercase to Small Capitals lookup 24 subtable" kgreenlandic.sc
Substitution2: "'aalt' Access All Alternates lookup 0 subtable" kgreenlandic.sc
EndChar
StartChar: Lacute
Encoding: 313 313 143
Width: 472
GlyphClass: 2
Flags: MW
HStem: 0 54<141 410> 665 20G<170 229 229 229>
VStem: 74 352<0 54>
AnchorPoint: "Anchor-14" 383 370 basechar 0
AnchorPoint: "Anchor-13" 263 685 basechar 0
AnchorPoint: "Anchor-12" 221 888 basechar 0
AnchorPoint: "Anchor-11" 0 0 basechar 0
AnchorPoint: "Anchor-10" 242 0 basechar 0
LayerCount: 2
Back
Fore
SplineSet
309 888 m 1
 329 836 l 1
 121 758 l 1
 110 792 l 1
 309 888 l 1
229 685 m 1
 141 54 l 1
 426 54 l 1
 410 0 l 1
 74 0 l 1
 170 685 l 1
 229 685 l 1
EndSplineSet
Substitution2: "'c2sc' Capitals to Small Capitals lookup 27 subtable" lacute.sc
Substitution2: "'aalt' Access All Alternates lookup 0 subtable" lacute.sc
Position2: "'cpsp' Capital Spacing lookup 0 subtable" dx=5 dy=0 dh=10 dv=0
EndChar
StartChar: lacute
Encoding: 314 314 512
Width: 282
GlyphClass: 2
Flags: MW
HStem: -11 50<152.5 167> 723 20G<226 226>
VStem: 75.84 58.16
AnchorPoint: "Anchor-14" 293 377 basechar 0
AnchorPoint: "Anchor-13" 246 736 basechar 0
AnchorPoint: "Anchor-12" 217 939 basechar 0
AnchorPoint: "Anchor-11" 0 0 basechar 0
AnchorPoint: "Anchor-10" 151 0 basechar 0
LayerCount: 2
Back
Fore
SplineSet
305 939 m 1
 325 887 l 1
 117 809 l 1
 106 843 l 1
 305 939 l 1
226 743 m 1
 134 88 l 2
 130 55 138 39 167 39 c 0
 180 39 193 42 205 47 c 1
 218 3 l 1
 198 -6 177 -11 157 -11 c 0
 99 -11 67 23 78 97 c 2
 168 736 l 1
 226 743 l 1
EndSplineSet
Substitution2: "'smcp' Lowercase to Small Capitals lookup 28 subtable" lacute.sc
Substitution2: "'aalt' Access All Alternates lookup 0 subtable" lacute.sc
EndChar

StartChar: Lcommaaccent
Encoding: 315 315 61
Width: 472
GlyphClass: 2
Flags: MW
HStem: 0 54<141 410> 665 20G<170 229 229 229>
VStem: 74 352<0 54> 183 87<-134 -117>
AnchorPoint: "Anchor-11" 244 0 basechar 0
AnchorPoint: "Anchor-10" 0 0 basechar 0
AnchorPoint: "Anchor-9" 200 685 basechar 0
AnchorPoint: "Anchor-8" 0 0 basechar 0
LayerCount: 2
Fore
SplineSet
141 54 m 1xe0
 426 54 l 1
 410 0 l 1
 74 0 l 1
 170 685 l 1
 229 685 l 1
 141 54 l 1xe0
230 -85 m 0xd0
 255 -85 270 -103 270 -124 c 0
 270 -144 263 -157 239 -195 c 2
 187 -279 l 1
 152 -279 l 1
 201 -164 l 1
 190 -156 183 -143 183 -130 c 0
 183 -104 203 -85 230 -85 c 0xd0
EndSplineSet
Substitution2: "'c2sc' Capitals to Small Capitals lookup 23 subtable" lcommaaccent.sc
Substitution2: "'aalt' Access All Alternates lookup 0 subtable" lcommaaccent.sc
Position2: "'cpsp' Capital Spacing lookup 0 subtable" dx=5 dy=0 dh=10 dv=0
EndChar

StartChar: lcommaaccent
Encoding: 316 316 197
Width: 281
GlyphClass: 2
Flags: MW
HStem: -11 49<151.5 166> 723 20G<225 225>
VStem: 43 87<-134 -117> 74.84 58.16
AnchorPoint: "Anchor-11" 103 0 basechar 0
AnchorPoint: "Anchor-10" 0 0 basechar 0
AnchorPoint: "Anchor-9" 0 0 basechar 0
AnchorPoint: "Anchor-8" 0 0 basechar 0
LayerCount: 2
Fore
SplineSet
133 88 m 2xd0
 129 54 137 38 166 38 c 0
 179 38 191 41 204 46 c 1
 217 3 l 1
 197 -6 176 -11 156 -11 c 0
 98 -11 66 23 77 97 c 2
 167 736 l 1
 225 743 l 1
 133 88 l 2xd0
90 -85 m 0xe0
 115 -85 130 -103 130 -124 c 0
 130 -144 123 -157 99 -195 c 2
 47 -279 l 1
 12 -279 l 1
 61 -164 l 1
 50 -156 43 -143 43 -130 c 0
 43 -104 63 -85 90 -85 c 0xe0
EndSplineSet
Substitution2: "'smcp' Lowercase to Small Capitals lookup 24 subtable" lcommaaccent.sc
Substitution2: "'aalt' Access All Alternates lookup 0 subtable" lcommaaccent.sc
EndChar
StartChar: Lcaron
Encoding: 317 317 145
Width: 472
GlyphClass: 2
Flags: MW
HStem: 0 54<141 410> 506 20G<277 277> 665 20G<170 229 229 229 372 372> 671 20G<317 317>
VStem: 74 352<0 54>
AnchorPoint: "Anchor-14" 383 370 basechar 0
AnchorPoint: "Anchor-13" 263 685 basechar 0
AnchorPoint: "Anchor-12" 200 685 basechar 0
AnchorPoint: "Anchor-11" 0 0 basechar 0
AnchorPoint: "Anchor-10" 242 0 basechar 0
LayerCount: 2
Back
Fore
SplineSet
317 691 m 1xd8
 372 685 l 1xe8
 312 521 l 1
 277 526 l 1
 317 691 l 1xd8
229 685 m 1
 141 54 l 1
 426 54 l 1
 410 0 l 1
 74 0 l 1
 170 685 l 1
 229 685 l 1
EndSplineSet
Substitution2: "'c2sc' Capitals to Small Capitals lookup 27 subtable" lcaron.sc
Substitution2: "'aalt' Access All Alternates lookup 0 subtable" lcaron.sc
Position2: "'cpsp' Capital Spacing lookup 0 subtable" dx=5 dy=0 dh=10 dv=0
EndChar
StartChar: lcaron
Encoding: 318 318 516
Width: 282
GlyphClass: 2
Flags: MW
HStem: -11 50<152.5 167> 716 20G<168 168 355 355> 722 20G<300 300> 723 20G<226 226>
VStem: 75.84 58.16
AnchorPoint: "Anchor-14" 293 377 basechar 0
AnchorPoint: "Anchor-13" 246 736 basechar 0
AnchorPoint: "Anchor-12" 197 736 basechar 0
AnchorPoint: "Anchor-11" 0 0 basechar 0
AnchorPoint: "Anchor-10" 151 0 basechar 0
LayerCount: 2
Back
Fore
SplineSet
226 743 m 1x98
 134 88 l 2
 130 55 138 39 167 39 c 0
 180 39 193 42 205 47 c 1
 218 3 l 1
 198 -6 177 -11 157 -11 c 0
 99 -11 67 23 78 97 c 2
 168 736 l 1
 226 743 l 1x98
300 742 m 1xa8
 355 736 l 1xc8
 295 572 l 1
 260 577 l 1
 300 742 l 1xa8
EndSplineSet
Substitution2: "'smcp' Lowercase to Small Capitals lookup 28 subtable" lcaron.sc
Substitution2: "'aalt' Access All Alternates lookup 0 subtable" lcaron.sc
EndChar

StartChar: Ldot
Encoding: 319 319 62
Width: 472
GlyphClass: 2
Flags: MW
HStem: 0 54<141 410> 327 84<373 391.5> 665 20G<170 229 229 229>
VStem: 74 352<0 54> 340 84
AnchorPoint: "Anchor-11" 244 0 basechar 0
AnchorPoint: "Anchor-10" 0 0 basechar 0
AnchorPoint: "Anchor-9" 200 685 basechar 0
AnchorPoint: "Anchor-8" 0 0 basechar 0
LayerCount: 2
Fore
SplineSet
141 54 m 1xf0
 426 54 l 1
 410 0 l 1
 74 0 l 1
 170 685 l 1
 229 685 l 1
 141 54 l 1xf0
385 411 m 0xe8
 413 411 428 391 424 366 c 0
 421 344 404 327 379 327 c 0
 352 327 336 347 340 372 c 0
 343 395 361 411 385 411 c 0xe8
EndSplineSet
Ligature2: "Ligature Substitution lookup 29 subtable" L periodcentered
Substitution2: "'c2sc' Capitals to Small Capitals lookup 23 subtable" ldot.sc
Substitution2: "'aalt' Access All Alternates lookup 0 subtable" ldot.sc
Position2: "'cpsp' Capital Spacing lookup 0 subtable" dx=5 dy=0 dh=10 dv=0
EndChar
StartChar: ldot
Encoding: 320 320 520
Width: 299
GlyphClass: 2
Flags: MW
HStem: -11 50<152.5 167> 334 84<282 300.5> 723 20G<226 226>
VStem: 75.84 58.16 249 84
AnchorPoint: "Anchor-14" 293 377 basechar 0
AnchorPoint: "Anchor-13" 246 736 basechar 0
AnchorPoint: "Anchor-12" 296 418 basechar 0
AnchorPoint: "Anchor-11" 0 0 basechar 0
AnchorPoint: "Anchor-10" 151 0 basechar 0
LayerCount: 2
Back
Fore
SplineSet
226 743 m 1
 134 88 l 2
 130 55 138 39 167 39 c 0
 180 39 193 42 205 47 c 1
 218 3 l 1
 198 -6 177 -11 157 -11 c 0
 99 -11 67 23 78 97 c 2
 168 736 l 1
 226 743 l 1
294 418 m 0
 322 418 337 398 333 373 c 0
 330 351 313 334 288 334 c 0
 261 334 245 354 249 379 c 0
 252 402 270 418 294 418 c 0
EndSplineSet
Ligature2: "Ligature Substitution lookup 40 subtable" l periodcentered
Substitution2: "'smcp' Lowercase to Small Capitals lookup 28 subtable" ldot.sc
Substitution2: "'aalt' Access All Alternates lookup 0 subtable" ldot.sc
EndChar
StartChar: Lslash
Encoding: 321 321 151
Width: 482
GlyphClass: 2
Flags: MW
HStem: 0 54<152 421> 665 20G<181 240 240 240>
VStem: 38 399<54 280>
LayerCount: 2
Back
Fore
SplineSet
437 54 m 1
 421 0 l 1
 84 0 l 1
 124 280 l 1
 57 241 l 1
 38 280 l 1
 132 335 l 1
 181 685 l 1
 240 685 l 1
 196 372 l 1
 393 485 l 1
 412 446 l 1
 189 317 l 1
 152 54 l 1
 437 54 l 1
EndSplineSet
Substitution2: "'c2sc' Capitals to Small Capitals lookup 27 subtable" lslash.sc
Substitution2: "'aalt' Access All Alternates lookup 0 subtable" lslash.sc
Position2: "'cpsp' Capital Spacing lookup 0 subtable" dx=5 dy=0 dh=10 dv=0
EndChar

StartChar: lslash
Encoding: 322 322 199
Width: 289
GlyphClass: 2
Flags: MW
HStem: -11 49<151.5 166> 723 20G<225 225>
VStem: 74.84 58.16
AnchorPoint: "Anchor-11" 103 0 basechar 0
AnchorPoint: "Anchor-10" 0 0 basechar 0
AnchorPoint: "Anchor-9" 0 0 basechar 0
AnchorPoint: "Anchor-8" 0 0 basechar 0
LayerCount: 2
Fore
SplineSet
166 38 m 0
 179 38 191 41 204 46 c 1
 217 3 l 1
 197 -6 176 -11 156 -11 c 0
 98 -11 66 23 77 97 c 2
 109 326 l 1
 54 295 l 1
 38 337 l 1
 117 382 l 1
 167 736 l 1
 225 743 l 1
 179 418 l 1
 281 476 l 1
 297 433 l 1
 171 362 l 1
 133 88 l 2
 129 54 137 38 166 38 c 0
EndSplineSet
Substitution2: "'smcp' Lowercase to Small Capitals lookup 24 subtable" lslash.sc
Substitution2: "'aalt' Access All Alternates lookup 0 subtable" lslash.sc
EndChar

StartChar: nacute
Encoding: 324 324 202
Width: 581
GlyphClass: 2
Flags: MW
HStem: 0 21G<69 126 69 69 386 444 386 386> 485 49<338.5 390> 503 20G<143 191 191 191>
VStem: 440.58 58.34
AnchorPoint: "Anchor-11" 252 0 basechar 0
AnchorPoint: "Anchor-10" 133 523 basechar 0
AnchorPoint: "Anchor-9" 333 523 basechar 0
AnchorPoint: "Anchor-8" 0 0 basechar 0
LayerCount: 2
Fore
SplineSet
458 730 m 1xd0
 252 645 l 1
 238 679 l 1
 439 782 l 1
 458 730 l 1xd0
376 534 m 0
 468 534 511 473 496 372 c 2
 444 0 l 1
 386 0 l 1
 438 367 l 2
 450 454 421 485 359 485 c 0xd0
 287 485 221 409 170 313 c 1
 126 0 l 1
 69 0 l 1
 143 523 l 1
 191 523 l 1xb0
 178 393 l 1
 230 480 301 534 376 534 c 0
EndSplineSet
Substitution2: "'smcp' Lowercase to Small Capitals lookup 24 subtable" nacute.sc
Substitution2: "'locl' Localized Forms in Latin lookup 7 subtable" nacute.loclPLK
AlternateSubs2: "'aalt' Access All Alternates lookup 1 subtable" nacute.loclPLK nacute.sc
EndChar
StartChar: Ncommaaccent
Encoding: 325 325 161
Width: 670
GlyphClass: 2
Flags: MW
HStem: 0 55<484 484 484 522 446 484> 631 54<209 209>
VStem: 74 545 238 87<-134 -117>
AnchorPoint: "Anchor-14" 0 0 basechar 0
AnchorPoint: "Anchor-13" 0 0 basechar 0
AnchorPoint: "Anchor-12" 403 685 basechar 0
AnchorPoint: "Anchor-11" 0 0 basechar 0
AnchorPoint: "Anchor-10" 299 0 basechar 0
LayerCount: 2
Back
Fore
SplineSet
619 685 m 1xe0
 522 0 l 1
 446 0 l 1
 209 631 l 1
 208 569 201 504 184 381 c 2
 130 0 l 1
 74 0 l 1
 170 685 l 1
 247 685 l 1
 484 55 l 1
 486 119 492 182 504 270 c 2
 562 685 l 1
 619 685 l 1xe0
285 -85 m 0xd0
 310 -85 325 -103 325 -124 c 0
 325 -144 318 -157 294 -195 c 2
 242 -279 l 1
 207 -279 l 1
 256 -164 l 1
 245 -156 238 -143 238 -130 c 0
 238 -104 258 -85 285 -85 c 0xd0
EndSplineSet
Substitution2: "'c2sc' Capitals to Small Capitals lookup 27 subtable" ncommaaccent.sc
Substitution2: "'aalt' Access All Alternates lookup 0 subtable" ncommaaccent.sc
Position2: "'cpsp' Capital Spacing lookup 0 subtable" dx=5 dy=0 dh=10 dv=0
EndChar

StartChar: ncommaaccent
Encoding: 326 326 205
Width: 581
GlyphClass: 2
Flags: MW
HStem: 0 21G<69 126 69 69 386 444 386 386> 485 49<338.5 390> 503 20G<143 191 191 191>
VStem: 192 87<-134 -117> 440.58 58.34
AnchorPoint: "Anchor-11" 252 0 basechar 0
AnchorPoint: "Anchor-10" 133 523 basechar 0
AnchorPoint: "Anchor-9" 333 523 basechar 0
AnchorPoint: "Anchor-8" 0 0 basechar 0
LayerCount: 2
Fore
SplineSet
376 534 m 0xc8
 468 534 511 473 496 372 c 2
 444 0 l 1
 386 0 l 1
 438 367 l 2
 450 454 421 485 359 485 c 0xc8
 287 485 221 409 170 313 c 1
 126 0 l 1
 69 0 l 1
 143 523 l 1
 191 523 l 1xa8
 178 393 l 1
 230 480 301 534 376 534 c 0xc8
239 -85 m 0xd8
 264 -85 279 -103 279 -124 c 0
 279 -144 272 -157 248 -195 c 2
 196 -279 l 1
 161 -279 l 1
 210 -164 l 1
 199 -156 192 -143 192 -130 c 0
 192 -104 212 -85 239 -85 c 0xd8
EndSplineSet
Substitution2: "'smcp' Lowercase to Small Capitals lookup 24 subtable" ncommaaccent.sc
Substitution2: "'aalt' Access All Alternates lookup 0 subtable" ncommaaccent.sc
EndChar
StartChar: Ncaron
Encoding: 327 327 159
Width: 670
GlyphClass: 2
Flags: MW
HStem: 0 55<484 484 484 522 446 484> 631 54<209 209>
VStem: 74 545
AnchorPoint: "Anchor-14" 0 0 basechar 0
AnchorPoint: "Anchor-13" 0 0 basechar 0
AnchorPoint: "Anchor-12" 425 888 basechar 0
AnchorPoint: "Anchor-11" 0 0 basechar 0
AnchorPoint: "Anchor-10" 299 0 basechar 0
LayerCount: 2
Back
Fore
SplineSet
546 888 m 1
 569 857 l 1
 427 756 l 1
 392 756 l 1
 276 857 l 1
 304 887 l 1
 414 808 l 1
 546 888 l 1
619 685 m 1
 522 0 l 1
 446 0 l 1
 209 631 l 1
 208 569 201 504 184 381 c 2
 130 0 l 1
 74 0 l 1
 170 685 l 1
 247 685 l 1
 484 55 l 1
 486 119 492 182 504 270 c 2
 562 685 l 1
 619 685 l 1
EndSplineSet
Substitution2: "'c2sc' Capitals to Small Capitals lookup 27 subtable" ncaron.sc
Substitution2: "'aalt' Access All Alternates lookup 0 subtable" ncaron.sc
Position2: "'cpsp' Capital Spacing lookup 0 subtable" dx=5 dy=0 dh=10 dv=0
EndChar

StartChar: ncaron
Encoding: 328 328 204
Width: 581
GlyphClass: 2
Flags: MW
HStem: 0 21G<69 126 69 69 386 444 386 386> 485 49<338.5 390> 503 20G<143 191 191 191> 635 52<357 357 357 370 334 357> 667 20G<357 357> 721 20G<220 220 513 513>
VStem: 440.58 58.34
AnchorPoint: "Anchor-11" 252 0 basechar 0
AnchorPoint: "Anchor-10" 133 523 basechar 0
AnchorPoint: "Anchor-9" 333 523 basechar 0
AnchorPoint: "Anchor-8" 0 0 basechar 0
LayerCount: 2
Fore
SplineSet
513 741 m 1xce
 370 635 l 1
 334 635 l 1xd6
 220 741 l 1
 247 771 l 1
 357 687 l 1
 490 771 l 1
 513 741 l 1xce
376 534 m 0
 468 534 511 473 496 372 c 2
 444 0 l 1
 386 0 l 1
 438 367 l 2
 450 454 421 485 359 485 c 0xce
 287 485 221 409 170 313 c 1
 126 0 l 1
 69 0 l 1
 143 523 l 1
 191 523 l 1xae
 178 393 l 1
 230 480 301 534 376 534 c 0
EndSplineSet
Substitution2: "'smcp' Lowercase to Small Capitals lookup 24 subtable" ncaron.sc
Substitution2: "'aalt' Access All Alternates lookup 0 subtable" ncaron.sc
EndChar
StartChar: napostrophe
Encoding: 329 329 537
Width: 666
GlyphClass: 2
Flags: MW
HStem: 0 21G<153 211 153 153 471 528 471 471> 485 49<421.5 477> 503 20G<227 276 276 276> 725 20G<149.5 176>
VStem: 116 87 525.27 57.57
AnchorPoint: "Anchor-14" 0 0 basechar 0
AnchorPoint: "Anchor-13" 0 0 basechar 0
AnchorPoint: "Anchor-12" 413 523 basechar 0
AnchorPoint: "Anchor-11" 0 0 basechar 0
AnchorPoint: "Anchor-10" 341 0 basechar 0
LayerCount: 2
Back
Fore
SplineSet
162 745 m 0xdc
 190 745 205 724 203 702 c 0
 202 685 196 672 174 635 c 2
 124 547 l 1
 88 547 l 1
 136 666 l 1
 123 674 115 687 116 704 c 0
 118 727 137 745 162 745 c 0xdc
461 534 m 0
 550 534 595 473 580 369 c 2
 528 0 l 1
 471 0 l 1
 523 367 l 2
 534 452 505 485 449 485 c 0xdc
 372 485 306 409 254 313 c 1
 211 0 l 1
 153 0 l 1
 227 523 l 1
 276 523 l 1xbc
 263 393 l 1
 315 480 382 534 461 534 c 0
EndSplineSet
Substitution2: "'smcp' Lowercase to Small Capitals lookup 28 subtable" napostrophe.sc
Ligature2: "'locl' Localized Forms in Latin lookup 12 subtable" quoteright n
Ligature2: "'locl' Localized Forms in Latin lookup 12 subtable" quotesingle n
Substitution2: "'aalt' Access All Alternates lookup 0 subtable" napostrophe.sc
EndChar
StartChar: Eng
Encoding: 330 330 165
Width: 670
GlyphClass: 2
Flags: MW
HStem: -205 49<353.5 390.5 353.5 407.5> 0 21G<74 130 74 74 446 463 446 446 522 522> 631 54<209 209>
VStem: 458 59
AnchorPoint: "Anchor-14" 0 0 basechar 0
AnchorPoint: "Anchor-13" 0 0 basechar 0
AnchorPoint: "Anchor-12" 403 685 basechar 0
AnchorPoint: "Anchor-11" 0 0 basechar 0
AnchorPoint: "Anchor-10" 299 0 basechar 0
LayerCount: 2
Back
Fore
SplineSet
562 685 m 1
 619 685 l 1
 522 0 l 1
 512 -73 l 2
 499 -164 444 -205 371 -205 c 0
 324 -205 293 -187 273 -170 c 1
 300 -133 l 1
 319 -146 337 -156 370 -156 c 0
 411 -156 444 -132 453 -70 c 2
 463 0 l 1
 446 0 l 1
 209 631 l 1
 208 569 201 504 184 381 c 2
 130 0 l 1
 74 0 l 1
 170 685 l 1
 247 685 l 1
 484 55 l 1
 486 119 492 182 504 270 c 2
 562 685 l 1
EndSplineSet
Substitution2: "'ss01' Style Set 1 lookup 34 subtable" Eng.ss01
Substitution2: "'salt' Stylistic Alternatives lookup 33 subtable" Eng.ss01
Substitution2: "'c2sc' Capitals to Small Capitals lookup 27 subtable" eng.sc
AlternateSubs2: "'aalt' Access All Alternates lookup 1 subtable" eng.sc Eng.ss01
Position2: "'cpsp' Capital Spacing lookup 0 subtable" dx=5 dy=0 dh=10 dv=0
EndChar

StartChar: eng
Encoding: 331 331 206
Width: 581
GlyphClass: 2
Flags: MW
HStem: -204 21G<277 277> 0 21G<69 126 69 69> 485 49<338.5 390> 503 20G<143 191 191 191>
VStem: 440.58 58.05
LayerCount: 2
Fore
SplineSet
376 534 m 0xe8
 468 534 510 473 496 372 c 2
 445 16 l 2
 425 -123 377 -159 277 -204 c 1
 260 -160 l 1
 334 -126 373 -97 388 14 c 2
 438 367 l 2
 450 454 421 485 359 485 c 0xe8
 288 485 221 409 170 313 c 1
 126 0 l 1
 69 0 l 1
 143 523 l 1
 191 523 l 1xd8
 178 390 l 1
 228 477 301 534 376 534 c 0xe8
EndSplineSet
Substitution2: "'smcp' Lowercase to Small Capitals lookup 24 subtable" eng.sc
Substitution2: "'aalt' Access All Alternates lookup 0 subtable" eng.sc
EndChar
StartChar: omacron
Encoding: 333 333 579
Width: 569
GlyphClass: 2
Flags: MW
HStem: -11 49<208 326.5 208 348> 486 48<241.5 361> 676 47<230 463 223 470>
VStem: 59 60<143.5 250.5 143.5 267> 449 61<272 380.5>
AnchorPoint: "Anchor-14" 0 0 basechar 0
AnchorPoint: "Anchor-13" 501 523 basechar 0
AnchorPoint: "Anchor-12" 349 723 basechar 0
AnchorPoint: "Anchor-11" 0 0 basechar 0
AnchorPoint: "Anchor-10" 249 0 basechar 0
LayerCount: 2
Back
Fore
SplineSet
463 676 m 1
 223 676 l 1
 230 723 l 1
 470 723 l 1
 463 676 l 1
321 534 m 0
 441 534 510 457 510 324 c 0
 510 195 447 -11 249 -11 c 0
 127 -11 59 69 59 201 c 0
 59 333 124 534 321 534 c 0
319 486 m 0
 164 486 119 305 119 196 c 0
 119 91 166 38 250 38 c 0
 403 38 449 216 449 328 c 0
 449 433 403 486 319 486 c 0
EndSplineSet
Substitution2: "'smcp' Lowercase to Small Capitals lookup 28 subtable" omacron.sc
Substitution2: "'aalt' Access All Alternates lookup 0 subtable" omacron.sc
EndChar
StartChar: Obreve
Encoding: 334 334 173
Width: 688
GlyphClass: 2
Flags: MW
HStem: -11 51<256.5 415.5 256.5 433.5> 645 51<298 456.5> 765 47<393 440 393 448.5>
VStem: 71 62<184.5 335 184.5 348.5> 578 62<352.5 501.5>
AnchorPoint: "Anchor-14" 0 0 basechar 0
AnchorPoint: "Anchor-13" 599 685 basechar 0
AnchorPoint: "Anchor-12" 429 875 basechar 0
AnchorPoint: "Anchor-11" 0 0 basechar 0
AnchorPoint: "Anchor-10" 306 0 basechar 0
LayerCount: 2
Back
Fore
SplineSet
415 765 m 0
 345 765 298 809 297 867 c 1
 336 872 l 1
 344 836 370 812 416 812 c 0
 464 812 499 838 517 875 c 1
 556 863 l 1
 540 806 482 765 415 765 c 0
404 696 m 0
 548 696 640 602 640 424 c 0
 640 245 558 -11 309 -11 c 0
 164 -11 71 85 71 262 c 0
 71 435 156 696 404 696 c 0
401 645 m 0
 195 645 133 410 133 260 c 0
 133 109 203 40 310 40 c 0
 521 40 578 278 578 427 c 0
 578 576 512 645 401 645 c 0
EndSplineSet
Substitution2: "'c2sc' Capitals to Small Capitals lookup 27 subtable" obreve.sc
Substitution2: "'aalt' Access All Alternates lookup 0 subtable" obreve.sc
Position2: "'cpsp' Capital Spacing lookup 0 subtable" dx=5 dy=0 dh=10 dv=0
EndChar

StartChar: obreve
Encoding: 335 335 210
Width: 569
GlyphClass: 2
Flags: MW
HStem: -11 49<208 326.5 208 348> 486 48<241.5 361> 653 47<319 366 319 374.5>
VStem: 59 60<143.5 250.5 143.5 267> 225 41<731.5 771> 449 61<272 380.5>
AnchorPoint: "Anchor-11" 0 0 basechar 0
AnchorPoint: "Anchor-10" 0 0 basechar 0
AnchorPoint: "Anchor-9" 322 523 basechar 0
AnchorPoint: "Anchor-8" 0 0 basechar 0
LayerCount: 2
Fore
SplineSet
341 653 m 0
 271 653 225 698 225 765 c 1
 266 771 l 1
 272 724 296 700 342 700 c 0
 390 700 427 727 446 773 c 1
 484 761 l 1
 467 694 408 653 341 653 c 0
321 534 m 0
 441 534 510 457 510 324 c 0
 510 195 447 -11 249 -11 c 0
 127 -11 59 69 59 201 c 0
 59 333 124 534 321 534 c 0
319 486 m 0
 164 486 119 305 119 196 c 0
 119 91 166 38 250 38 c 0
 403 38 449 216 449 328 c 0
 449 433 403 486 319 486 c 0
EndSplineSet
Substitution2: "'smcp' Lowercase to Small Capitals lookup 24 subtable" obreve.sc
Substitution2: "'aalt' Access All Alternates lookup 0 subtable" obreve.sc
EndChar

StartChar: OE
Encoding: 338 338 82
Width: 872
GlyphClass: 2
Flags: MW
HStem: -11 51<250.5 309> 0 40<368 399.5 250.5 783 368 368> 0 50<461 783> 330 50<617 779 612 785> 635 50<539 859 539 539> 645 40<294 873> 645 51<294 403.5 275.5 442>
VStem: 71 62<182 330 182 346.5> 559 60<416 471 416 506>
LayerCount: 2
Fore
SplineSet
859 635 m 1x3980
 539 635 l 1
 591 592 619 519 619 423 c 0
 619 409 618 395 617 380 c 1
 785 380 l 1
 779 330 l 1
 612 330 l 1
 596 227 551 114 461 50 c 1
 791 50 l 1
 783 0 l 1
 368 0 l 1x3980
 345 -8 321 -11 297 -11 c 0
 163 -11 71 85 71 261 c 0
 71 432 160 696 391 696 c 0x9380
 416 696 440 692 460 685 c 1
 873 685 l 1
 859 635 l 1x3980
559 435 m 0x5580
 559 577 493 645 391 645 c 0
 197 645 133 405 133 255 c 0
 133 109 201 40 300 40 c 0
 499 40 559 285 559 435 c 0x5580
EndSplineSet
Substitution2: "'c2sc' Capitals to Small Capitals lookup 23 subtable" oe.sc
Substitution2: "'aalt' Access All Alternates lookup 0 subtable" oe.sc
Position2: "'cpsp' Capital Spacing lookup 0 subtable" dx=5 dy=0 dh=10 dv=0
EndChar

StartChar: oe
Encoding: 339 339 219
Width: 900
GlyphClass: 2
Flags: MW
HStem: -11 49<208 300> 206 46 486 48<241.5 361 652.5 737>
VStem: 59 60<143.5 250.5 143.5 267> 449 51 801 61<358 426.5>
AnchorPoint: "Anchor-11" 0 0 basechar 0
AnchorPoint: "Anchor-10" 0 0 basechar 0
AnchorPoint: "Anchor-9" 507 523 basechar 0
AnchorPoint: "Anchor-8" 0 0 basechar 0
LayerCount: 2
Fore
SplineSet
862 408 m 0
 862 274 713 223 500 206 c 1
 500 200 l 2
 500 86 554 39 634 39 c 0
 690 39 732 57 781 92 c 1
 808 51 l 1
 754 12 698 -11 630 -11 c 0
 538 -11 481 38 455 118 c 1
 415 45 351 -11 249 -11 c 0
 127 -11 59 69 59 201 c 0
 59 333 124 534 321 534 c 0
 412 534 471 485 496 407 c 1
 536 480 602 534 703 534 c 0
 805 534 862 479 862 408 c 0
250 38 m 0
 403 38 449 216 449 328 c 0
 449 433 403 486 319 486 c 0
 164 486 119 305 119 196 c 0
 119 91 166 38 250 38 c 0
702 486 m 0
 574 486 517 363 503 252 c 1
 697 267 801 310 801 406 c 0
 801 447 772 486 702 486 c 0
EndSplineSet
Substitution2: "'smcp' Lowercase to Small Capitals lookup 24 subtable" oe.sc
Substitution2: "'aalt' Access All Alternates lookup 0 subtable" oe.sc
EndChar
StartChar: Racute
Encoding: 340 340 219
Width: 587
GlyphClass: 2
Flags: MW
HStem: 0 21G<74 133 74 74 451 517 451 451> 307 49<183 301 301 315 176 301> 636 49<222 334 222 222>
VStem: 491 62<488 563.5>
AnchorPoint: "Anchor-14" 0 0 basechar 0
AnchorPoint: "Anchor-13" 0 0 basechar 0
AnchorPoint: "Anchor-12" 373 888 basechar 0
AnchorPoint: "Anchor-11" 0 0 basechar 0
AnchorPoint: "Anchor-10" 268 0 basechar 0
LayerCount: 2
Back
Fore
SplineSet
481 836 m 1
 273 758 l 1
 262 792 l 1
 461 888 l 1
 481 836 l 1
553 525 m 0
 553 440 509 348 373 316 c 1
 517 0 l 1
 451 0 l 1
 315 307 l 1
 176 307 l 1
 133 0 l 1
 74 0 l 1
 170 685 l 1
 334 685 l 2
 484 685 553 631 553 525 c 0
183 356 m 1
 301 356 l 2
 449 356 491 450 491 526 c 0
 491 601 445 636 334 636 c 2
 222 636 l 1
 183 356 l 1
EndSplineSet
Substitution2: "'c2sc' Capitals to Small Capitals lookup 27 subtable" racute.sc
Substitution2: "'aalt' Access All Alternates lookup 0 subtable" racute.sc
Position2: "'cpsp' Capital Spacing lookup 0 subtable" dx=5 dy=0 dh=10 dv=0
EndChar
StartChar: racute
Encoding: 341 341 604
Width: 371
GlyphClass: 2
Flags: MW
HStem: 0 21G<69 126 69 69> 478 56<308 345> 503 20G<143 192 192 192> 527 7
VStem: 69 337
AnchorPoint: "Anchor-14" 0 0 basechar 0
AnchorPoint: "Anchor-13" 0 0 basechar 0
AnchorPoint: "Anchor-12" 298 782 basechar 0
AnchorPoint: "Anchor-11" 0 0 basechar 0
AnchorPoint: "Anchor-10" 97 0 basechar 0
LayerCount: 2
Back
Fore
SplineSet
387 782 m 1xc8
 406 730 l 1
 200 645 l 1
 186 679 l 1
 387 782 l 1xc8
345 534 m 0
 365 534 383 531 395 527 c 1x98
 379 473 l 1
 367 476 353 478 337 478 c 0xc8
 260 478 212 410 169 298 c 1
 126 0 l 1
 69 0 l 1
 143 523 l 1
 192 523 l 1xa8
 178 396 l 1
 218 484 271 534 345 534 c 0
EndSplineSet
Substitution2: "'smcp' Lowercase to Small Capitals lookup 28 subtable" racute.sc
Substitution2: "'aalt' Access All Alternates lookup 0 subtable" racute.sc
EndChar
StartChar: rcommaaccent
Encoding: 343 343 607
Width: 371
GlyphClass: 2
Flags: MW
HStem: 0 21G<69 126 69 69> 478 56<308 345> 503 20G<143 192 192 192> 527 7
VStem: 5 390 36 87<-134 -117>
AnchorPoint: "Anchor-14" 0 0 basechar 0
AnchorPoint: "Anchor-13" 0 0 basechar 0
AnchorPoint: "Anchor-12" 269 523 basechar 0
AnchorPoint: "Anchor-11" 0 0 basechar 0
AnchorPoint: "Anchor-10" 97 0 basechar 0
LayerCount: 2
Back
Fore
SplineSet
345 534 m 0xc8
 365 534 383 531 395 527 c 1x98
 379 473 l 1
 367 476 353 478 337 478 c 0xc8
 260 478 212 410 169 298 c 1
 126 0 l 1
 69 0 l 1
 143 523 l 1
 192 523 l 1xa8
 178 396 l 1
 218 484 271 534 345 534 c 0xc8
83 -85 m 0xc4
 108 -85 123 -103 123 -124 c 0
 123 -144 116 -157 92 -195 c 2
 40 -279 l 1
 5 -279 l 1
 54 -164 l 1
 43 -156 36 -143 36 -130 c 0
 36 -104 56 -85 83 -85 c 0xc4
EndSplineSet
Substitution2: "'smcp' Lowercase to Small Capitals lookup 28 subtable" rcommaaccent.sc
Substitution2: "'aalt' Access All Alternates lookup 0 subtable" rcommaaccent.sc
EndChar

StartChar: rcaron
Encoding: 345 345 225
Width: 371
GlyphClass: 2
Flags: MW
HStem: 0 21G<69 126 69 69> 478 56<309 344> 503 20G<143 192 192 192> 527 7 635 52<293 293 293 306 270 293> 667 20G<293 293> 721 20G<156 156 449 449>
VStem: 69 380
AnchorPoint: "Anchor-11" 97 0 basechar 0
AnchorPoint: "Anchor-10" 0 0 basechar 0
AnchorPoint: "Anchor-9" 269 523 basechar 0
AnchorPoint: "Anchor-8" 0 0 basechar 0
LayerCount: 2
Fore
SplineSet
449 741 m 1xc7
 306 635 l 1
 270 635 l 1xcb
 156 741 l 1
 183 771 l 1
 293 687 l 1
 426 771 l 1
 449 741 l 1xc7
345 534 m 0
 365 534 383 531 395 527 c 1x97
 379 473 l 1
 365 477 351 478 337 478 c 0xc7
 261 478 212 410 169 298 c 1
 126 0 l 1
 69 0 l 1
 143 523 l 1
 192 523 l 1xa7
 178 396 l 1
 217 484 273 534 345 534 c 0
EndSplineSet
Substitution2: "'smcp' Lowercase to Small Capitals lookup 24 subtable" rcaron.sc
Substitution2: "'aalt' Access All Alternates lookup 0 subtable" rcaron.sc
EndChar
StartChar: sacute
Encoding: 347 347 620
Width: 461
GlyphClass: 2
Flags: MW
HStem: -11 49<161.5 240 161.5 256.5> 486 48<222.5 285.5>
VStem: 77 59<374.5 424.5 374.5 431> 337 60<112.5 171.5>
AnchorPoint: "Anchor-14" 0 0 basechar 0
AnchorPoint: "Anchor-13" 0 0 basechar 0
AnchorPoint: "Anchor-12" 299 782 basechar 0
AnchorPoint: "Anchor-11" 0 0 basechar 0
AnchorPoint: "Anchor-10" 194 0 basechar 0
LayerCount: 2
Back
Fore
SplineSet
388 782 m 1
 407 730 l 1
 201 645 l 1
 187 679 l 1
 388 782 l 1
260 534 m 0
 326 534 377 513 421 475 c 1
 390 440 l 1
 351 470 311 486 260 486 c 0
 185 486 136 452 136 397 c 0
 136 352 165 327 250 301 c 0
 353 269 397 225 397 148 c 0
 397 54 319 -11 194 -11 c 0
 106 -11 50 21 9 60 c 1
 43 94 l 1
 84 60 129 38 194 38 c 0
 286 38 337 81 337 144 c 0
 337 199 310 226 217 255 c 0
 112 288 77 329 77 394 c 0
 77 468 145 534 260 534 c 0
EndSplineSet
Substitution2: "'smcp' Lowercase to Small Capitals lookup 28 subtable" sacute.sc
Substitution2: "'locl' Localized Forms in Latin lookup 7 subtable" sacute.loclPLK
AlternateSubs2: "'aalt' Access All Alternates lookup 1 subtable" sacute.loclPLK sacute.sc
EndChar
StartChar: scircumflex
Encoding: 349 349 625
Width: 461
GlyphClass: 2
Flags: MW
HStem: -11 49<161.5 240 161.5 256.5> 486 48<222.5 285.5>
VStem: 77 59<374.5 424.5 374.5 431> 337 60<112.5 171.5>
AnchorPoint: "Anchor-14" 0 0 basechar 0
AnchorPoint: "Anchor-13" 0 0 basechar 0
AnchorPoint: "Anchor-12" 303 779 basechar 0
AnchorPoint: "Anchor-11" 0 0 basechar 0
AnchorPoint: "Anchor-10" 194 0 basechar 0
LayerCount: 2
Back
Fore
SplineSet
167 643 m 1
 142 674 l 1
 286 779 l 1
 321 779 l 1
 435 674 l 1
 407 643 l 1
 298 728 l 1
 167 643 l 1
260 534 m 0
 326 534 377 513 421 475 c 1
 390 440 l 1
 351 470 311 486 260 486 c 0
 185 486 136 452 136 397 c 0
 136 352 165 327 250 301 c 0
 353 269 397 225 397 148 c 0
 397 54 319 -11 194 -11 c 0
 106 -11 50 21 9 60 c 1
 43 94 l 1
 84 60 129 38 194 38 c 0
 286 38 337 81 337 144 c 0
 337 199 310 226 217 255 c 0
 112 288 77 329 77 394 c 0
 77 468 145 534 260 534 c 0
EndSplineSet
Substitution2: "'smcp' Lowercase to Small Capitals lookup 28 subtable" scircumflex.sc
Substitution2: "'aalt' Access All Alternates lookup 0 subtable" scircumflex.sc
EndChar

StartChar: Scedilla
Encoding: 350 350 93
Width: 536
GlyphClass: 2
Flags: MW
HStem: -227 42<170.5 199 170.5 218.5> -205 20 -96 32<165 216> -9 49<184 184> 645 51<278 354>
VStem: 102 60<486 554.5> 247 52 414 61<160.5 236.5>
AnchorPoint: "Anchor-11" 225 0 basechar 0
AnchorPoint: "Anchor-10" 0 0 basechar 0
AnchorPoint: "Anchor-9" 330 685 basechar 0
AnchorPoint: "Anchor-8" 0 0 basechar 0
LayerCount: 2
Fore
SplineSet
300 389 m 1x7f
 407 356 475 308 475 204 c 0
 475 115 410 -9 225 -11 c 1
 216 -64 l 1
 273 -69 299 -94 299 -133 c 0
 299 -184 253 -227 184 -227 c 0xbf
 148 -227 123 -217 105 -205 c 1
 127 -170 l 1
 141 -179 158 -185 183 -185 c 0
 215 -185 246 -169 247 -138 c 0
 248 -108 228 -96 165 -96 c 1
 184 -9 l 1
 109 -1 55 31 13 77 c 1
 52 113 l 1
 93 68 144 40 222 40 c 0
 349 40 414 119 414 202 c 0
 414 271 375 308 274 342 c 1
 156 379 102 426 102 515 c 0
 102 594 169 696 324 696 c 0
 407 696 464 667 511 619 c 1
 473 583 l 1
 429 628 384 645 324 645 c 0
 232 645 162 594 162 517 c 0
 162 455 198 423 300 389 c 1x7f
EndSplineSet
Substitution2: "'c2sc' Capitals to Small Capitals lookup 23 subtable" scedilla.sc
Substitution2: "'locl' Localized Forms in Latin lookup 5 subtable" Scommaaccent
Substitution2: "'locl' Localized Forms in Latin lookup 4 subtable" Scommaaccent
AlternateSubs2: "'aalt' Access All Alternates lookup 1 subtable" Scommaaccent scedilla.sc
Position2: "'cpsp' Capital Spacing lookup 0 subtable" dx=5 dy=0 dh=10 dv=0
EndChar

StartChar: scedilla
Encoding: 351 351 230
Width: 461
GlyphClass: 2
Flags: MW
HStem: -227 42<153.5 182 153.5 201.5> -205 20 -96 32<148 199> -10 48<167 167> 486 48<223.5 286.5>
VStem: 77 59<374.5 424.5 374.5 431.5> 230 52 337 60<113 171.5>
AnchorPoint: "Anchor-11" 194 0 basechar 0
AnchorPoint: "Anchor-10" 0 0 basechar 0
AnchorPoint: "Anchor-9" 270 523 basechar 0
AnchorPoint: "Anchor-8" 0 0 basechar 0
LayerCount: 2
Fore
SplineSet
250 301 m 0x7f
 353 269 397 226 397 147 c 0
 397 57 325 -6 208 -11 c 1
 199 -64 l 1
 256 -69 282 -94 282 -133 c 0
 282 -184 236 -227 167 -227 c 0xbf
 131 -227 106 -217 88 -205 c 1
 110 -170 l 1
 124 -179 141 -185 166 -185 c 0
 198 -185 229 -169 230 -138 c 0
 231 -108 211 -96 148 -96 c 1
 167 -10 l 1
 94 -4 46 25 9 60 c 1
 45 97 l 1
 84 60 131 38 194 38 c 0
 286 38 337 82 337 144 c 0
 337 199 310 225 217 255 c 0
 113 289 77 330 77 395 c 0
 77 468 145 534 262 534 c 0
 326 534 377 513 421 475 c 1
 389 437 l 1
 352 470 311 486 262 486 c 0
 185 486 136 452 136 397 c 0
 136 352 165 327 250 301 c 0x7f
EndSplineSet
Substitution2: "'smcp' Lowercase to Small Capitals lookup 24 subtable" scedilla.sc
Substitution2: "'locl' Localized Forms in Latin lookup 5 subtable" scommaaccent
Substitution2: "'locl' Localized Forms in Latin lookup 4 subtable" scommaaccent
AlternateSubs2: "'aalt' Access All Alternates lookup 1 subtable" scommaaccent scedilla.sc
EndChar
StartChar: Scaron
Encoding: 352 352 230
Width: 536
GlyphClass: 2
Flags: MW
HStem: -11 51<183 285.5 183 315> 645 51<278 354>
VStem: 102 60<486 554.5> 414 61<160.5 236.5>
AnchorPoint: "Anchor-14" 0 0 basechar 0
AnchorPoint: "Anchor-13" 0 0 basechar 0
AnchorPoint: "Anchor-12" 351 888 basechar 0
AnchorPoint: "Anchor-11" 0 0 basechar 0
AnchorPoint: "Anchor-10" 225 0 basechar 0
LayerCount: 2
Back
Fore
SplineSet
472 888 m 1
 495 857 l 1
 353 756 l 1
 318 756 l 1
 202 857 l 1
 230 887 l 1
 340 808 l 1
 472 888 l 1
324 696 m 0
 407 696 464 667 511 619 c 1
 473 583 l 1
 429 628 384 645 324 645 c 0
 232 645 162 594 162 517 c 0
 162 455 198 423 300 389 c 0
 407 356 475 308 475 204 c 0
 475 114 409 -11 221 -11 c 0
 126 -11 62 24 13 77 c 1
 52 113 l 1
 93 68 144 40 222 40 c 0
 349 40 414 119 414 202 c 0
 414 271 375 308 274 342 c 0
 156 379 102 426 102 515 c 0
 102 594 169 696 324 696 c 0
EndSplineSet
Substitution2: "'c2sc' Capitals to Small Capitals lookup 27 subtable" scaron.sc
Substitution2: "'aalt' Access All Alternates lookup 0 subtable" scaron.sc
Position2: "'cpsp' Capital Spacing lookup 0 subtable" dx=5 dy=0 dh=10 dv=0
EndChar
StartChar: scaron
Encoding: 353 353 622
Width: 461
GlyphClass: 2
Flags: MW
HStem: -11 49<161.5 240 161.5 256.5> 486 48<222.5 285.5> 633 52<289 289 289 302 266 289> 665 20G<289 289> 719 20G<152 152 445 445>
VStem: 77 59<374.5 424.5 374.5 431> 337 60<112.5 171.5>
AnchorPoint: "Anchor-14" 0 0 basechar 0
AnchorPoint: "Anchor-13" 0 0 basechar 0
AnchorPoint: "Anchor-12" 301 769 basechar 0
AnchorPoint: "Anchor-11" 0 0 basechar 0
AnchorPoint: "Anchor-10" 194 0 basechar 0
LayerCount: 2
Back
Fore
SplineSet
422 769 m 1xde
 445 739 l 1
 302 633 l 1
 266 633 l 1xee
 152 739 l 1
 179 769 l 1
 289 685 l 1
 422 769 l 1xde
260 534 m 0
 326 534 377 513 421 475 c 1
 390 440 l 1
 351 470 311 486 260 486 c 0
 185 486 136 452 136 397 c 0
 136 352 165 327 250 301 c 0
 353 269 397 225 397 148 c 0
 397 54 319 -11 194 -11 c 0
 106 -11 50 21 9 60 c 1
 43 94 l 1
 84 60 129 38 194 38 c 0
 286 38 337 81 337 144 c 0
 337 199 310 226 217 255 c 0
 112 288 77 329 77 394 c 0
 77 468 145 534 260 534 c 0
EndSplineSet
Substitution2: "'smcp' Lowercase to Small Capitals lookup 28 subtable" scaron.sc
Substitution2: "'aalt' Access All Alternates lookup 0 subtable" scaron.sc
EndChar

StartChar: Tcedilla
Encoding: 354 354 99
Width: 492
GlyphClass: 2
Flags: MW
HStem: -227 42<183.5 212 183.5 231.5> -205 20 -96 32<178 229> 0 21G<179 199 179 179 239 239> 632 53<74 268 66 542 328 527 328 328>
VStem: 260 52
AnchorPoint: "Anchor-11" 210 0 basechar 0
AnchorPoint: "Anchor-10" 0 0 basechar 0
AnchorPoint: "Anchor-9" 301 685 basechar 0
AnchorPoint: "Anchor-8" 0 0 basechar 0
LayerCount: 2
Fore
SplineSet
542 685 m 1x7c
 527 632 l 1
 328 632 l 1
 239 0 l 1
 229 -64 l 1
 286 -69 312 -94 312 -133 c 0
 312 -184 266 -227 197 -227 c 0xbc
 161 -227 136 -217 118 -205 c 1
 140 -170 l 1
 154 -179 171 -185 196 -185 c 0
 228 -185 259 -169 260 -138 c 0
 261 -108 241 -96 178 -96 c 1
 199 0 l 1
 179 0 l 1
 268 632 l 1
 66 632 l 1
 74 685 l 1
 542 685 l 1x7c
EndSplineSet
Substitution2: "'c2sc' Capitals to Small Capitals lookup 23 subtable" tcedilla.sc
Substitution2: "'locl' Localized Forms in Latin lookup 5 subtable" uni021A
Substitution2: "'locl' Localized Forms in Latin lookup 4 subtable" uni021A
AlternateSubs2: "'aalt' Access All Alternates lookup 1 subtable" uni021A tcedilla.sc
Position2: "'cpsp' Capital Spacing lookup 0 subtable" dx=5 dy=0 dh=10 dv=0
EndChar
StartChar: uni0162
Encoding: 354 354 241
Width: 492
GlyphClass: 2
Flags: MW
HStem: -227 42<183.5 212 183.5 231.5> -205 20 -96 32<178 229> 0 21G<179 199 179 179 239 239> 632 53<74 268 66 542 328 527 328 328>
VStem: 260 52
AnchorPoint: "Anchor-14" 258 347 basechar 0
AnchorPoint: "Anchor-13" 0 0 basechar 0
AnchorPoint: "Anchor-12" 305 685 basechar 0
AnchorPoint: "Anchor-11" 0 0 basechar 0
AnchorPoint: "Anchor-10" 210 0 basechar 0
LayerCount: 2
Back
Fore
SplineSet
74 685 m 1x7c
 542 685 l 1
 527 632 l 1
 328 632 l 1
 239 0 l 1
 229 -64 l 1
 286 -69 312 -94 312 -133 c 0
 312 -184 266 -227 197 -227 c 0xbc
 161 -227 136 -217 118 -205 c 1
 140 -170 l 1
 154 -179 171 -185 196 -185 c 0
 228 -185 259 -169 260 -138 c 0
 261 -108 241 -96 178 -96 c 1
 199 0 l 1
 179 0 l 1
 268 632 l 1
 66 632 l 1
 74 685 l 1x7c
EndSplineSet
Substitution2: "'c2sc' Capitals to Small Capitals lookup 27 subtable" uni0163.sc
Substitution2: "'locl' Localized Forms in Latin lookup 5 subtable" uni021A
Substitution2: "'locl' Localized Forms in Latin lookup 4 subtable" uni021A
AlternateSubs2: "'aalt' Access All Alternates lookup 1 subtable" uni021A uni0163.sc
Position2: "'cpsp' Capital Spacing lookup 0 subtable" dx=5 dy=0 dh=10 dv=0
EndChar

StartChar: tcedilla
Encoding: 355 355 237
Width: 339
GlyphClass: 2
Flags: MW
HStem: -227 42<148.5 177 148.5 196.5> -205 20 -96 32<143 194> -11 50<203 203> -8 21G<163 163> 476 47<54 135 47 143 199 320>
VStem: 83.76 58.09 225 52
AnchorPoint: "Anchor-11" 189 0 basechar 0
AnchorPoint: "Anchor-10" 0 0 basechar 0
AnchorPoint: "Anchor-9" 0 0 basechar 0
AnchorPoint: "Anchor-8" 0 0 basechar 0
LayerCount: 2
Fore
SplineSet
144 129 m 2x77
 135 68 152 39 205 39 c 0
 234 39 261 49 289 64 c 1
 309 21 l 1
 276 2 242 -10 203 -11 c 1
 194 -64 l 1
 251 -69 277 -94 277 -133 c 0
 277 -184 231 -227 162 -227 c 0xb7
 126 -227 101 -217 83 -205 c 1
 105 -170 l 1
 119 -179 136 -185 161 -185 c 0
 193 -185 224 -169 225 -138 c 0
 226 -108 206 -96 143 -96 c 1
 163 -8 l 1x6f
 105 4 75 51 86 128 c 2
 135 476 l 1
 47 476 l 1
 54 523 l 1
 143 523 l 1
 172 650 l 1
 218 655 l 1
 199 523 l 1
 333 523 l 1
 320 476 l 1
 193 476 l 1
 144 129 l 2x77
EndSplineSet
Substitution2: "'smcp' Lowercase to Small Capitals lookup 24 subtable" tcedilla.sc
Substitution2: "'locl' Localized Forms in Latin lookup 5 subtable" uni021B
Substitution2: "'locl' Localized Forms in Latin lookup 4 subtable" uni021B
AlternateSubs2: "'aalt' Access All Alternates lookup 1 subtable" uni021B tcedilla.sc
EndChar
StartChar: uni0163
Encoding: 355 355 638
Width: 339
GlyphClass: 2
Flags: MW
HStem: -227 42<149 180 149 196.5> -205 20 -96 32<143 194> -11 50<203 203> -8 21G<163 163> 476 47<54 135 47 143 199 320>
VStem: 83.76 58.09 225 52
AnchorPoint: "Anchor-14" 166 262 basechar 0
AnchorPoint: "Anchor-13" 260 740 basechar 0
AnchorPoint: "Anchor-12" 194 649 basechar 0
AnchorPoint: "Anchor-11" 0 0 basechar 0
AnchorPoint: "Anchor-10" 182 -227 basechar 0
LayerCount: 2
Back
Fore
SplineSet
193 476 m 1x77
 144 129 l 2
 135 68 152 39 205 39 c 0
 234 39 261 49 289 64 c 1
 309 21 l 1
 276 2 241 -10 203 -11 c 1
 194 -64 l 1
 251 -69 277 -95 277 -136 c 0
 277 -188 231 -227 162 -227 c 0xb7
 126 -227 101 -217 83 -205 c 1
 105 -170 l 1
 119 -179 136 -185 162 -185 c 0
 198 -185 224 -170 225 -138 c 0
 226 -108 206 -96 143 -96 c 1
 163 -8 l 1x6f
 105 5 75 52 86 128 c 2
 135 476 l 1
 47 476 l 1
 54 523 l 1
 143 523 l 1
 172 650 l 1
 218 655 l 1
 199 523 l 1
 333 523 l 1
 320 476 l 1
 193 476 l 1x77
EndSplineSet
Substitution2: "'smcp' Lowercase to Small Capitals lookup 28 subtable" uni0163.sc
Substitution2: "'locl' Localized Forms in Latin lookup 5 subtable" uni021B
Substitution2: "'locl' Localized Forms in Latin lookup 4 subtable" uni021B
AlternateSubs2: "'aalt' Access All Alternates lookup 1 subtable" uni021B uni0163.sc
EndChar
StartChar: Tcaron
Encoding: 356 356 240
Width: 492
GlyphClass: 2
Flags: MW
HStem: 0 21G<179 239 179 179> 632 53<74 268 66 542 328 527 328 328>
VStem: 66 476<632 685>
AnchorPoint: "Anchor-14" 258 347 basechar 0
AnchorPoint: "Anchor-13" 0 0 basechar 0
AnchorPoint: "Anchor-12" 327 888 basechar 0
AnchorPoint: "Anchor-11" 0 0 basechar 0
AnchorPoint: "Anchor-10" 210 0 basechar 0
LayerCount: 2
Back
Fore
SplineSet
448 888 m 1
 471 857 l 1
 329 756 l 1
 294 756 l 1
 178 857 l 1
 206 887 l 1
 316 808 l 1
 448 888 l 1
542 685 m 1
 527 632 l 1
 328 632 l 1
 239 0 l 1
 179 0 l 1
 268 632 l 1
 66 632 l 1
 74 685 l 1
 542 685 l 1
EndSplineSet
Substitution2: "'c2sc' Capitals to Small Capitals lookup 27 subtable" tcaron.sc
Substitution2: "'aalt' Access All Alternates lookup 0 subtable" tcaron.sc
Position2: "'cpsp' Capital Spacing lookup 0 subtable" dx=5 dy=0 dh=10 dv=0
EndChar
StartChar: tcaron
Encoding: 357 357 636
Width: 339
GlyphClass: 2
Flags: MW
HStem: -11 50<178.5 217> 476 47<54 135 47 143 199 320> 719 20G<369 369> 725 20G<314 314>
VStem: 83.74 58.11
AnchorPoint: "Anchor-14" 166 262 basechar 0
AnchorPoint: "Anchor-13" 260 740 basechar 0
AnchorPoint: "Anchor-12" 194 649 basechar 0
AnchorPoint: "Anchor-11" 0 0 basechar 0
AnchorPoint: "Anchor-10" 189 0 basechar 0
LayerCount: 2
Back
Fore
SplineSet
369 739 m 1xe8
 309 575 l 1
 274 580 l 1
 314 745 l 1xd8
 369 739 l 1xe8
218 655 m 1
 199 523 l 1
 333 523 l 1
 320 476 l 1
 193 476 l 1
 144 129 l 2
 135 68 152 39 205 39 c 0
 234 39 261 49 289 64 c 1
 309 21 l 1
 274 1 238 -11 196 -11 c 0
 117 -11 73 38 86 128 c 2
 135 476 l 1
 47 476 l 1
 54 523 l 1
 143 523 l 1
 172 650 l 1
 218 655 l 1
EndSplineSet
Substitution2: "'smcp' Lowercase to Small Capitals lookup 28 subtable" tcaron.sc
Substitution2: "'aalt' Access All Alternates lookup 0 subtable" tcaron.sc
EndChar
